<svg version="1.0" xmlns="http://www.w3.org/2000/svg" width="4242" height="563" viewBox="0 0 4242 563" fill="#57565a"><g transform="translate(0,563) scale(0.1,-0.1)"><path d="M36905 5611 c-55 -10 -244 -55 -420 -99 -295 -74 -497 -123 -905 -216 -305 -71 -522 -144 -768 -262 l-155 -74 6 -228 c8 -248 18 -333 48 -402 29 -66 64 -96 164 -145 334 -161 954 -643 1124 -874 131 -178 226 -408 247 -598 4 -37 1 -95 -6 -141 l-12 -79 -211 -6 c-117 -4 -512 -10 -879 -13 l-668 -7 0 454 c-1 714 -18 1107 -49 1158 -22 35 -109 44 -438 49 l-323 4 0 -831 0 -831 -1305 0 -1305 0 0 835 0 836 -152 -7 c-84 -3 -248 -9 -365 -13 -116 -3 -214 -9 -217 -11 -3 -3 -10 -359 -15 -790 -16 -1221 -2 -1391 122 -1518 101 -103 172 -127 426 -142 198 -13 2466 -16 3276 -5 297 4 667 2 910 -4 1461 -40 1678 -26 1868 117 72 55 152 151 169 202 16 52 22 452 8 615 -25 301 -89 519 -250 848 -194 399 -405 651 -790 948 -183 140 -178 135 -160 153 27 28 611 187 1145 311 110 26 203 50 207 54 11 11 49 339 50 436 1 99 -11 149 -50 208 -55 83 -145 102 -327 68z"/><path d="M24911 5289 c-76 -13 -133 -49 -154 -96 -39 -88 -40 -125 -44 -1440 l-4 -1283 -940 0 -939 0 0 -399 0 -398 263 -6 c157 -3 274 -9 291 -16 28 -11 28 -12 10 -33 -40 -44 -154 -107 -604 -332 -685 -342 -896 -429 -1111 -462 -133 -19 -266 -22 -299 -4 -40 20 -108 78 -136 115 -54 71 -68 190 -114 985 -41 719 -57 846 -114 944 -59 100 -90 104 -392 51 -231 -41 -279 -60 -309 -120 -19 -38 -20 -59 -19 -470 1 -537 27 -934 89 -1370 32 -223 47 -280 105 -400 132 -276 401 -433 877 -516 86 -15 172 -22 263 -23 l135 -1 165 56 c354 120 787 307 1285 554 584 289 815 435 931 589 53 70 72 130 93 296 l17 125 769 7 c439 4 814 11 872 18 129 14 177 30 367 128 l155 79 93 -54 c186 -106 340 -138 683 -138 l240 0 92 32 c255 89 538 288 685 483 59 78 142 242 164 325 22 83 30 360 15 509 -36 349 -170 633 -397 845 -118 111 -310 230 -419 260 -74 21 -375 33 -559 22 -334 -20 -482 -84 -759 -325 -194 -170 -260 -291 -287 -526 -5 -47 -10 -253 -10 -457 l0 -373 -270 0 -270 0 0 138 c0 208 45 2276 55 2540 l6 152 -258 -1 c-142 -1 -283 -5 -312 -10z m2322 -1900 c183 -61 322 -171 390 -308 49 -98 49 -141 -1 -287 -46 -133 -90 -197 -173 -253 -75 -50 -140 -71 -244 -78 -145 -9 -282 38 -385 134 -195 180 -169 442 65 661 76 71 215 152 261 152 14 0 53 -9 87 -21z"/><path d="M31660 4670 l0 -340 715 0 715 0 0 340 0 340 -715 0 -715 0 0 -340z"/><path d="M12700 3973 c1 -247 13 -462 29 -491 6 -11 23 -22 38 -24 35 -4 40 -31 19 -96 -26 -79 -38 -287 -31 -562 3 -140 8 -272 11 -292 l6 -38 -230 0 -230 0 -12 53 c-25 118 -31 217 -40 746 -9 538 -19 721 -41 788 -19 59 -114 73 -486 73 l-283 0 -2 -1476 -3 -1476 -241 -143 c-133 -79 -277 -162 -320 -185 -102 -54 -111 -62 -123 -121 -14 -65 -14 -489 0 -564 22 -118 67 -165 161 -165 90 0 257 69 522 214 302 165 467 278 662 449 l131 116 6 248 c4 136 10 325 14 419 l6 171 1471 6 c1701 8 1977 16 2271 67 162 28 290 78 389 151 22 16 51 29 65 29 15 0 69 -28 124 -65 213 -140 291 -150 1177 -160 626 -7 995 4 1137 34 259 54 346 165 385 490 18 150 19 1700 1 1785 -25 117 -64 163 -150 177 -26 4 -162 5 -300 2 l-253 -6 0 -829 0 -828 -800 0 -799 0 -5 33 c-3 17 -12 149 -21 291 -35 572 -97 729 -419 1052 -72 73 -160 150 -195 173 -105 67 -233 100 -466 121 -139 12 -1077 27 -2257 35 l-918 6 0 -208z m3098 -612 c154 -48 318 -182 362 -296 74 -191 -53 -515 -232 -596 -105 -47 -299 -23 -468 58 -101 49 -199 145 -226 223 -50 149 9 311 175 479 133 135 252 175 389 132z m-1753 -6 c98 -21 163 -56 234 -127 115 -114 171 -214 171 -307 0 -178 -112 -361 -267 -438 -98 -48 -171 -54 -293 -23 -218 56 -324 134 -364 270 -18 62 -22 244 -6 302 15 51 74 123 177 214 140 123 198 141 348 109z"/><path d="M6632 4160 c-288 -41 -625 -244 -815 -493 -139 -181 -197 -381 -197 -680 0 -287 55 -539 163 -752 42 -82 68 -117 146 -198 262 -270 490 -365 887 -368 164 -1 256 -10 261 -24 5 -15 -93 -77 -292 -185 -93 -51 -240 -133 -325 -183 -200 -117 -708 -434 -737 -460 -12 -11 -30 -41 -40 -66 -38 -97 -13 -535 36 -646 29 -65 72 -95 136 -95 71 0 133 24 285 111 69 39 182 100 252 135 118 60 216 120 708 431 96 61 249 152 340 203 260 145 398 242 591 411 l79 70 0 915 0 914 -81 163 c-102 203 -160 300 -244 405 -156 194 -363 323 -600 374 -102 22 -444 33 -553 18z m354 -795 c220 -74 312 -168 333 -341 13 -113 -15 -290 -60 -379 -119 -232 -509 -250 -735 -33 -68 65 -109 139 -125 226 -22 114 4 183 124 341 76 101 158 172 222 195 64 23 156 19 241 -9z"/><path d="M9570 4163 c-337 -53 -561 -156 -777 -358 -158 -147 -264 -314 -303 -478 -72 -301 -22 -813 102 -1062 154 -307 408 -500 759 -577 93 -20 130 -22 354 -22 299 0 337 8 540 109 329 163 593 450 667 724 17 64 21 115 25 323 7 327 1 355 -112 583 -104 211 -186 336 -290 441 -160 163 -373 266 -640 309 -82 14 -263 18 -325 8z m218 -808 c148 -35 288 -145 331 -260 32 -84 38 -213 17 -335 -29 -163 -68 -214 -221 -287 -74 -35 -87 -38 -165 -37 -149 1 -310 71 -407 178 -64 70 -101 140 -119 226 -14 69 -14 73 9 129 46 114 192 301 274 352 77 48 173 59 281 34z"/><path d="M2085 4124 c-108 -11 -185 -36 -257 -83 -90 -58 -163 -138 -172 -185 -43 -226 -46 -1426 -5 -1805 13 -124 48 -200 124 -270 111 -100 245 -126 780 -151 260 -12 485 -29 503 -39 49 -27 -1360 -697 -1627 -774 -62 -18 -102 -22 -216 -22 l-140 0 -70 35 c-101 51 -123 84 -140 206 -20 144 -42 422 -70 899 -44 744 -65 881 -146 950 -44 36 -98 39 -303 15 -260 -30 -282 -38 -319 -118 -22 -46 -22 -59 -25 -582 -7 -1111 60 -1623 238 -1823 180 -202 577 -357 955 -374 128 -5 149 -3 245 20 336 82 956 335 1544 629 423 211 628 338 794 488 l102 93 0 618 0 619 -730 0 -730 0 0 431 0 431 413 -5 c479 -5 477 -4 717 -109 127 -55 153 -62 209 -63 82 0 97 17 112 134 15 110 6 511 -12 566 -29 86 -164 183 -308 220 -164 42 -254 47 -851 50 -316 1 -593 1 -615 -1z"/><path d="M4537 2918 c-6 -1153 -16 -1597 -38 -1680 -7 -29 -26 -50 -77 -92 -96 -77 -234 -167 -427 -276 l-167 -95 6 -150 c7 -180 32 -459 47 -533 15 -74 36 -92 103 -92 87 0 175 34 476 185 377 190 495 270 719 488 l105 102 17 545 c50 1573 49 2578 -2 2737 -19 58 -64 66 -435 71 l-321 4 -6 -1214z"/><path d="M37957 3958 c-4 -95 -7 -380 -7 -634 0 -253 -3 -845 -7 -1315 l-6 -855 -61 -33 c-34 -18 -179 -98 -323 -179 l-263 -147 0 -110 c0 -192 19 -552 31 -600 16 -65 41 -79 132 -73 116 8 347 107 639 274 235 135 361 227 509 371 l136 133 12 377 c6 208 14 394 17 414 l5 36 472 6 c260 4 769 10 1132 13 l660 6 230 117 c127 64 264 139 305 166 127 84 279 249 511 556 223 296 317 479 335 652 7 73 -10 200 -38 274 -24 65 -91 141 -155 175 -38 21 -935 306 -1248 397 -251 73 -474 111 -649 111 -318 0 -527 -109 -857 -446 -173 -178 -286 -315 -304 -372 -6 -20 2 -33 49 -78 47 -45 93 -72 278 -164 123 -61 229 -110 237 -110 7 0 41 22 75 49 92 73 196 137 314 194 106 51 108 52 197 51 70 -1 189 -21 525 -88 239 -48 445 -90 457 -94 20 -7 15 -16 -75 -143 -111 -156 -163 -220 -276 -336 l-80 -83 -1026 0 -1027 0 -12 59 c-26 131 -32 249 -41 781 -5 305 -14 594 -20 642 -20 172 -14 170 -456 176 l-321 4 -6 -174z"/><path d="M18198 1259 c-22 -23 -91 -105 -153 -183 -124 -155 -199 -232 -230 -238 -30 -5 -32 -67 -4 -124 48 -100 247 -325 363 -411 75 -55 130 -59 193 -14 59 43 342 381 379 454 14 27 14 31 -10 62 -97 126 -455 495 -482 495 -9 0 -35 -19 -56 -41z"/></g></svg>