<svg version="1.0" xmlns="http://www.w3.org/2000/svg" width="994" height="81" viewBox="0 0 994 81" fill="#57565a"><g transform="translate(0,81) scale(0.1,-0.1)"><path d="M9752 765 c-73 -18 -145 -41 -158 -50 -23 -15 -25 -21 -19 -58 4 -23 8 -42 9 -43 142 -75 216 -155 216 -233 l0 -31 -135 0 -135 0 0 184 c0 101 -3 191 -6 200 -4 11 -19 16 -50 16 l-44 0 2 -252 3 -253 217 0 c262 0 254 -3 251 108 -4 97 -43 177 -120 246 -31 28 -55 53 -52 55 2 2 47 15 99 28 l95 24 0 45 c0 56 -3 57 -173 14z"/><path d="M6973 728 l-32 -31 26 -34 c14 -18 30 -33 37 -33 6 0 23 15 38 34 l27 33 -32 32 -33 31 -31 -32z"/><path d="M610 683 c0 -37 3 -153 7 -256 l6 -188 41 3 41 3 0 250 0 250 -47 3 -48 3 0 -68z"/><path d="M1282 498 l3 -253 43 -3 42 -3 -2 253 -3 253 -43 3 -42 3 2 -253z"/><path d="M5057 744 c-4 -4 -7 -94 -7 -201 l0 -193 -130 0 -130 0 0 -55 0 -55 40 0 c22 0 40 -4 40 -8 0 -17 -236 -122 -272 -122 -54 0 -61 16 -66 153 -2 67 -9 128 -15 136 -10 12 -80 11 -93 -2 -10 -10 17 -290 31 -317 19 -37 61 -59 123 -67 52 -6 119 16 257 85 102 50 135 77 135 112 l0 28 133 4 c101 2 139 7 157 19 22 14 28 15 59 2 23 -10 56 -14 92 -11 130 9 196 126 138 245 -28 57 -69 86 -135 91 -112 9 -184 -59 -184 -177 l0 -61 -46 0 -45 0 2 198 2 197 -39 3 c-22 2 -43 0 -47 -4z m395 -271 c46 -42 0 -141 -59 -127 -61 14 -83 67 -49 119 20 30 79 35 108 8z"/><path d="M6320 653 c0 -54 3 -169 7 -257 l6 -159 98 5 c65 3 106 10 121 20 21 14 28 14 49 2 13 -7 49 -13 80 -14 130 0 211 113 164 228 -44 104 -145 141 -245 90 -56 -29 -79 -68 -87 -152 l-6 -66 -43 0 -44 0 -2 198 -3 197 -47 3 -48 3 0 -98z m420 -183 c28 -28 26 -75 -6 -106 -30 -31 -67 -27 -101 12 -28 31 -29 54 -2 88 26 33 79 36 109 6z"/><path d="M7103 659 c4 -51 7 -166 7 -256 l0 -164 304 3 c284 3 305 4 325 22 20 19 21 27 19 170 l-3 151 -42 3 -43 3 0 -120 0 -121 -40 0 -39 0 -3 118 -3 117 -42 3 -43 3 0 -120 0 -121 -35 0 -35 0 0 114 c0 125 0 126 -66 126 l-34 0 0 -120 0 -120 -65 0 -65 0 -2 198 -3 197 -49 3 -49 3 6 -92z"/><path d="M8743 659 c4 -51 7 -166 7 -256 l0 -163 174 0 c189 0 232 8 247 47 5 13 9 84 9 158 0 146 1 145 -66 145 l-34 0 0 -120 0 -120 -120 0 -120 0 -2 198 -3 197 -49 3 -49 3 6 -92z"/><path d="M8995 700 l-29 -30 33 -34 33 -34 31 34 30 35 -28 29 c-16 17 -32 30 -35 30 -3 0 -19 -14 -35 -30z"/><path d="M448 408 l-3 -183 -115 -57 c-113 -57 -166 -70 -199 -49 -10 6 -16 46 -22 140 -4 72 -10 135 -14 141 -7 11 -38 13 -74 3 -23 -6 -23 -6 -17 -122 4 -64 12 -138 17 -164 15 -63 57 -96 132 -104 48 -5 65 -1 153 37 110 47 198 94 226 122 16 16 18 37 18 212 0 214 3 206 -66 206 l-34 0 -2 -182z"/><path d="M800 378 l0 -213 -50 -28 c-48 -27 -50 -30 -50 -73 0 -59 15 -63 90 -23 93 50 110 71 110 139 l0 58 141 4 c185 4 179 -3 179 193 0 157 1 155 -66 155 l-34 0 0 -120 0 -120 -104 0 -104 0 -6 83 c-3 45 -7 98 -9 117 -2 34 -3 35 -49 38 l-48 3 0 -213z"/><path d="M1803 580 c-36 -15 -43 -43 -43 -168 0 -158 4 -164 123 -170 48 -2 87 -8 87 -12 0 -4 -53 -32 -118 -63 -123 -59 -178 -70 -202 -42 -8 10 -15 60 -18 138 -2 67 -9 128 -15 136 -10 12 -80 11 -93 -2 -10 -10 18 -292 32 -318 18 -36 61 -58 122 -66 38 -4 63 1 117 22 95 37 239 112 259 134 11 12 17 41 19 97 l2 79 -107 3 -108 3 0 69 0 70 63 0 c34 -1 80 -7 102 -15 22 -8 41 -15 43 -15 1 0 2 20 2 45 0 65 -26 79 -149 82 -53 2 -106 -1 -118 -7z"/><path d="M2177 583 c-4 -3 -7 -99 -7 -212 l0 -206 -48 -30 c-26 -16 -46 -33 -44 -37 1 -5 2 -26 2 -49 0 -39 1 -41 25 -35 31 8 138 70 154 90 19 23 29 449 11 471 -12 15 -80 21 -93 8z"/><path d="M2425 571 c-52 -24 -71 -46 -86 -102 -21 -78 9 -159 73 -200 27 -16 46 -19 101 -17 l67 4 -37 -23 c-21 -13 -75 -45 -121 -71 l-83 -47 3 -50 c2 -41 6 -50 21 -49 26 3 295 166 303 184 13 34 17 217 4 256 -37 116 -139 164 -245 115z m138 -112 c17 -24 18 -31 7 -64 -14 -44 -46 -59 -90 -44 -52 19 -65 67 -29 113 28 36 83 33 112 -5z"/><path d="M2820 572 c-74 -40 -104 -121 -76 -207 25 -80 74 -115 162 -115 55 0 91 18 132 64 59 67 52 155 -18 229 -35 38 -42 41 -101 45 -49 2 -72 -1 -99 -16z m140 -102 c24 -24 25 -51 5 -90 -13 -26 -21 -30 -55 -30 -72 0 -102 59 -59 114 26 33 79 36 109 6z"/><path d="M3160 378 l0 -213 -50 -28 c-48 -27 -50 -30 -50 -73 0 -59 15 -63 90 -23 93 49 110 71 110 139 l0 57 38 7 c20 3 142 6 270 6 186 0 240 3 269 15 34 14 40 14 72 -2 29 -15 62 -18 179 -18 190 0 184 -7 180 194 l-3 146 -45 0 -45 0 -3 -117 -3 -118 -114 0 -115 0 0 48 c0 57 -27 117 -69 157 l-32 30 -250 3 -249 3 0 -46 c0 -25 3 -45 8 -45 4 0 7 -34 7 -75 l0 -75 -42 0 -41 0 -6 83 c-3 45 -7 98 -9 117 -2 34 -3 35 -49 38 l-48 3 0 -213z m414 90 c9 -12 16 -34 16 -48 0 -44 -26 -70 -70 -70 -70 0 -100 70 -53 123 24 26 88 23 107 -5z m236 12 c27 -14 34 -63 15 -99 -13 -27 -21 -31 -55 -31 -72 0 -102 59 -59 114 22 28 64 35 99 16z"/><path d="M6170 407 l0 -184 -118 -56 c-122 -59 -178 -70 -202 -42 -7 9 -14 67 -18 147 l-7 133 -47 -1 c-26 0 -49 -2 -52 -5 -10 -10 16 -294 30 -320 18 -36 61 -58 122 -66 38 -4 63 1 117 22 95 38 203 92 243 122 l32 24 -2 202 -3 202 -47 3 -48 3 0 -184z"/><path d="M6960 386 c0 -227 3 -216 -71 -258 -36 -20 -40 -26 -35 -52 3 -15 6 -37 6 -48 0 -16 5 -19 25 -14 37 9 144 74 153 94 15 29 24 456 10 470 -7 7 -29 12 -50 12 l-38 0 0 -204z"/><path d="M8030 583 c-68 -28 -110 -94 -110 -175 0 -45 5 -59 32 -92 17 -21 46 -45 64 -52 43 -18 122 -18 157 1 25 13 31 13 54 -2 34 -23 122 -23 156 0 23 15 28 15 57 1 22 -11 50 -15 90 -12 137 10 205 143 131 259 -37 60 -85 83 -158 77 -97 -8 -153 -72 -153 -174 l0 -64 -45 0 -45 0 0 55 c0 111 -57 177 -158 182 -32 1 -64 0 -72 -4z m110 -115 c15 -16 20 -33 18 -58 -3 -29 -9 -38 -39 -53 -46 -22 -83 -9 -98 35 -27 76 64 134 119 76z m434 3 c26 -29 18 -89 -16 -114 -26 -19 -27 -19 -65 -1 -31 16 -39 25 -41 52 -5 51 20 82 67 82 25 0 44 -7 55 -19z"/><path d="M9278 378 l-3 -212 -45 -26 c-43 -25 -45 -28 -48 -79 -3 -53 -3 -53 22 -47 32 8 139 70 156 91 19 23 28 448 10 470 -7 9 -29 15 -51 15 l-39 0 -2 -212z"/><path d="M235 490 l-28 -29 29 -35 c16 -19 32 -35 36 -35 4 -1 19 15 34 34 l27 36 -28 29 c-16 17 -32 30 -35 30 -3 0 -19 -13 -35 -30z"/><path d="M5958 486 l-27 -33 33 -32 32 -31 32 33 32 33 -33 32 c-18 18 -35 32 -37 32 -3 0 -17 -15 -32 -34z"/><path d="M970 145 l0 -45 90 0 90 0 0 45 0 45 -90 0 -90 0 0 -45z"/><path d="M4096 143 l-29 -34 31 -32 32 -32 32 33 33 32 -35 34 -35 34 -29 -35z"/></g></svg>