<svg version="1.0" xmlns="http://www.w3.org/2000/svg" width="1010px" height="285px" viewBox="0 0 1010.000000 285.000000" fill="#509C4E"><g transform="translate(0.000000,285.000000) scale(0.100000,-0.100000)"><path d="M526 2817 c-132 -140 -207 -228 -204 -236 12 -35 240 -271 261 -271 3 0 39 42 80 93 41 50 95 114 120 141 l45 48 -42 42 c-23 22 -77 80 -121 129 -43 48 -85 87 -93 87 -8 0 -29 -15 -46 -33z"/><path d="M9321 2209 c-59 -10 -82 -19 -220 -87 -146 -71 -214 -149 -274 -312 -18 -48 -21 -85 -25 -287 l-4 -233 -164 0 -164 0 0 430 0 431 -27 24 c-27 24 -33 24 -190 25 l-163 0 0 -455 0 -455 -125 0 -125 0 0 433 -1 432 -35 23 c-33 20 -47 22 -195 22 l-159 0 0 -455 0 -455 -125 0 -125 0 0 430 0 431 -27 24 c-27 24 -33 24 -190 25 l-163 0 0 -455 0 -455 -220 0 -220 0 0 432 0 432 -27 23 c-25 22 -34 23 -188 23 -139 0 -164 -2 -169 -16 -3 -9 -6 -213 -6 -455 l0 -439 -399 0 -398 0 -7 46 c-3 26 -6 216 -6 423 l-1 376 -28 33 -28 32 -169 -2 -169 -3 -5 -787 c-3 -505 -9 -791 -15 -797 -5 -5 -71 -44 -145 -86 -74 -42 -144 -85 -155 -95 -11 -9 -31 -23 -44 -30 l-23 -12 7 -172 c6 -162 8 -172 31 -195 23 -24 25 -25 76 -12 44 11 188 78 288 133 122 67 298 197 328 242 36 53 42 94 42 303 l0 191 498 4 c510 4 542 7 580 45 8 7 17 12 20 10 52 -27 93 -38 168 -47 114 -13 1682 -13 1783 0 40 5 87 18 105 28 30 18 66 19 66 3 0 -41 448 -43 480 -2 3 3 29 17 57 30 29 13 62 34 73 46 l21 22 85 -43 c47 -24 93 -44 102 -44 10 0 22 -4 28 -10 5 -5 55 -15 111 -22 103 -12 238 -2 280 21 10 5 56 27 103 48 115 52 214 132 270 219 25 38 50 75 57 82 29 30 43 115 43 262 0 121 -4 157 -20 205 -11 33 -24 61 -28 65 -4 3 -25 41 -47 84 -25 49 -65 106 -104 148 -54 58 -81 77 -165 118 -137 67 -261 84 -415 59z m184 -393 c104 -27 166 -80 190 -160 20 -68 19 -122 -6 -201 -41 -135 -145 -195 -276 -162 -129 34 -197 84 -222 166 -35 119 18 262 122 328 71 45 111 51 192 29z"/><path d="M379 1443 c0 -417 -3 -776 -7 -798 -6 -35 -13 -42 -57 -65 -84 -42 -230 -128 -254 -149 -13 -11 -32 -23 -42 -26 -18 -6 -19 -19 -19 -184 0 -173 1 -178 23 -199 13 -12 33 -22 45 -22 54 0 303 118 408 193 27 19 67 45 89 57 65 36 134 99 163 149 27 46 27 47 30 264 l4 217 446 0 c471 1 559 6 620 38 36 19 38 19 72 1 21 -11 76 -23 130 -29 124 -13 1667 -13 1779 0 114 13 173 51 222 141 l34 64 3 533 c1 302 -1 532 -6 532 -5 0 -19 9 -32 20 -22 19 -35 20 -184 18 l-161 -3 -3 -452 -2 -453 -125 0 -125 0 0 432 0 432 -27 23 c-25 22 -34 23 -183 23 -108 0 -160 -4 -168 -12 -9 -9 -12 -124 -12 -455 l0 -443 -125 0 -125 0 0 432 0 432 -27 23 c-26 23 -32 23 -187 21 l-161 -3 -3 -452 -2 -453 -220 0 -220 0 0 432 0 432 -27 23 c-25 22 -34 23 -183 23 -135 0 -159 -2 -164 -16 -3 -9 -6 -213 -6 -455 l0 -439 -404 0 -403 0 -7 46 c-3 26 -6 215 -6 421 l0 374 -27 35 -28 34 -167 0 -168 0 -1 -757z"/><path d="M5420 525 l0 -175 360 0 360 0 0 175 0 175 -360 0 -360 0 0 -175z"/><path d="M1302 536 c-67 -68 -122 -131 -122 -140 0 -9 54 -70 120 -136 66 -66 120 -125 120 -130 0 -23 29 -7 52 28 14 20 46 57 70 82 82 83 138 151 138 167 0 16 -233 253 -249 253 -4 0 -62 -56 -129 -124z"/></g></svg>