<svg version="1.0" xmlns="http://www.w3.org/2000/svg" width="2073pt" height="197pt" viewBox="0 0 2073.000000 197.000000" fill="#BCBCBC"><g transform="translate(0.000000,197.000000) scale(0.100000,-0.100000)" stroke="none"><path d="M1660 1215 l0 -755 125 0 125 0 0 755 0 755 -125 0 -125 0 0 -755z"/><path d="M3300 1215 l0 -755 130 0 130 0 0 755 0 755 -130 0 -130 0 0 -755z"/><path d="M12290 1400 c0 -614 1 -602 -59 -653 l-33 -27 -298 0 c-330 0 -376 -6 -447 -53 -70 -47 -106 -122 -105 -219 3 -209 155 -384 363 -417 40 -7 326 -11 762 -11 l697 0 0 130 0 130 -712 0 c-705 0 -712 0 -756 21 -47 23 -86 74 -97 126 l-7 33 305 0 c340 0 378 6 471 69 l46 32 33 -25 c71 -54 124 -69 252 -74 l121 -4 437 376 c241 207 440 376 443 376 2 0 4 -110 4 -245 l0 -245 -260 0 -260 0 0 -130 0 -130 283 0 c163 0 298 4 319 10 57 16 119 69 150 129 l28 53 0 307 c0 300 -1 307 -24 356 -28 61 -87 116 -149 140 -59 22 -157 17 -209 -10 -20 -11 -219 -177 -443 -370 -387 -333 -409 -350 -450 -353 -54 -4 -99 18 -125 61 -19 31 -20 54 -20 605 l0 572 -130 0 -130 0 0 -560z"/><path d="M16040 1395 c0 -374 4 -582 11 -617 26 -125 125 -245 237 -289 44 -17 84 -23 174 -27 l118 -4 434 373 c239 206 440 375 446 377 7 3 10 -75 10 -242 l0 -246 -265 0 -265 0 0 -130 0 -130 293 0 c285 0 293 1 342 24 28 12 65 40 84 61 65 75 66 78 66 410 0 324 -2 340 -55 414 -45 61 -108 93 -194 99 -58 3 -82 0 -117 -15 -26 -12 -212 -165 -458 -377 -411 -353 -415 -356 -459 -356 -56 0 -104 29 -126 74 -14 30 -16 101 -16 600 l0 566 -130 0 -130 0 0 -565z"/><path d="M17960 1830 l0 -130 125 0 125 0 0 130 0 130 -125 0 -125 0 0 -130z"/><path d="M18440 1395 c0 -374 4 -582 11 -617 26 -124 124 -245 237 -290 l57 -23 993 -3 992 -2 0 130 0 130 -966 0 c-952 0 -967 0 -999 20 -66 41 -65 27 -65 654 l0 566 -130 0 -130 0 0 -565z"/><path d="M1168 1103 c-4 -391 -5 -410 -26 -467 -43 -116 -125 -214 -235 -280 -88 -52 -166 -66 -372 -66 -199 0 -229 8 -265 65 -19 31 -20 49 -20 474 l0 441 -125 0 -125 0 0 -474 0 -473 35 -71 c58 -115 158 -188 291 -213 88 -17 431 -6 514 16 280 74 491 285 560 559 18 73 20 113 20 488 l0 408 -124 0 -125 0 -3 -407z"/><path d="M2138 1038 l-3 -473 -32 -68 c-41 -86 -126 -173 -208 -212 -33 -16 -62 -30 -63 -31 -3 -2 25 -102 59 -211 l10 -32 40 14 c91 32 166 82 250 165 73 72 93 99 130 177 l44 92 181 0 c152 1 192 4 245 21 112 35 204 122 251 237 22 57 23 67 26 426 l3 367 -131 0 -130 0 0 -344 c0 -340 0 -343 -23 -377 -39 -59 -73 -69 -239 -69 l-148 0 0 395 0 395 -130 0 -129 0 -3 -472z"/><path d="M6564 1500 c-164 -24 -308 -124 -394 -275 -56 -98 -72 -190 -68 -398 3 -179 3 -183 32 -235 61 -110 119 -132 343 -132 l164 0 -18 -31 c-29 -49 -107 -116 -170 -146 -32 -15 -60 -29 -62 -31 -3 -1 11 -56 29 -122 22 -77 39 -120 48 -120 7 0 46 15 85 33 146 68 262 181 331 322 70 141 70 139 74 661 l3 471 -92 6 c-112 8 -237 7 -305 -3z m136 -515 l0 -265 -170 0 -170 0 0 143 c0 176 11 216 84 294 57 61 126 92 209 93 l47 0 0 -265z"/><path d="M7190 1381 l0 -131 65 0 65 0 0 -395 0 -396 343 3 342 3 47 28 c49 29 97 88 116 146 17 49 15 350 -3 433 -40 191 -182 350 -364 410 -59 19 -94 22 -338 26 l-273 4 0 -131z m568 -160 c61 -31 118 -94 142 -157 17 -46 20 -78 20 -199 l0 -145 -175 0 -175 0 0 258 c0 142 3 262 8 266 14 15 136 -1 180 -23z"/><path d="M4640 1478 c-65 -25 -146 -102 -179 -171 -90 -187 -18 -417 161 -506 l61 -31 224 0 c178 0 223 -3 223 -13 0 -30 -34 -127 -68 -192 -43 -82 -135 -178 -208 -217 -88 -48 -151 -58 -349 -58 -201 0 -225 7 -265 72 -19 32 -20 52 -20 471 l0 437 -130 0 -130 0 0 -429 c0 -246 4 -451 10 -481 31 -165 153 -288 317 -320 89 -18 448 -8 527 15 329 93 550 381 581 757 8 102 -3 146 -46 183 l-31 25 -285 0 -285 0 -35 35 c-33 33 -35 38 -31 87 4 42 11 57 37 80 l31 28 295 0 295 0 0 125 0 125 -322 -1 c-303 0 -326 -1 -378 -21z"/><path d="M5640 1067 c0 -469 -2 -493 -56 -599 -36 -70 -120 -150 -198 -187 l-64 -31 34 -116 c19 -65 36 -119 38 -121 11 -11 111 32 178 76 142 93 250 237 299 401 22 72 23 93 27 543 l4 467 -131 0 -131 0 0 -433z"/><path d="M8410 1063 c0 -259 -5 -456 -11 -482 -29 -126 -131 -254 -245 -306 l-61 -28 24 -81 c13 -44 28 -98 34 -118 12 -47 24 -48 114 -4 171 82 294 216 357 389 18 50 23 57 42 51 56 -18 99 -24 193 -24 l102 0 328 374 c180 206 331 375 336 375 4 1 7 -109 7 -244 l0 -245 -200 0 -200 0 0 -130 0 -130 778 2 777 3 58 27 c79 37 128 78 170 141 64 96 67 120 67 514 l0 353 -124 0 -125 0 -3 -343 c-3 -380 -3 -376 -71 -417 -28 -18 -51 -20 -199 -20 l-168 0 0 150 c0 82 -5 173 -11 202 -40 192 -202 363 -390 413 -43 12 -139 15 -451 15 l-398 0 0 -125 0 -125 80 0 c44 0 80 -2 80 -5 0 -3 -102 -121 -227 -263 -214 -243 -229 -257 -264 -260 -48 -4 -94 20 -119 61 -19 30 -20 52 -20 375 l0 342 -130 0 -130 0 0 -437z m1545 161 c56 -23 130 -97 155 -157 19 -44 24 -75 28 -199 l5 -148 -127 0 -126 0 0 260 c0 287 -4 273 65 244z"/><path d="M15558 1103 c-4 -377 -6 -402 -26 -464 -44 -133 -137 -240 -263 -303 -92 -46 -174 -58 -372 -54 -181 3 -193 7 -241 72 -20 27 -21 41 -24 467 l-3 439 -125 0 -125 0 3 -473 3 -472 32 -66 c59 -119 172 -200 306 -220 81 -11 288 -11 402 1 334 35 602 276 670 601 12 55 15 155 15 470 l0 399 -124 0 -124 0 -4 -397z"/><path d="M17958 1058 c-4 -420 -5 -446 -25 -499 -28 -74 -61 -124 -119 -181 -48 -45 -134 -98 -160 -98 -19 0 -19 1 20 -130 21 -72 39 -116 48 -118 8 -1 57 18 109 44 176 89 310 256 359 450 18 71 20 112 20 526 l0 448 -124 0 -125 0 -3 -442z"/><path d="M580 930 l0 -130 130 0 130 0 0 130 0 130 -130 0 -130 0 0 -130z"/><path d="M14970 930 l0 -130 130 0 130 0 0 130 0 130 -130 0 -130 0 0 -130z"/><path d="M2430 130 l0 -130 125 0 125 0 0 130 0 130 -125 0 -125 0 0 -130z"/><path d="M2782 133 l3 -128 128 -3 127 -3 0 131 0 130 -130 0 -131 0 3 -127z"/><path d="M10490 130 l0 -130 130 0 130 0 0 130 0 130 -130 0 -130 0 0 -130z"/></g></svg>