<svg version="1.0" xmlns="http://www.w3.org/2000/svg" width="1028pt" height="1028pt" viewBox="0 0 1028.000000 1028.000000"><g transform="translate(0.000000,1028.000000) scale(0.100000,-0.100000)" fill="#FFFFFF"><path d="M91 9282 c6 -15 188 -515 405 -1112 430 -1181 473 -1286 631 -1525 266 -403 615 -711 1048 -925 238 -118 478 -194 782 -247 91 -16 295 -18 2871 -20 1524 -2 2772 0 2772 5 0 14 -278 771 -332 902 -119 292 -301 605 -488 840 -99 124 -308 341 -435 449 -434 374 -968 632 -1535 745 -306 60 -313 61 -1390 57 -1176 -3 -1608 10 -2115 65 -945 102 -1662 347 -2149 734 -67 53 -74 57 -65 32z"/><path d="M4795 10270 c-901 -69 -1721 -344 -2458 -826 -142 -93 -377 -264 -377 -275 0 -7 18 -10 285 -44 105 -13 285 -31 402 -40 l212 -17 128 70 c1098 596 2404 710 3591 313 1158 -387 2118 -1230 2652 -2326 434 -893 564 -1900 370 -2864 l-31 -151 70 -98 c98 -137 191 -295 269 -454 37 -76 70 -138 74 -138 12 0 95 270 147 480 54 214 101 475 128 712 28 241 25 859 -5 1106 -143 1172 -642 2214 -1455 3035 -847 854 -1940 1377 -3142 1502 -179 19 -690 27 -860 15z"/><path d="M272 6788 c-284 -846 -344 -1744 -176 -2623 299 -1556 1324 -2905 2749 -3618 1150 -574 2466 -697 3705 -346 604 171 1149 444 1698 849 17 13 30 25 28 27 -13 14 -524 66 -791 82 l-140 8 -156 -78 c-527 -263 -992 -399 -1614 -471 -171 -20 -723 -17 -910 6 -960 113 -1793 477 -2503 1094 -700 608 -1200 1420 -1427 2316 -87 346 -125 633 -132 1012 -8 376 18 663 87 999 l29 139 -58 86 c-112 165 -252 424 -312 579 -13 33 -27 61 -30 61 -3 0 -24 -55 -47 -122z"/><path d="M1764 4688 c283 -781 334 -909 441 -1115 469 -904 1325 -1543 2328 -1738 308 -60 301 -60 1382 -57 1172 4 1538 -6 2055 -59 986 -99 1729 -349 2219 -746 29 -24 55 -42 57 -40 8 8 -798 2205 -849 2317 -202 440 -556 847 -972 1115 -258 167 -578 297 -877 359 -283 59 -142 56 -3100 56 l-2717 0 33 -92z"/></g></svg>