<svg xmlns="http://www.w3.org/2000/svg" viewBox="0 0 50.85 45.49" fill="none" stroke="#FFFFFF" stroke-width="0.91px"><path d="M20.1,42.14q3-2.89,3-8.69,0-6.33-3-9.05c-2-1.81-4.8-2.72-8.42-2.72a36.63,36.63,0,0,1,.27-5,5.92,5.92,0,0,1,1.27-3.08,6.26,6.26,0,0,1,3-1.81q2-.63,5.61-1.36V.51A43.83,43.83,0,0,0,10.59,2.86,13.22,13.22,0,0,0,4.17,7.93a21.54,21.54,0,0,0-3,9.23A124.5,124.5,0,0,0,.46,32q0,6.89,3.07,10A11.22,11.22,0,0,0,11.86,45C15.36,45,18.1,44.07,20.1,42.14Z"/><path d="M47.41,42.14q3-2.89,3-8.69,0-6.33-3-9.05T39,21.68a36.63,36.63,0,0,1,.27-5,6,6,0,0,1,1.26-3.08,6.35,6.35,0,0,1,3-1.81q2-.63,5.61-1.36V.51A43.73,43.73,0,0,0,37.91,2.86a13.25,13.25,0,0,0-6.43,5.07,21.54,21.54,0,0,0-3,9.23A122.13,122.13,0,0,0,27.77,32q0,6.89,3.08,10A11.22,11.22,0,0,0,39.18,45C42.67,45,45.42,44.07,47.41,42.14Z"/></svg>