<svg version="1.0" xmlns="http://www.w3.org/2000/svg" viewBox="0 0 3156 3208" fill="#e54546"><g transform="translate(0,3208) scale(0.1,-0.1)"><path d="M14050 32071 c-56 -18 -110 -53 -154 -102 -56 -62 -9 85 -451 -1415 l-347 -1181 -182 -38 c-868 -183 -1799 -483 -2615 -844 -101 -44 -189 -81 -194 -81 -5 0 -19 10 -31 23 -11 12 -178 141 -371 286 -192 145 -356 269 -364 275 -12 9 -13 8 -6 -4 5 -8 -11 1 -35 21 -273 220 -1268 981 -1312 1002 -45 23 -69 29 -125 29 -85 0 -137 -19 -222 -79 -498 -355 -2654 -1933 -2678 -1959 -54 -61 -77 -119 -77 -204 -1 -74 4 -89 442 -1313 l442 -1238 -148 -167 c-615 -692 -1149 -1427 -1602 -2207 -51 -88 -94 -161 -95 -163 -1 -1 -578 14 -1281 33 -704 20 -1307 35 -1341 32 -108 -8 -215 -81 -256 -173 -9 -22 -248 -748 -529 -1614 l-513 -1575 0 -85 c0 -96 21 -152 78 -211 18 -19 519 -367 1113 -774 l1080 -739 -13 -111 c-83 -744 -101 -1601 -48 -2350 15 -205 51 -595 60 -645 4 -23 -72 -77 -1077 -765 -595 -407 -1097 -755 -1115 -774 -58 -59 -78 -115 -78 -211 0 -85 0 -86 508 -1645 279 -858 517 -1584 529 -1613 40 -102 146 -179 258 -189 30 -3 635 12 1344 32 709 20 1290 35 1291 33 2 -2 42 -70 90 -152 461 -789 1022 -1559 1617 -2221 l135 -151 -443 -1244 c-421 -1183 -443 -1249 -444 -1315 0 -85 36 -170 96 -226 29 -27 2317 -1700 2670 -1952 70 -50 126 -69 207 -69 56 0 80 6 125 29 32 15 280 201 552 412 765 595 803 623 794 610 -4 -7 49 30 117 83 68 52 223 170 344 263 121 92 241 185 266 206 26 22 52 39 58 39 7 0 100 -39 209 -86 818 -358 1766 -662 2606 -837 l159 -33 353 -1200 c194 -659 365 -1237 379 -1283 23 -73 33 -90 83 -141 42 -42 73 -63 115 -79 l58 -21 1693 0 c1868 0 1750 -4 1838 63 89 68 72 20 474 1382 205 698 377 1271 381 1275 4 4 78 21 163 39 864 179 1877 509 2685 873 l121 55 279 -216 c642 -493 998 -768 1134 -874 79 -62 169 -130 200 -153 31 -22 102 -76 157 -120 206 -164 330 -254 373 -269 59 -21 160 -19 218 3 51 19 379 254 1846 1322 268 195 579 420 690 500 110 80 221 164 245 188 64 63 86 119 86 217 0 80 -1 82 -346 1045 -527 1470 -542 1512 -532 1526 5 6 56 63 113 125 576 633 1212 1506 1641 2252 40 70 77 130 81 133 5 3 599 -12 1322 -32 1234 -34 1317 -36 1369 -20 66 19 131 65 170 121 20 29 173 486 548 1640 286 880 523 1621 526 1646 8 63 -19 155 -64 214 -31 40 -229 180 -1119 789 -595 408 -1085 744 -1088 748 -4 3 3 98 14 210 96 938 94 1856 -5 2777 -8 79 -11 147 -7 151 4 5 361 250 793 545 1433 982 1379 943 1415 994 43 58 70 154 61 213 -11 68 -1036 3218 -1062 3265 -32 56 -96 108 -163 134 l-56 21 -1318 -36 c-725 -20 -1322 -34 -1326 -31 -4 2 -41 62 -81 132 -340 593 -792 1244 -1259 1813 -82 100 -326 386 -341 400 -3 3 -42 46 -87 96 l-82 91 439 1234 c242 679 443 1257 446 1285 4 34 1 69 -9 105 -36 122 39 63 -1428 1130 -745 541 -1380 997 -1411 1013 -68 34 -155 39 -233 13 -38 -13 -291 -203 -1089 -817 -571 -440 -1045 -800 -1053 -800 -7 0 -32 9 -54 21 -86 43 -535 231 -749 312 -654 248 -1225 419 -1929 576 l-254 57 -372 1263 c-401 1358 -384 1310 -473 1378 -88 67 31 63 -1841 62 -933 0 -1707 -4 -1721 -8z m3140 -626 c0 -20 725 -2460 741 -2492 27 -57 108 -128 167 -147 26 -8 139 -33 252 -56 989 -198 1975 -521 2887 -944 79 -36 163 -71 188 -77 56 -14 130 -6 190 20 24 11 501 371 1059 800 557 430 1016 781 1020 781 11 0 2268 -1643 2272 -1655 4 -9 -556 -1596 -792 -2245 -108 -298 -99 -355 86 -554 709 -760 1317 -1589 1817 -2476 124 -220 140 -242 198 -276 99 -58 19 -57 1426 -17 709 19 1292 34 1294 31 2 -2 187 -566 410 -1253 223 -688 419 -1289 434 -1337 l29 -87 -1061 -727 c-584 -400 -1074 -738 -1088 -751 -15 -13 -40 -48 -55 -76 -27 -48 -29 -60 -29 -157 0 -58 10 -190 22 -295 58 -482 78 -851 77 -1415 0 -572 -19 -911 -81 -1440 -34 -295 -34 -334 5 -413 17 -34 44 -74 59 -88 15 -15 506 -353 1090 -753 l1061 -727 -33 -102 c-19 -56 -215 -658 -435 -1337 -221 -679 -403 -1236 -405 -1238 -2 -3 -586 12 -1298 32 -1428 40 -1338 41 -1439 -23 -55 -35 -60 -43 -210 -306 -487 -854 -1073 -1652 -1751 -2388 -173 -187 -192 -220 -192 -332 0 -80 2 -84 309 -945 169 -476 326 -917 347 -980 22 -63 44 -124 49 -135 23 -47 152 -422 153 -444 2 -21 -24 -43 -168 -148 -93 -67 -174 -123 -178 -123 -4 0 -119 -80 -255 -178 -334 -240 -408 -292 -420 -292 -6 0 -12 -3 -14 -7 -1 -5 -25 -20 -53 -34 -69 -35 -171 -95 -187 -109 -18 -15 -159 -110 -164 -110 -2 0 -36 -25 -76 -55 -85 -64 -72 -54 -170 -133 -125 -102 -129 -105 -187 -162 -31 -30 -132 -112 -225 -182 -160 -120 -171 -127 -190 -113 -12 8 -34 22 -50 31 -24 13 -229 167 -393 294 -17 14 -85 66 -150 116 -65 50 -415 319 -778 599 -363 279 -680 517 -705 529 -34 15 -65 21 -125 21 -79 0 -83 -1 -245 -77 -730 -339 -1484 -606 -2270 -803 -226 -57 -551 -130 -734 -164 -60 -11 -128 -30 -152 -41 -57 -28 -115 -87 -142 -146 -17 -38 -742 -2479 -742 -2499 0 -3 -635 -4 -1412 -3 l-1412 3 -362 1229 c-199 675 -372 1250 -385 1278 -25 54 -77 107 -136 136 -21 11 -121 36 -223 57 -1032 206 -1947 502 -2910 941 -194 88 -195 89 -275 89 -65 0 -89 -5 -125 -24 -50 -26 -218 -151 -610 -455 -145 -112 -267 -204 -270 -203 -3 1 -270 -203 -593 -453 -323 -250 -597 -461 -607 -469 -17 -12 -25 -9 -72 25 -169 121 -2195 1599 -2205 1608 -10 9 81 276 423 1236 384 1077 437 1232 438 1285 1 94 -25 152 -107 244 -40 44 -144 160 -232 258 -623 692 -1198 1494 -1645 2293 -51 91 -106 180 -124 198 -41 44 -100 78 -156 91 -32 7 -406 0 -1333 -26 -732 -20 -1292 -32 -1297 -27 -10 12 -874 2673 -869 2677 2 2 477 327 1054 721 578 395 1067 735 1088 755 21 20 51 59 65 86 24 44 27 61 26 140 0 50 -10 171 -22 270 -56 469 -82 922 -82 1458 0 538 21 902 81 1447 26 232 29 283 20 326 -13 57 -53 125 -97 165 -16 15 -495 345 -1064 734 -569 389 -1043 716 -1053 725 -18 16 -1 70 413 1346 238 731 436 1333 440 1338 5 5 568 -7 1292 -27 914 -26 1296 -33 1328 -26 56 13 116 47 156 91 17 18 91 139 164 268 489 863 1115 1715 1785 2430 133 143 160 193 160 300 -1 73 -11 105 -433 1284 -238 666 -431 1215 -428 1222 6 17 2249 1647 2266 1648 8 0 286 -210 617 -467 331 -257 605 -467 608 -467 4 0 167 -122 363 -272 196 -150 385 -294 420 -320 77 -58 152 -83 233 -75 44 4 99 24 236 87 930 429 1863 734 2882 941 274 55 320 74 382 151 20 26 44 69 53 95 8 27 173 584 366 1238 192 655 352 1196 355 1203 3 9 296 12 1415 12 775 0 1410 -2 1410 -5z"/><path d="M15490 26963 c-1972 -54 -3855 -624 -5525 -1671 -276 -174 -631 -417 -804 -552 -46 -36 -86 -65 -90 -65 -10 0 -384 -303 -506 -410 -2071 -1812 -3378 -4328 -3665 -7055 -69 -661 -78 -1411 -24 -2065 101 -1226 400 -2402 900 -3535 97 -219 334 -691 460 -915 379 -672 797 -1260 1329 -1870 283 -324 825 -850 1190 -1156 99 -83 304 -239 314 -239 4 0 144 -99 311 -221 339 -245 542 -382 765 -516 1987 -1193 4257 -1719 6573 -1523 2924 248 5630 1674 7503 3956 706 859 1279 1829 1697 2869 638 1590 890 3329 731 5058 -139 1525 -590 2978 -1344 4332 -235 423 -628 1014 -895 1346 -42 52 -120 153 -175 224 -54 72 -205 256 -336 410 -195 230 -264 304 -386 411 -81 73 -164 145 -183 160 -47 39 -269 240 -301 274 -14 15 -107 94 -205 176 -98 81 -208 173 -244 203 -36 30 -144 113 -240 184 -96 71 -200 149 -230 172 -69 53 -376 257 -535 357 -946 590 -1975 1035 -3035 1312 -978 255 -2041 377 -3050 349z m841 -643 c1253 -71 2408 -345 3569 -845 474 -204 1157 -577 1555 -850 50 -34 142 -97 205 -140 106 -73 218 -155 410 -300 225 -170 550 -448 744 -634 83 -80 209 -200 280 -266 173 -161 772 -862 957 -1120 378 -527 654 -977 923 -1510 549 -1083 898 -2271 1031 -3504 49 -452 69 -1172 46 -1616 -77 -1465 -435 -2821 -1087 -4115 -1185 -2353 -3244 -4173 -5724 -5060 -2015 -722 -4245 -792 -6308 -199 -858 246 -1707 617 -2467 1077 -300 182 -921 610 -975 672 -19 22 -153 119 -160 115 -4 -2 -76 53 -161 124 -465 386 -932 853 -1317 1313 -1169 1403 -1932 3060 -2237 4863 -99 586 -139 1076 -139 1715 0 422 8 622 40 965 199 2167 1064 4179 2503 5823 181 208 573 606 791 806 91 82 170 155 176 161 41 37 337 280 343 280 6 0 207 144 501 360 805 591 1837 1107 2850 1425 833 261 1740 423 2600 463 173 8 888 6 1051 -3z"/><path d="M15495 24723 c-1796 -60 -3502 -663 -4940 -1743 -333 -251 -607 -490 -910 -795 -392 -394 -515 -531 -703 -783 -1011 -1353 -1639 -2896 -1811 -4447 -40 -358 -46 -474 -46 -915 1 -536 22 -814 101 -1305 193 -1199 680 -2434 1381 -3504 136 -207 404 -583 514 -722 135 -170 642 -688 894 -914 1349 -1211 3037 -1971 4816 -2169 394 -44 531 -51 999 -51 463 1 654 11 1020 56 2207 266 4202 1350 5631 3057 1768 2112 2423 4949 1763 7640 -244 996 -706 2027 -1271 2834 -444 634 -936 1185 -1468 1641 -77 66 -162 139 -190 163 -82 71 -200 161 -380 292 -1567 1143 -3472 1730 -5400 1665z m930 -652 c61 -6 173 -18 250 -26 2353 -261 4458 -1544 5795 -3530 796 -1184 1256 -2558 1341 -4009 15 -259 7 -910 -15 -1146 -115 -1246 -479 -2377 -1104 -3430 -526 -884 -1257 -1696 -2097 -2327 -1742 -1307 -3928 -1843 -6110 -1498 -1341 213 -2658 796 -3720 1649 -350 280 -805 710 -923 871 -16 22 -44 54 -62 70 -109 101 -610 761 -773 1019 -208 330 -485 858 -641 1226 -485 1139 -704 2318 -646 3471 68 1326 482 2640 1212 3846 159 264 259 405 528 746 137 175 250 321 250 324 0 23 426 463 635 656 874 806 1956 1423 3098 1767 617 186 1182 286 1887 334 114 7 990 -3 1095 -13z"/></g>J</svg>