<svg xmlns="http://www.w3.org/2000/svg" viewBox="0 0 54.34 45.51" fill="#FFFFFF">7<path d="M51.28,32.87l-1.73-.33a1.16,1.16,0,0,0-1.28.69,11.4,11.4,0,0,1-2.34,3.56,1.15,1.15,0,0,0-.13,1.46l1,1.46L44.4,41.33l-1-1.46a1.17,1.17,0,0,0-1.4-.42,11.36,11.36,0,0,1-4.17.87,1.16,1.16,0,0,0-1.12.94L36.39,43l-2.84-.54.33-1.73a1.17,1.17,0,0,0-.7-1.29,11.34,11.34,0,0,1-3.56-2.34A1.15,1.15,0,0,0,28.17,37l-1.46,1-1.63-2.39,1.46-1a1.15,1.15,0,0,0,.42-1.4A11.27,11.27,0,0,1,26.1,29a1.15,1.15,0,0,0-1-1.11l-1.73-.33L24,24.71,25.7,25A1.14,1.14,0,0,0,27,24.35a11.52,11.52,0,0,1,2.34-3.56,1.15,1.15,0,0,0,.13-1.46l-1-1.45,2.39-1.63,1,1.46a1.16,1.16,0,0,0,1.4.42,11.57,11.57,0,0,1,4.17-.87,1.16,1.16,0,0,0,1.12-.94l.33-1.73,2.84.54-.33,1.73a1.17,1.17,0,0,0,.7,1.29,11.52,11.52,0,0,1,3.56,2.34,1.15,1.15,0,0,0,1.45.13l1.46-1L50.17,22l-1.46,1a1.16,1.16,0,0,0-.42,1.4,11.52,11.52,0,0,1,.87,4.17,1.15,1.15,0,0,0,.94,1.12l1.73.33ZM53.4,28l-2-.38a13.25,13.25,0,0,0-.66-3.17l1.67-1.14a1.17,1.17,0,0,0,.31-1.61l-2.93-4.3a1.13,1.13,0,0,0-.74-.49,1.11,1.11,0,0,0-.87.18l-1.67,1.13a13.49,13.49,0,0,0-2.71-1.78l.38-2a1.16,1.16,0,0,0-.92-1.36l-5.12-1a1.16,1.16,0,0,0-.87.18,1.18,1.18,0,0,0-.49.74l-.37,2a13.86,13.86,0,0,0-3.18.67L32.12,14a1.21,1.21,0,0,0-.74-.49,1.2,1.2,0,0,0-.87.18L26.2,16.61a1.15,1.15,0,0,0-.49.74,1.16,1.16,0,0,0,.18.87L27,19.89a13.49,13.49,0,0,0-1.78,2.71l-2-.38a1.15,1.15,0,0,0-1.35.92l-1,5.12a1.15,1.15,0,0,0,.92,1.35l2,.38a13.33,13.33,0,0,0,.66,3.18L22.82,34.3a1.13,1.13,0,0,0-.48.74,1.12,1.12,0,0,0,.18.87l2.92,4.31a1.21,1.21,0,0,0,.75.49,1.18,1.18,0,0,0,.86-.18l1.67-1.14a13.12,13.12,0,0,0,2.71,1.79l-.38,2A1.16,1.16,0,0,0,32,44.51l5.12,1,.22,0a1.17,1.17,0,0,0,1.14-.94l.37-2A13.23,13.23,0,0,0,42,41.93l1.13,1.66a1.17,1.17,0,0,0,.75.49,1.14,1.14,0,0,0,.86-.18L49.05,41a1.16,1.16,0,0,0,.31-1.61L48.23,37.7A13.49,13.49,0,0,0,50,35l2,.37a1.15,1.15,0,0,0,1.35-.92l1-5.12A1.16,1.16,0,0,0,53.4,28"/>7<path d="M43.53,29.92a6,6,0,1,1-5.92-7.14,6.29,6.29,0,0,1,1.14.11,6,6,0,0,1,4.78,7m-4.34-9.31a8.33,8.33,0,1,0,6.61,9.74,8.3,8.3,0,0,0-6.61-9.74"/>7<path d="M7.84,20.68,7,21.74,5.3,20.44l.8-1.06a.89.89,0,0,0,0-1.1,8.71,8.71,0,0,1-1.63-2.75A.88.88,0,0,0,3.47,15l-1.3.19L1.86,13l1.31-.19A.86.86,0,0,0,3.91,12a8.67,8.67,0,0,1,.8-3.1.87.87,0,0,0-.27-1.06L3.38,7,4.68,5.3l1.06.8a.89.89,0,0,0,1.1,0A8.53,8.53,0,0,1,9.59,4.42a.87.87,0,0,0,.57-.94L10,2.16l2.15-.31.19,1.32a.87.87,0,0,0,.81.74,8.61,8.61,0,0,1,3.1.8.89.89,0,0,0,1.07-.27l.79-1.06,1.74,1.3L19,5.74a.87.87,0,0,0,0,1.1A8.35,8.35,0,0,1,20.7,9.59a.88.88,0,0,0,.95.57L23,10l.31,2.15L22,12.31a.88.88,0,0,0-.75.81,8.6,8.6,0,0,1-.79,3.1.85.85,0,0,0,.26,1.06l1.06.8-1.3,1.74L19.38,19a.87.87,0,0,0-1.1,0,8.35,8.35,0,0,1-2.75,1.63.89.89,0,0,0-.57.95L15.15,23,13,23.27,12.81,22a.86.86,0,0,0-.81-.74,8.67,8.67,0,0,1-3.1-.8,1,1,0,0,0-.37-.08.87.87,0,0,0-.69.35m3.34,2.2.22,1.5a.86.86,0,0,0,.34.57.87.87,0,0,0,.52.17h.13l3.87-.55a.87.87,0,0,0,.74-1l-.22-1.5a10.09,10.09,0,0,0,2.1-1.24l1.21.91a.88.88,0,0,0,1.22-.18l2.35-3.13a.87.87,0,0,0-.18-1.22l-1.21-.91a10.12,10.12,0,0,0,.61-2.36l1.5-.22a.86.86,0,0,0,.57-.34.82.82,0,0,0,.16-.64l-.55-3.88a.88.88,0,0,0-1-.74l-1.5.22a10.09,10.09,0,0,0-1.24-2.1L21.74,5a.94.94,0,0,0,.16-.65.83.83,0,0,0-.34-.57L18.43,1.46a.84.84,0,0,0-.65-.16.83.83,0,0,0-.57.34L16.3,2.85a10.12,10.12,0,0,0-2.36-.61L13.72.75a.86.86,0,0,0-1-.74L8.86.57A.86.86,0,0,0,8.29.9a.89.89,0,0,0-.17.65l.22,1.5a10.09,10.09,0,0,0-2.1,1.24L5,3.39a.89.89,0,0,0-.65-.17.87.87,0,0,0-.57.34L1.46,6.69a.84.84,0,0,0-.16.65.83.83,0,0,0,.34.57l1.21.91a10.12,10.12,0,0,0-.61,2.36L.75,11.4a.89.89,0,0,0-.58.34.86.86,0,0,0-.16.64l.55,3.88a.87.87,0,0,0,1,.74l1.5-.22a10.09,10.09,0,0,0,1.24,2.1l-.9,1.21a.89.89,0,0,0-.17.65.87.87,0,0,0,.34.57L6.7,23.66a.85.85,0,0,0,1.21-.18l.91-1.21a10.25,10.25,0,0,0,2.36.61"/>7<path d="M8.09,13.2a4.52,4.52,0,0,1,3.83-5.11A4.72,4.72,0,0,1,12.56,8,4.52,4.52,0,1,1,8.09,13.2m5.36,5.56a6.28,6.28,0,1,0-.89.06,6.77,6.77,0,0,0,.89-.06"/></svg>