<svg xmlns="http://www.w3.org/2000/svg" viewBox="0 0 49.43 53.9" fill="none" stroke-width="2px" stroke="#FFFFFF"><path d="M45,29.23l-3.24-3.7L33.48,35,28.8,29.61l-3.24,3.7,7.92,9,3.24-3.7Zm3.75,4A13.89,13.89,0,1,1,34.83,19.31,13.88,13.88,0,0,1,48.71,33.19ZM22.15,9.57H6.29M22.8,15.36H6.29m21.61,5.8H6.29M22.42,27H6.29M21,32.74H6.29m15.53,5.8H6.29m20.25,5.79H6.29m33.78-24V14.39L26.08.71H2A1.3,1.3,0,0,0,.71,2V51.91A1.3,1.3,0,0,0,2,53.19H38.77a1.29,1.29,0,0,0,1.3-1.28V46.05m-14-31.66V.71l14,13.68Z"/></svg>