<svg xmlns="http://www.w3.org/2000/svg" viewBox="0 0 63.61 67.24" fill="#FFFFFF"><path d="M33.52,17.16a18,18,0,1,0,18,18,18,18,0,0,0-18-18m0,37A19.07,19.07,0,1,1,52.58,35.12,19.09,19.09,0,0,1,33.52,54.19"/><path d="M20.14,22.87a.55.55,0,0,1-.41-.18L9,10.86a.55.55,0,0,1,0-.78.56.56,0,0,1,.78,0L20.55,21.94a.56.56,0,0,1,0,.78.55.55,0,0,1-.37.15"/><path d="M48.91,26.52a.55.55,0,0,1-.36-1L59,16.75a.55.55,0,0,1,.71.85L49.26,26.39a.53.53,0,0,1-.35.13"/><path d="M58,54.26a.57.57,0,0,1-.37-.14l-9-8.38a.55.55,0,0,1,0-.78.54.54,0,0,1,.78,0l9,8.38a.55.55,0,0,1,0,.78.58.58,0,0,1-.41.17"/><path d="M47.12,63.21a.55.55,0,0,1-.5-.32l-5.18-11a.55.55,0,1,1,1-.46l5.18,11a.56.56,0,0,1-.27.74.59.59,0,0,1-.23.05"/><path d="M4.32,62.34a.55.55,0,0,1-.44-.21A.56.56,0,0,1,4,61.35L20.45,48.14a.54.54,0,0,1,.77.09.55.55,0,0,1-.08.77L4.66,62.21a.5.5,0,0,1-.34.13"/><path d="M33.62,17.16h0a.56.56,0,0,1-.55-.56L33.2,4.4a.56.56,0,0,1,.56-.54h0a.55.55,0,0,1,.55.56l-.14,12.19a.55.55,0,0,1-.55.55"/><path d="M33.81,1.1a1.57,1.57,0,1,0,1.57,1.57A1.57,1.57,0,0,0,33.81,1.1m0,4.24a2.67,2.67,0,1,1,2.68-2.67,2.67,2.67,0,0,1-2.68,2.67"/><path d="M60.94,14.25a1.56,1.56,0,1,0,1.57,1.56,1.56,1.56,0,0,0-1.57-1.56m0,4.23a2.67,2.67,0,1,1,2.67-2.67,2.67,2.67,0,0,1-2.67,2.67"/><path d="M8,7.36A1.56,1.56,0,1,0,9.58,8.92,1.56,1.56,0,0,0,8,7.36m0,4.23a2.67,2.67,0,1,1,2.67-2.67A2.68,2.68,0,0,1,8,11.59"/><path d="M2.67,61.55a1.57,1.57,0,1,0,1.56,1.56,1.56,1.56,0,0,0-1.56-1.56m0,4.23a2.67,2.67,0,1,1,2.66-2.67,2.68,2.68,0,0,1-2.66,2.67"/><path d="M48,63a1.57,1.57,0,1,0,1.56,1.57A1.57,1.57,0,0,0,48,63m0,4.23a2.67,2.67,0,1,1,2.67-2.66A2.67,2.67,0,0,1,48,67.24"/><path d="M59.55,53.58a1.57,1.57,0,1,0,1.57,1.57,1.56,1.56,0,0,0-1.57-1.57m0,4.24a2.68,2.68,0,1,1,2.68-2.67,2.67,2.67,0,0,1-2.68,2.67"/><path d="M33.52,23.17A12,12,0,1,0,45.47,35.12,12,12,0,0,0,33.52,23.17m0,25A13.07,13.07,0,1,1,46.58,35.12,13.09,13.09,0,0,1,33.52,48.19"/></svg>