<svg xmlns="http://www.w3.org/2000/svg" viewBox="0 0 50.26 70.27" fill="none" stroke="#808285">
    <path stroke-width="2px" d="M29.43,29.15,14.88,43.71s-3.65-6-5.38-7.75c-3.77-3.77-6.09-.68-5.88.29,6.48,8.17,6.65,11.46,4,16.57l9.6,9.6c1.9-1.89,5.91-1.2,7.52-2.82l6.09-6.09a1.85,1.85,0,0,0,.44-.69,2.67,2.67,0,0,0-.57-3.09,3.26,3.26,0,0,0-.47-.38,2.66,2.66,0,0,0-.55-3.14,2.88,2.88,0,0,0-1.6-.8l0-.09.18-.18a2.58,2.58,0,0,0-.19-3.62,2.79,2.79,0,0,0-2.48-.8l0-.06L33.25,33a2.72,2.72,0,0,0-3.82-3.82ZM15.34,64.92l-1.42,1.42a1.62,1.62,0,0,1-2.29,0l-7.7-7.7a1.62,1.62,0,0,1,0-2.3l1.41-1.41a1.64,1.64,0,0,1,2.3,0l7.7,7.7A1.62,1.62,0,0,1,15.34,64.92Zm2.79,1.13-3.08,3.08a1.94,1.94,0,0,1-2.75,0L1.14,58a2,2,0,0,1,0-2.76l3.07-3.07a1.94,1.94,0,0,1,2.75,0L18.13,63.3A1.94,1.94,0,0,1,18.13,66.05Z"/>
    <path stroke-width="2px" d="M40.07,22.18A28.28,28.28,0,0,1,35,27.39a28.42,28.42,0,0,1-5.1-5.21c-5.68,2.74-9.73,9-9.73,9A44.28,44.28,0,0,0,35,33.85,44.3,44.3,0,0,0,49.8,31.19S45.75,24.92,40.07,22.18Zm3.77-11.64c0,6.73-4.82,12.18-8.88,12.18-3.46,0-8.87-5.45-8.87-12.18S30.06.46,35,.46,43.84,3.81,43.84,10.54Z"/>
</svg>