<svg xmlns="http://www.w3.org/2000/svg" viewBox="0 0 59.33 49.54" fill="#FFFFFF"><path d="M47.4,46.06h7V6.65h-7Zm7.46,1h-8a.48.48,0,0,1-.49-.48V6.16a.49.49,0,0,1,.49-.49h8a.49.49,0,0,1,.49.49V46.55a.48.48,0,0,1-.49.48"/><path d="M36.79,46.06h7V11.66h-7Zm7.47,1h-8a.48.48,0,0,1-.49-.48V11.17a.49.49,0,0,1,.49-.49h8a.49.49,0,0,1,.48.49V46.55a.48.48,0,0,1-.48.48"/><path d="M26.18,46.06h7V16.52h-7Zm7.47,1h-8a.48.48,0,0,1-.49-.48V16a.48.48,0,0,1,.49-.48h8a.47.47,0,0,1,.48.48V46.55a.47.47,0,0,1-.48.48"/><path d="M15.56,46.06h7V23.3h-7ZM23,47h-8a.48.48,0,0,1-.49-.48V22.82a.49.49,0,0,1,.49-.49h8a.49.49,0,0,1,.49.49V46.55A.48.48,0,0,1,23,47"/><path d="M5,46.06h7V30.37H5Zm7.47,1H4.47A.48.48,0,0,1,4,46.55V29.89a.49.49,0,0,1,.49-.49h8a.49.49,0,0,1,.49.49V46.55a.48.48,0,0,1-.49.48"/><path d="M58.85,49.54H.49a.49.49,0,0,1,0-1H58.85a.49.49,0,0,1,0,1"/><path d="M2.84,24a.48.48,0,0,1-.46-.32.49.49,0,0,1,.3-.63c.26-.09,26.25-9.54,37.67-22.85A.47.47,0,0,1,41,.12a.49.49,0,0,1,.06.69C29.5,14.31,3.27,23.85,3,23.94a.51.51,0,0,1-.17,0"/><path d="M40.58,6.89h0a.49.49,0,0,1-.49-.49V1.13l-5,0h0a.49.49,0,1,1,0-1l5.46,0a.49.49,0,0,1,.35.14.48.48,0,0,1,.14.34V6.4a.49.49,0,0,1-.49.49"/></svg>