<svg xmlns="http://www.w3.org/2000/svg" viewBox="0 0 36.17 38.65" fill="#FFFFFF">
    <path d="M13.55,21.51a5,5,0,0,1-5,5h0A4.95,4.95,0,0,1,5.09,18a4.9,4.9,0,0,1,3.5-1.46,5,5,0,0,1,5,5M7,8a.88.88,0,0,1-.11-.62.79.79,0,0,1,.36-.51.83.83,0,0,1,1.13.24L12.77,14l1.13,1.77.08.07a7.23,7.23,0,0,0,1,.49,6.78,6.78,0,0,0,.83.31,8.65,8.65,0,0,0,6.54-1,7.34,7.34,0,0,1,.67.91l-.19.18a6.69,6.69,0,0,0-2,4.79,5.83,5.83,0,0,0,0,.59H15.35c0-.2,0-.39,0-.59a6.79,6.79,0,0,0-3.55-6l-.1-.15ZM24.08,18a4.9,4.9,0,0,1,3.5-1.46A5,5,0,0,1,31.09,25a4.88,4.88,0,0,1-3.51,1.46h0a5,5,0,0,1-5-5A4.92,4.92,0,0,1,24.08,18M14.41,3.29a4.95,4.95,0,1,1,7,7,4.87,4.87,0,0,1-3.5,1.45,4.95,4.95,0,0,1-3.5-8.45M3.79,16.72A6.79,6.79,0,0,0,8.59,28.3h0a6.8,6.8,0,0,0,6.33-4.36h6.33a6.8,6.8,0,0,0,6.33,4.37h0a6.81,6.81,0,0,0,6.79-6.79,6.8,6.8,0,0,0-6.79-6.78,6.71,6.71,0,0,0-3.09.75,9.15,9.15,0,0,0-1.43-1.7.92.92,0,0,0-1.18,0s-3.77,2.81-7.34.26l-1.88-2.91a6.76,6.76,0,0,0,5.25,2.5h0A6.79,6.79,0,0,0,17.91,0a6.76,6.76,0,0,0-6.05,9.84L9.59,6.34A2.31,2.31,0,1,0,5.71,8.85l3.85,6a6.24,6.24,0,0,0-1-.08,6.77,6.77,0,0,0-4.8,2"/>
    <path d="M4.4,30.38a8,8,0,0,0,8.6,0,11.34,11.34,0,0,1,2.32,6.46H1.87A11.33,11.33,0,0,1,4.4,30.38m-4.14,8a.89.89,0,0,0,.65.27H16.27a.91.91,0,0,0,.91-.88c0-.24.15-6-3.45-9.26a.91.91,0,0,0-1.17-.05c-.16.12-4,3-7.69,0a.91.91,0,0,0-1.17,0A12.74,12.74,0,0,0,0,37.73a.92.92,0,0,0,.26.65"/>
    <path d="M34.32,36.82H20.86a11.37,11.37,0,0,1,2.53-6.45,8,8,0,0,0,8.6,0,11.36,11.36,0,0,1,2.33,6.46m-2.77-8.36c-.16.12-4,3-7.68,0a.92.92,0,0,0-1.18,0A12.8,12.8,0,0,0,19,37.73a.91.91,0,0,0,.92.92H35.26a.91.91,0,0,0,.91-.88c0-.24.15-6-3.45-9.26a.91.91,0,0,0-1.17-.05"/>
</svg>