<svg xmlns="http://www.w3.org/2000/svg" viewBox="0 0 29.81 19.78" fill="#FFFFFF"><path d="M3.09,11.27a5.83,5.83,0,0,0,6.44,0,6.12,6.12,0,0,1,1.18,1.92A9.37,9.37,0,0,0,9,16.44h-8a8.69,8.69,0,0,1,2-5.18m8.63,2.31a5.86,5.86,0,0,0,6.44,0A8.52,8.52,0,0,1,20,18.75H9.68a8.68,8.68,0,0,1,2-5.17m8.72-2.31a5.84,5.84,0,0,0,6.45,0,8.67,8.67,0,0,1,1.88,5.19h-8a8.37,8.37,0,0,0-1.53-3.25,8.1,8.1,0,0,1,1.22-1.93M.15,17.32a.52.52,0,0,0,.37.16H8.8a12.09,12.09,0,0,0-.17,1.78.51.51,0,0,0,.52.52H20.57a.52.52,0,0,0,.52-.5,10.56,10.56,0,0,0-.14-1.8H29.3a.52.52,0,0,0,.51-.5c0-.18.11-4.36-2.51-6.77a.51.51,0,0,0-.66,0s-3.08,2.32-5.92,0a.52.52,0,0,0-.67,0,7.71,7.71,0,0,0-1.62,2.23.49.49,0,0,0-.52.06c-.12.09-3.09,2.3-5.92,0a.52.52,0,0,0-.48-.09,6.83,6.83,0,0,0-1.57-2.19.51.51,0,0,0-.66,0s-3.08,2.32-5.92,0a.5.5,0,0,0-.66,0A9.29,9.29,0,0,0,0,17a.51.51,0,0,0,.15.37"/><path d="M3.5,2.16A3.85,3.85,0,1,1,9,7.61,3.81,3.81,0,0,1,6.23,8.74h0A3.85,3.85,0,0,1,3.5,2.16m8.64,2.31a3.79,3.79,0,0,1,2.72-1.13,3.86,3.86,0,0,1,3.85,3.85A3.86,3.86,0,0,1,14.86,11h0a3.85,3.85,0,0,1-2.72-6.57m8.72-2.31a3.85,3.85,0,1,1,5.45,5.45,3.83,3.83,0,0,1-2.72,1.13h0a3.85,3.85,0,0,1-2.72-6.58M6.23,9.77h0A4.86,4.86,0,0,0,9.68,8.34c.13-.13.25-.27.36-.4a4.89,4.89,0,0,0,4.82,4.14h0A4.91,4.91,0,0,0,19.7,7.83a4.85,4.85,0,0,0,3.88,1.94h0a4.89,4.89,0,1,0-4.84-5.53,4.88,4.88,0,0,0-7.34-.5,4.48,4.48,0,0,0-.36.4A4.88,4.88,0,1,0,6.23,9.77"/></svg>