<svg xmlns="http://www.w3.org/2000/svg" viewBox="0 0 53.82 59.84" fill="none" stroke="#808285" stroke-linecap="round" stroke-linejoin="round"><path stroke-width="1.62px" d="M43.29,53.33l3.86-3.85m-2.07,5.64,3.86-3.85M53,55l-7.49-7.49-4,4L49,59ZM38.52,47l3.74,3.75,2.5-2.5L41,44.54M37.6,31.46a8.6,8.6,0,1,1-12.16,0A8.61,8.61,0,0,1,37.6,31.46Zm2.17-2.17a11.67,11.67,0,1,1-16.5,0A11.68,11.68,0,0,1,39.77,29.29Z"/><path stroke-width="1.41px" d="M30.68,8H17.55m13.68,4.8H17.55m23.36,4.8H17.55m23.36,4.8H17.55m23.36,4.8h-.59m-17.91,0H17.55M18.63,32H17.55m.46,4.8h-.46M4.78,12.93h-3A1.07,1.07,0,0,0,.7,14V55.34A1.08,1.08,0,0,0,1.78,56.4H32.23a1.07,1.07,0,0,0,1.07-1.06v-3M8.85,8.85h-3A1.06,1.06,0,0,0,4.78,9.91V51.27a1.06,1.06,0,0,0,1.08,1H36.3a1.06,1.06,0,0,0,1.08-1v-.74M12.93,4.78h-3a1.07,1.07,0,0,0-1.08,1V47.19a1.08,1.08,0,0,0,1.08,1.06H21.8m22.65-4.08a1.06,1.06,0,0,0,1.08-1.05V12L33.94.7H14a1.06,1.06,0,0,0-1.08,1.06V43.12A1.06,1.06,0,0,0,14,44.17h5.23M33.94,12V.7L45.53,12Z"/></svg>