<svg xmlns="http://www.w3.org/2000/svg" viewBox="0 0 50.72 54.76" fill="#FFFFFF"><path d="M18.43,30.18a6.15,6.15,0,1,0,6.15,6.15,6.16,6.16,0,0,0-6.15-6.15m0,13.2a7.05,7.05,0,1,1,7.05-7.05,7.06,7.06,0,0,1-7,7.05m-.9,10.48h1.81L20,49.27a.45.45,0,0,1,.37-.38A12.24,12.24,0,0,0,23,48.2a.45.45,0,0,1,.52.14L26.42,52l1.56-.9-1.7-4.32a.45.45,0,0,1,.14-.51,13.26,13.26,0,0,0,1.91-1.91.45.45,0,0,1,.52-.14l4.32,1.69.9-1.56-3.63-2.88a.47.47,0,0,1-.14-.52A12.76,12.76,0,0,0,31,38.3a.46.46,0,0,1,.38-.38L36,37.23v-1.8l-4.58-.69a.45.45,0,0,1-.38-.38,12.47,12.47,0,0,0-.7-2.61.45.45,0,0,1,.14-.51l3.63-2.9-.9-1.56-4.32,1.7a.43.43,0,0,1-.52-.14,12.26,12.26,0,0,0-1.91-1.9.47.47,0,0,1-.14-.52L28,21.6l-1.56-.91-2.89,3.63a.43.43,0,0,1-.52.14,12.71,12.71,0,0,0-2.61-.7.45.45,0,0,1-.37-.38l-.69-4.58H17.53l-.69,4.58a.45.45,0,0,1-.37.38,13,13,0,0,0-2.62.7.43.43,0,0,1-.51-.13l-2.89-3.64-1.57.91,1.7,4.32a.45.45,0,0,1-.13.52,12.25,12.25,0,0,0-1.91,1.9.43.43,0,0,1-.52.14L3.7,26.78l-.9,1.56,3.63,2.9a.45.45,0,0,1,.14.51,12.11,12.11,0,0,0-.7,2.61.46.46,0,0,1-.38.38L.9,35.42v1.81l4.59.69a.46.46,0,0,1,.38.38,12.71,12.71,0,0,0,.7,2.61.47.47,0,0,1-.14.52L2.8,44.31l.9,1.57L8,44.18a.45.45,0,0,1,.52.14,12.32,12.32,0,0,0,1.91,1.91.43.43,0,0,1,.13.51l-1.7,4.32,1.57.9,2.89-3.62a.44.44,0,0,1,.51-.14,12.4,12.4,0,0,0,2.61.69.45.45,0,0,1,.38.38Zm2.19.9H17.14a.44.44,0,0,1-.44-.38L16,49.73a12.53,12.53,0,0,1-2.16-.58l-2.93,3.68a.46.46,0,0,1-.58.11L8.1,51.65a.46.46,0,0,1-.2-.56l1.73-4.37a14.73,14.73,0,0,1-1.58-1.58L3.67,46.85a.44.44,0,0,1-.55-.19l-1.3-2.23a.46.46,0,0,1,.11-.58l3.68-2.93A13.89,13.89,0,0,1,5,38.77l-4.65-.7A.46.46,0,0,1,0,37.62V35a.44.44,0,0,1,.38-.44L5,33.9a14,14,0,0,1,.58-2.16L1.93,28.81a.46.46,0,0,1-.11-.58L3.12,26a.44.44,0,0,1,.55-.2l4.38,1.72a13.1,13.1,0,0,1,1.58-1.58L7.9,21.57A.46.46,0,0,1,8.1,21l2.23-1.29a.46.46,0,0,1,.58.11l2.93,3.68A13.23,13.23,0,0,1,16,22.93l.7-4.65a.44.44,0,0,1,.44-.38h2.58a.44.44,0,0,1,.45.38l.7,4.65a13.23,13.23,0,0,1,2.16.58L26,19.83a.46.46,0,0,1,.58-.11L28.76,21a.45.45,0,0,1,.2.56L27.24,26a12.34,12.34,0,0,1,1.58,1.57L33.2,25.8a.44.44,0,0,1,.55.2L35,28.23a.46.46,0,0,1-.11.58l-3.67,2.93a15.34,15.34,0,0,1,.58,2.16l4.64.7a.44.44,0,0,1,.38.44v2.58a.46.46,0,0,1-.38.45l-4.64.69a15,15,0,0,1-.58,2.16l3.67,2.93a.46.46,0,0,1,.11.58l-1.29,2.23a.45.45,0,0,1-.55.19l-4.38-1.71a14.73,14.73,0,0,1-1.58,1.58L29,51.1a.44.44,0,0,1-.2.55l-2.23,1.29a.46.46,0,0,1-.58-.11L23,49.15a12.53,12.53,0,0,1-2.16.58l-.7,4.65a.44.44,0,0,1-.45.38"/><path d="M18.43,26.14a.23.23,0,0,0-.22.23.22.22,0,0,0,.22.22.22.22,0,0,0,.23-.22.24.24,0,0,0-.23-.23m0,1.35a1.13,1.13,0,0,1,0-2.25,1.13,1.13,0,1,1,0,2.25"/><path d="M23.41,27.48a.21.21,0,0,0-.19.11.2.2,0,0,0,0,.17.18.18,0,0,0,.1.14.23.23,0,0,0,.31-.09.19.19,0,0,0,0-.16.21.21,0,0,0-.1-.14.27.27,0,0,0-.12,0m0,1.35a1.09,1.09,0,0,1-.56-.15A1.12,1.12,0,0,1,24,26.73a1.12,1.12,0,0,1,.42,1.54,1.15,1.15,0,0,1-1,.56"/><path d="M27.06,31.12a.28.28,0,0,0-.12,0,.23.23,0,0,0-.1.13.28.28,0,0,0,0,.17.21.21,0,0,0,.31.08.26.26,0,0,0,.11-.14.27.27,0,0,0,0-.16.22.22,0,0,0-.19-.12m0,1.35a1.11,1.11,0,0,1-1-.57,1.19,1.19,0,0,1-.11-.85,1.08,1.08,0,0,1,.53-.67,1.15,1.15,0,0,1,1.53.41,1.12,1.12,0,0,1-1,1.68"/><path d="M28.39,36.1a.22.22,0,0,0-.22.23.22.22,0,0,0,.22.22.23.23,0,1,0,0-.45m0,1.35a1.13,1.13,0,0,1,0-2.25,1.13,1.13,0,1,1,0,2.25"/><path d="M27.05,41.09a.18.18,0,0,0-.18.1.22.22,0,1,0,.38.23.3.3,0,0,0,0-.17.24.24,0,0,0-.11-.13l-.12,0m0,1.34a1.12,1.12,0,1,1,.56-2.09,1.07,1.07,0,0,1,.52.67,1.12,1.12,0,0,1-1.08,1.42"/><path d="M23.41,44.73a.2.2,0,0,0-.11,0,.22.22,0,0,0-.08.3.22.22,0,0,0,.41-.05.22.22,0,0,0,0-.17.23.23,0,0,0-.2-.11m0,1.35a1.13,1.13,0,0,1-.56-2.1,1.16,1.16,0,0,1,1.54.41,1.1,1.1,0,0,1,.11.85,1.11,1.11,0,0,1-.53.69,1.09,1.09,0,0,1-.56.15"/><path d="M18.43,46.06a.23.23,0,0,0-.22.23.22.22,0,0,0,.22.22.22.22,0,0,0,.23-.22.24.24,0,0,0-.23-.23m0,1.35a1.13,1.13,0,0,1,0-2.25,1.13,1.13,0,1,1,0,2.25"/><path d="M13.45,44.73a.21.21,0,0,0-.19.11.26.26,0,0,0,0,.17.23.23,0,0,0,.11.14.23.23,0,0,0,.31-.09.19.19,0,0,0,0-.16.19.19,0,0,0-.11-.14.2.2,0,0,0-.11,0m0,1.35a1.09,1.09,0,0,1-.56-.15,1.08,1.08,0,0,1-.52-.68,1.12,1.12,0,0,1,.11-.86A1.15,1.15,0,0,1,14,44a1.11,1.11,0,0,1,.53.69,1.1,1.1,0,0,1-.11.85,1.15,1.15,0,0,1-1,.56"/><path d="M9.81,41.09a.2.2,0,0,0-.11,0,.18.18,0,0,0-.11.13.22.22,0,0,0,0,.17.23.23,0,0,0,.31.09.24.24,0,0,0,.08-.32.23.23,0,0,0-.19-.1m0,1.34a1.11,1.11,0,0,1-1-.56A1.08,1.08,0,0,1,8.72,41a1.13,1.13,0,0,1,.53-.68,1.16,1.16,0,0,1,1.53.42,1.12,1.12,0,0,1-.41,1.53,1.09,1.09,0,0,1-.56.15"/><path d="M8.47,36.1a.23.23,0,0,0-.22.23.22.22,0,0,0,.22.22.23.23,0,1,0,0-.45m0,1.35a1.13,1.13,0,0,1,0-2.25,1.13,1.13,0,1,1,0,2.25"/><path d="M9.8,31.12a.24.24,0,0,0-.19.12.25.25,0,0,0,0,.17.22.22,0,0,0,.1.13.23.23,0,0,0,.31-.08.22.22,0,0,0,0-.17.18.18,0,0,0-.1-.13.28.28,0,0,0-.12,0m0,1.35a1.12,1.12,0,0,1-1.08-.83,1.08,1.08,0,0,1,.12-.86,1.15,1.15,0,0,1,1.53-.4,1.07,1.07,0,0,1,.52.67A1.12,1.12,0,0,1,9.8,32.47"/><path d="M13.45,27.48a.2.2,0,0,0-.11,0,.18.18,0,0,0-.1.13.22.22,0,0,0,0,.17.22.22,0,0,0,.41,0,.22.22,0,0,0,0-.17.22.22,0,0,0-.2-.11m0,1.35a1.13,1.13,0,0,1-1.08-1.43,1.07,1.07,0,0,1,.52-.67,1.17,1.17,0,0,1,1.54.41,1.1,1.1,0,0,1,.11.85,1.15,1.15,0,0,1-.53.69,1.09,1.09,0,0,1-.56.15"/><path d="M38.52,8.34a3.86,3.86,0,1,0,3.86,3.86,3.86,3.86,0,0,0-3.86-3.86m0,8.62a4.76,4.76,0,1,1,4.76-4.76A4.76,4.76,0,0,1,38.52,17m-.46,6.54H39l.43-2.87a.45.45,0,0,1,.37-.37,9.68,9.68,0,0,0,1.68-.45A.44.44,0,0,1,42,20l1.81,2.26.79-.45-1.06-2.7a.43.43,0,0,1,.13-.51,8.93,8.93,0,0,0,1.23-1.23.45.45,0,0,1,.51-.14l2.7,1.06.45-.79-2.26-1.8a.45.45,0,0,1-.14-.52,8,8,0,0,0,.45-1.67.45.45,0,0,1,.38-.38l2.86-.43v-.91L47,11.31a.44.44,0,0,1-.38-.37,8,8,0,0,0-.45-1.67.45.45,0,0,1,.14-.52l2.26-1.81-.45-.78-2.7,1.06a.45.45,0,0,1-.51-.14,8.93,8.93,0,0,0-1.23-1.23.43.43,0,0,1-.13-.51l1.06-2.7-.79-.46L42,4.45a.45.45,0,0,1-.51.14,8,8,0,0,0-1.68-.45.45.45,0,0,1-.37-.38L39,.9h-.92l-.43,2.86a.45.45,0,0,1-.37.38,8,8,0,0,0-1.68.45.45.45,0,0,1-.51-.14l-1.8-2.27-.79.46,1.06,2.7a.45.45,0,0,1-.14.51,8.35,8.35,0,0,0-1.22,1.23.47.47,0,0,1-.52.14L29,6.16l-.45.78,2.26,1.81a.44.44,0,0,1,.14.51,9,9,0,0,0-.45,1.68.44.44,0,0,1-.38.37l-2.85.43v.91l2.85.43a.45.45,0,0,1,.38.38,8.91,8.91,0,0,0,.45,1.67.45.45,0,0,1-.14.52l-2.26,1.8.45.79,2.7-1.06a.45.45,0,0,1,.51.14,9.53,9.53,0,0,0,1.23,1.23.45.45,0,0,1,.14.51l-1.06,2.7.79.45L35.07,20a.44.44,0,0,1,.51-.14,9.68,9.68,0,0,0,1.68.45.45.45,0,0,1,.37.37Zm1.31.9H37.68a.45.45,0,0,1-.45-.39l-.44-2.92a8.81,8.81,0,0,1-1.22-.33l-1.84,2.32a.45.45,0,0,1-.57.11l-1.47-.85a.45.45,0,0,1-.19-.55L32.58,19a9.34,9.34,0,0,1-.89-.89l-2.76,1.08a.44.44,0,0,1-.55-.19l-.84-1.46a.45.45,0,0,1,.11-.58L30,15.15a7.92,7.92,0,0,1-.33-1.23l-2.92-.44a.45.45,0,0,1-.39-.44V11.36a.47.47,0,0,1,.39-.45l2.92-.44A8.11,8.11,0,0,1,30,9.25L27.65,7.41a.45.45,0,0,1-.11-.58l.84-1.46a.45.45,0,0,1,.55-.19l2.76,1.08a10.81,10.81,0,0,1,.89-.9L31.5,2.61a.46.46,0,0,1,.19-.56l1.47-.84a.45.45,0,0,1,.57.11l1.84,2.32a8.81,8.81,0,0,1,1.22-.33L37.23.38A.44.44,0,0,1,37.68,0h1.69a.44.44,0,0,1,.44.38l.44,2.93a8.81,8.81,0,0,1,1.22.33l1.85-2.32a.45.45,0,0,1,.57-.11l1.46.85a.44.44,0,0,1,.19.55L44.46,5.36a10.81,10.81,0,0,1,.89.9l2.76-1.08a.45.45,0,0,1,.55.19l.84,1.46a.45.45,0,0,1-.1.58L47.08,9.25a8.11,8.11,0,0,1,.33,1.22l2.92.44a.47.47,0,0,1,.39.45V13a.45.45,0,0,1-.39.44l-2.92.44a7.92,7.92,0,0,1-.33,1.23L49.4,17a.45.45,0,0,1,.1.58L48.66,19a.44.44,0,0,1-.55.2l-2.76-1.08a9.34,9.34,0,0,1-.89.89l1.08,2.76a.44.44,0,0,1-.19.55l-1.46.85a.45.45,0,0,1-.57-.11l-1.85-2.32a8.81,8.81,0,0,1-1.22.33L39.81,24a.45.45,0,0,1-.44.39"/></svg>