<svg xmlns="http://www.w3.org/2000/svg" viewBox="0 0 50.33 41.41" fill="none" stroke-width="1.5px" stroke="#FFFFFF">
    <rect x="5.22" y="10.86" width="40.24" height="30.07" rx="0.59"/>
    <rect x="11.11" y="18.83" width="28.95" height="22.1" rx="0.59"/>
    <rect x="14.91" y="25.97" width="21.34" height="14.98" rx="0.78"/>
    <path d="M31.38,41H25.61V36.09H36.25A4.87,4.87,0,0,1,31.38,41Z"/>
    <rect x="14.94" y="30.81" width="10.65" height="5.25"/>
    <path d="M36.23,30.84H25.58V26h5.78A4.87,4.87,0,0,1,36.23,30.84Z"/>
    <path d="M49.82,14.09,47,8.24a.59.59,0,0,0-.34-.3L25.08.49a.58.58,0,0,0-.39,0L4,7.94a.63.63,0,0,0-.31.27L.53,14.07a.57.57,0,0,0,0,.58.58.58,0,0,0,.5.29H49.29a.58.58,0,0,0,.49-.28A.61.61,0,0,0,49.82,14.09Z"/>
    <path d="M49.82,14.09,47,8.24a.6.6,0,0,0-.53-.33H4.24a.59.59,0,0,0-.51.3L.53,14.07a.57.57,0,0,0,0,.58.58.58,0,0,0,.5.29H49.29a.58.58,0,0,0,.49-.28A.61.61,0,0,0,49.82,14.09Z"/>
</svg>