<svg xmlns="http://www.w3.org/2000/svg" viewBox="0 0 59.97 55.83" fill="none" stroke-width="2px" stroke="#FFFFFF"><path d="M59.43,47.82a.53.53,0,0,0-.49-.36h-.09a1.86,1.86,0,0,0-.33,0l-.15,0h-.14a.51.51,0,0,1-.32-.09,2.65,2.65,0,0,1-.06-1,4.7,4.7,0,0,0,0-.65c0-.21-.07-.42-.11-.63a1.82,1.82,0,0,1,0-1.24.12.12,0,0,0,0-.13.14.14,0,0,0-.11-.09h0a.61.61,0,0,0-.26.09.91.91,0,0,1-.23.08l-.06,0a.36.36,0,0,1,0-.09v0a1.07,1.07,0,0,0-.68-.46L56,43.22a2.16,2.16,0,0,1-.44-.1,2.57,2.57,0,0,1-1.15-1.06,11.29,11.29,0,0,1-.88-1.36c-.07-.15-.14-.29-.2-.44h0a5.7,5.7,0,0,0-.51-.94,4.07,4.07,0,0,0-.43-.49c-.11-.12-.23-.25-.33-.38a.49.49,0,0,1-.14-.3.43.43,0,0,1,.14-.23L53.66,36a6.13,6.13,0,0,0,.91-1.29,2.07,2.07,0,0,0,.15-1.58.64.64,0,0,0-.2-.31.77.77,0,0,0-.38-.14A7.46,7.46,0,0,0,53,32.57l0,0a1.06,1.06,0,0,0-.64-.32h-.13a.54.54,0,0,1-.29-.05.5.5,0,0,1-.18-.36A2.47,2.47,0,0,1,52,30.18v0a.54.54,0,0,0,.09-.26.49.49,0,0,0-.08-.24,10,10,0,0,1-.82-3,1.48,1.48,0,0,1,0-.93,1.61,1.61,0,0,1,.39-.44,1.32,1.32,0,0,0,.44-.53.15.15,0,0,0-.14-.2h-.24a.79.79,0,0,1-.72-.29,1.52,1.52,0,0,1-.11-.86,3.16,3.16,0,0,0,0-.43.15.15,0,0,0-.06-.11h0a.13.13,0,0,0,0-.12c0-.27,0-.61.27-.74a1,1,0,0,1,.31-.06l.17,0c.21,0,.42-.18.42-.39s-.16-.3-.3-.39a1.09,1.09,0,0,1-.17-.13,1.39,1.39,0,0,0,.85-1A4.13,4.13,0,0,0,52.48,19v-.3a.81.81,0,0,1,.09-.44.83.83,0,0,1,.11-.15h0l.06-.06a1.25,1.25,0,0,0,.28-.76c0-.17,0-.35,0-.52h0a3.43,3.43,0,0,1,0-.64.71.71,0,0,0,0-.4.37.37,0,0,0-.2-.17,1.17,1.17,0,0,0,.11-.78,1.89,1.89,0,0,0,0-.23h0a1.74,1.74,0,0,1-.05-.64.59.59,0,0,1,0-.13c0-.22.11-.5-.11-.64a.4.4,0,0,0-.25-.06h-.06l-1,0h-.18a1.31,1.31,0,0,1-.8-.19,1.9,1.9,0,0,1-.44-.7c-.15-.36-.32-.73-.71-.82l-.12,0a.59.59,0,0,1-.2-.05.53.53,0,0,1-.12-.1A.76.76,0,0,0,48.6,11a.63.63,0,0,0-.3,0h-.11c-.5,0-.82-.61-.82-1.13v0a.52.52,0,0,0-.07-.29A.36.36,0,0,0,47,9.39h-.34c-.17,0-.3-.18-.42-.33L46.13,9a.77.77,0,0,0-.49-.26h0a.33.33,0,0,0-.25.11l-.07.09h0c0,.07-.07.1-.1.1s-.06,0-.1-.12a.39.39,0,0,0-.16-.2.19.19,0,0,0-.1,0,.43.43,0,0,0-.28.15l-.09.07a.35.35,0,0,1-.18.05H44.2a.59.59,0,0,1-.36-.26l0,0c0-.08-.11-.19-.22-.21h-.1a.12.12,0,0,0-.08,0h-.09c-.09,0-.16-.07-.26-.16L43,8.21a1.87,1.87,0,0,0-1-.37,4,4,0,0,1-.5-.09.53.53,0,0,1-.17-.08.5.5,0,0,1-.11-.28l0-.08A1.41,1.41,0,0,0,41,6.66a.62.62,0,0,0-.44-.23h0a.42.42,0,0,0-.3.13l-.06.08-.06.07a.17.17,0,0,1-.12,0,.92.92,0,0,1-.39-.14,1.6,1.6,0,0,0-.74-.19h0a1.17,1.17,0,0,0-1.11.94l-.27-.14A1.54,1.54,0,0,0,36.82,7h-.25a4.46,4.46,0,0,0-2.1.68c-.53.29-1.25.77-1.29,1.5v0c0,.09,0,.17,0,.21A.29.29,0,0,1,33,9.5a3.55,3.55,0,0,0-.68.32l0,.07h0l0-.07a3.62,3.62,0,0,1-.48.25,1.87,1.87,0,0,1-.72.17,1.46,1.46,0,0,1-.31,0h-.05a.16.16,0,0,0-.11.05.16.16,0,0,0,0,.15,2,2,0,0,1,0,1.89A2.69,2.69,0,0,0,29.29,12a6.82,6.82,0,0,0-2.2.47l-.1,0a7.62,7.62,0,0,1-2.48.59,2.79,2.79,0,0,1-.93-.15,3,3,0,0,1-.41-.18,3.51,3.51,0,0,0-.64-.24c-.11,0-.23,0-.34-.06a2.7,2.7,0,0,1-.41-.08,2.07,2.07,0,0,1-.64-.35l-.31-.24a.13.13,0,0,0-.1,0h0a.19.19,0,0,0,0-.1,6.3,6.3,0,0,1-1-1.17l0-.08a2.34,2.34,0,0,0-.33-.43,1.6,1.6,0,0,0-.73-.39,4.54,4.54,0,0,0-.9-.13l-.5-.05A1.67,1.67,0,0,1,16,8.76a2.19,2.19,0,0,1-.27-1.08,6.86,6.86,0,0,0-.12-.81,8.87,8.87,0,0,1-.12-1,.12.12,0,0,0-.07-.12.11.11,0,0,0-.08,0l-.06,0a2.83,2.83,0,0,0-.47.29,1.2,1.2,0,0,1-.17-.34,1.23,1.23,0,0,0-.13-.29.13.13,0,0,0-.12-.07h-.06a.47.47,0,0,0,0-.1.12.12,0,0,0-.1-.05H14c-.37,0-.64-.36-.87-.67S12.81,4,13,3.84a.53.53,0,0,1,.33-.13.62.62,0,0,0,.43-.22A.47.47,0,0,0,13.64,3a1.27,1.27,0,0,0-.28-.24l-.12-.09c-.05,0-.07-.07-.07-.09s.08-.1.16-.11h.05a.43.43,0,0,0,.3-.11c.11-.11.09-.29,0-.51A2.5,2.5,0,0,0,13,1a1,1,0,0,0-.56-.17A.84.84,0,0,0,12,1L9.8,2.56a.55.55,0,0,0-.24.36h-.1a1,1,0,0,0-.6.3,3.62,3.62,0,0,0-.5.6s-.07.1-.12.12L8.18,4A.7.7,0,0,1,8,3.9a.81.81,0,0,0-.22-.07h0A.74.74,0,0,0,7.36,4a.67.67,0,0,1-.27.13H7a1,1,0,0,1-.24,0l-1.7-.43H5l0,0s0,0,0,0a.27.27,0,0,1-.08-.14c-.16-.47-.38-.72-.66-.79H4.12L4,2.62a.49.49,0,0,1-.13-.15L3.2,1.34A2,2,0,0,0,2.71.71.9.9,0,0,0,2.2.53.57.57,0,0,0,1.91.6c-.3.16-.43.54-.37,1.13,0,.07,0,.18,0,.21h0s-.1-.06-.15-.09a.47.47,0,0,0-.12-.09A.35.35,0,0,0,1,1.72a.44.44,0,0,0-.18,0,.59.59,0,0,0-.3.39,1,1,0,0,0,.24.75v0a.77.77,0,0,1,.11.19.61.61,0,0,1,0,.27,1.11,1.11,0,0,0,0,.26A1.09,1.09,0,0,0,1,4l.08.13a2.08,2.08,0,0,1,.11,1,2.24,2.24,0,0,0,.1,1,.42.42,0,0,0,.14.16.2.2,0,0,0,.11,0l.12,0h.13c.07,0,.09.12.07.19a.71.71,0,0,1-.14.23l0,0a2.84,2.84,0,0,0-.52,1,.65.65,0,0,0,0,.51.71.71,0,0,0,.51.3c.21.06.35.1.41.23a.56.56,0,0,1,0,.36l0,.15a1,1,0,0,0,.46,1l.09.05c.11.06.21.11.24.21a.42.42,0,0,1-.05.28.43.43,0,0,0,.14.62.83.83,0,0,1,.13.14.61.61,0,0,1,0,.43c-.08.2-.16.43,0,.58a.51.51,0,0,0,.25.09l.08,0c.07,0,.13.07.13.11a.15.15,0,0,0,0,.09.44.44,0,0,1,0,.36l0,.09a1.23,1.23,0,0,0-.08.38.39.39,0,0,0,.35.39h0L4,14l.11,0,0,0s0,0,0,.08a6,6,0,0,1,.19,1v0a1,1,0,0,0,.1.43.44.44,0,0,0,.36.23l.09,0,.1-.05a.3.3,0,0,1,.11,0h0l0,0,0,0,.12.16a.86.86,0,0,0,.36.37.54.54,0,0,0,.22,0,1.88,1.88,0,0,0,.33-.05h0a3.48,3.48,0,0,1,.79-.09h.27l.08,0s0,0,0,.05a.15.15,0,0,1-.06.11.65.65,0,0,1-.21.05l-.09,0a.84.84,0,0,0-.58.45.87.87,0,0,0,0,.72,1.48,1.48,0,0,0,.31.42l.17.2,0,0,0,0s0,0,0,0,0,.05,0,.08a.52.52,0,0,0-.07.11.47.47,0,0,0,0,.31c0,.14,0,.17,0,.19h0l-.09,0-.08,0H6.61a.39.39,0,0,0-.4.42s0,.06,0,.08,0,.11,0,.14-.08,0-.17.06H6a.28.28,0,0,0-.19.12.14.14,0,0,0,0,.1.23.23,0,0,0-.13.08.5.5,0,0,0-.1.43,1.52,1.52,0,0,0,.06.2.78.78,0,0,1,.07.33.14.14,0,0,1,0,.07l0,0a.46.46,0,0,0-.32-.16l-.12,0A.27.27,0,0,0,5,21a.27.27,0,0,0,0,.09.2.2,0,0,0-.1.07.46.46,0,0,0-.12.35,1.1,1.1,0,0,0,.22.43L5,22a.52.52,0,0,1,.13.42.79.79,0,0,1-.19.27c-.12.12-.26.26-.22.45A.52.52,0,0,0,5,23.4l.1.09a1.22,1.22,0,0,1,.24.42,1,1,0,0,0,.32.51.16.16,0,0,0,.09,0h0a.16.16,0,0,0,.08.06l.12,0,.13,0c.08,0,.17.08.19.16a1.84,1.84,0,0,0,.47.92c.1.12.19.24.28.37a.4.4,0,0,0-.22.14.48.48,0,0,0-.11.37.67.67,0,0,0,.12.24.44.44,0,0,0,.23.19.27.27,0,0,0,.13,0h.15a2.26,2.26,0,0,1,1.44.81l0,0a2.83,2.83,0,0,0,1.47,1l.11,0a.85.85,0,0,1,.23,0,1,1,0,0,1,.45.47,3.27,3.27,0,0,1,.29.73.15.15,0,0,0,.13.11h0a.09.09,0,0,0,0,.05,1.16,1.16,0,0,1,.06.15,1,1,0,0,0,.26.42,1.1,1.1,0,0,1,.23.36,1,1,0,0,1-.18.72h0l-.1.2a3.63,3.63,0,0,0-.15,1.87.35.35,0,0,0,.13.29.3.3,0,0,0,.2,0l.69,0s.07,0,.08,0,0,.05,0,.07l-.06,1a1.17,1.17,0,0,1,0,.26,1.24,1.24,0,0,0,0,.22.42.42,0,0,0,.27.5l.09,0c.05,0,.08,0,.1,0s0,0,0,0l0,.05a.45.45,0,0,0,.27.2l.1,0a1,1,0,0,1,.38.62,1,1,0,0,0,.49.67l.16,0a.46.46,0,0,0,.25-.08.17.17,0,0,1,.06-.06l0,0a.56.56,0,0,1,.3-.1.62.62,0,0,0,.39-.12.5.5,0,0,0,.12-.48,2,2,0,0,0-.08-.26l-.06-.17a.81.81,0,0,1,0-.38,1.29,1.29,0,0,1,.21.2.91.91,0,0,0,.29.26.47.47,0,0,0,.15.06l.16.07a.7.7,0,0,1,.22.31.14.14,0,0,0,.14.09h.12c.33,0,.38.13.4.17s0,.08,0,.12,0,.27.21.3h0a.38.38,0,0,0,.26-.17,2.44,2.44,0,0,1,.76-.63.85.85,0,0,1,.35-.1H19l0,0h0a.55.55,0,0,1,.08.37.53.53,0,0,0,0,.13A2.19,2.19,0,0,0,20,39a1.85,1.85,0,0,1,.75,1.3s0,.07,0,.11c0,.21,0,.48.16.6a.7.7,0,0,0,.27.06h.11a.18.18,0,0,1,.14.09.05.05,0,0,1,0,.05.23.23,0,0,1-.09.07.37.37,0,0,0-.13.12c-.13.21.12.38.27.49h0a1.39,1.39,0,0,1,.44.91,2.59,2.59,0,0,0,.26.77l.11.15a1,1,0,0,1,.14.23,1.15,1.15,0,0,1,.09.33,2.46,2.46,0,0,0,.07.29,1.49,1.49,0,0,0,1.2.87l.39.06a2.05,2.05,0,0,1,.93.26l.18.13a1.25,1.25,0,0,0,.3.21l.24.09a1.13,1.13,0,0,1,.24.08,1.31,1.31,0,0,1,.44.66l0,.06a1.51,1.51,0,0,0,.16.31.11.11,0,0,0,.07.06.12.12,0,0,0,0,.09.74.74,0,0,0,.37.23,2.66,2.66,0,0,0,.82.51l.36.11a3.14,3.14,0,0,1,.65.25,3.47,3.47,0,0,1,.47.39,1.74,1.74,0,0,0,.84.55H31a2.44,2.44,0,0,1,1.08.39,4.88,4.88,0,0,0,.7.32,1.16,1.16,0,0,0,.34.06h0a1,1,0,0,0,.49-.17,5.53,5.53,0,0,0,.61-.43l.31-.23a.55.55,0,0,1,.15-.08H35a.87.87,0,0,0,.78-.51l0-.08a.38.38,0,0,1,.14-.23l.09,0,.16,0,.16,0h0a1.12,1.12,0,0,0,.61-.27h0l.12-.08a1.88,1.88,0,0,1,.92-.32h.16l.41,0a1.13,1.13,0,0,1,.52.11,1.3,1.3,0,0,1,.5.73c0,.13.11.27.17.39l.09.15a1.13,1.13,0,0,1,.19.84,1.18,1.18,0,0,0,.1.72,1.84,1.84,0,0,0,.17.22.59.59,0,0,1,.19.29.32.32,0,0,1,0,.17,1.09,1.09,0,0,0,0,.18,1,1,0,0,0,.14.33l.42.71a.55.55,0,0,0,.48.23l.15,0a1.18,1.18,0,0,1,.28,0,.22.22,0,0,1,.2.08l0,.05a.27.27,0,0,0,.13.13l.09,0a.35.35,0,0,0,.14,0l.1,0h0a.26.26,0,0,1,.11.08s0,0,.05,0a.62.62,0,0,0,.41.14,2.09,2.09,0,0,0,.36,0l.13,0a1.56,1.56,0,0,1,.31,0,5.27,5.27,0,0,1,.89.1,1.08,1.08,0,0,1,.53.18.85.85,0,0,1,.17.16.75.75,0,0,0,.35.26.32.32,0,0,0,.14,0,1,1,0,0,0,.47-.16l.09-.05.06,0h.07a.49.49,0,0,1,.18-.05h0a1.05,1.05,0,0,1,.51.2,1.55,1.55,0,0,0,.22.12,1.47,1.47,0,0,0,.65.15,1.58,1.58,0,0,0,.38,0l.08,0h0a.8.8,0,0,1,.26-.05h.05a.6.6,0,0,1,.22.09l.18.09.14,0a.39.39,0,0,0,.21-.06l0,0a.48.48,0,0,0,.28.1l.15,0a.41.41,0,0,0,.23-.28,2.34,2.34,0,0,0,1.56.88h.31s0,.06.06.11l0,0a.55.55,0,0,0,.38.29h.11a.52.52,0,0,0,.35-.13,1.06,1.06,0,0,0,.16-.21l.1-.15a.32.32,0,0,1,.2-.1h.06l.09,0a.19.19,0,0,0,.07-.11l.11-1.23a.61.61,0,0,1,.06-.24.47.47,0,0,1,.19-.14l.17-.11a.52.52,0,0,0,.18-.51.88.88,0,0,0-.05-.15s0-.08,0-.12a1,1,0,0,1,.05-.38,1.86,1.86,0,0,1,.24-.56.53.53,0,0,1,.41-.22h.07l0,0,.14,0h0c.17,0,.23-.2.28-.33l0,0a1.39,1.39,0,0,1,1.09-.72l.5-.06a3.4,3.4,0,0,0,1-.18.26.26,0,0,0,.17-.14.26.26,0,0,0,0-.21.43.43,0,0,1,0-.05.76.76,0,0,1,.16-.47.7.7,0,0,0,.15-.52.31.31,0,0,0,.13-.06A.36.36,0,0,0,59.43,47.82Z"/><path d="M37,28.14l-2.37-2.37,10.75-.86-.86,10.75L42.14,33.3C35,40.93,19.61,42.86,14.21,27.63,19.51,34.18,32,37.17,37,28.14ZM23,21.26l2.37,2.37-10.75.86.86-10.75,2.37,2.37c7.11-7.64,22.53-9.57,27.93,5.67C40.46,15.22,27.93,12.23,23,21.26Z"/></svg>