<svg xmlns="http://www.w3.org/2000/svg" viewBox="0 0 61.28 61.28" stroke="#808285"><path fill="none" stroke-width="1.5px" d="M33.4,33.68,21.82,39.46,27.6,27.89,29.26,32ZM54.08,7.2,29.26,32M57.05,11.24l-6.37-.64M47.28,14l6.37.64,6.8-6.8L54.08,7.2ZM50,4.23l.64,6.37M47.28,14l-.64-6.37,6.8-6.8.64,6.37ZM27.08,39.93a5.11,5.11,0,1,1-6-5.68m12.49,2.82a12.25,12.25,0,0,1,.2,2.2A11.72,11.72,0,1,1,22,27.55a11.91,11.91,0,0,1,2,.17m12.72.62a18.34,18.34,0,1,1-3.8-3.79M39,26.64a21.12,21.12,0,1,1-4.38-4.39"/></svg>