<svg xmlns="http://www.w3.org/2000/svg" viewBox="0 0 40.09 40.16" stroke="#808285"><path fill="none" stroke-width="1.25px" d="M31.77,31.67a15.72,15.72,0,0,1-1.9,1.65A16.48,16.48,0,1,1,36.4,17.9c1.36,9.53-9.76,10.72-8.71,5L29.55,11.8l-2.91-.53L25.91,16a7.58,7.58,0,0,0-6.17-5.18C15.52,10.36,11.68,14,11.18,19s2.5,9.31,6.72,9.74A7.59,7.59,0,0,0,25,24.83a5.67,5.67,0,0,0,5,3.92c6,.8,10.2-5,9.37-11.25a19.54,19.54,0,1,0-7.74,18.28,19.91,19.91,0,0,0,2.25-2A15.61,15.61,0,0,0,35.5,32a13,13,0,0,0,1-1.63M18.58,26.09a2.88,2.88,0,0,1-.41,0A4.51,4.51,0,0,1,15,24a7.18,7.18,0,0,1-1.14-4.79c.34-3.28,2.64-5.84,5.25-5.84l.41,0a4.5,4.5,0,0,1,3.22,2.05,7.1,7.1,0,0,1,1.14,4.79C23.49,23.53,21.19,26.09,18.58,26.09Z"/></svg>