<svg xmlns="http://www.w3.org/2000/svg" viewBox="0 0 52.6 38.26" fill="#FFFFFF"><path d="M13.13,36.21H3.21V26.52l9.92-8Zm.39-20.65-12,9.66a1,1,0,0,0-.38.81V37.24a1,1,0,0,0,1,1h12a1,1,0,0,0,1-1V16.36a1,1,0,0,0-.58-.93,1,1,0,0,0-1.09.13"/><path d="M30.53,36.21H20.6V12.68l1.9-1.19,8,8.38ZM22.12,9.3,19,11.24a1,1,0,0,0-.48.87V37.24a1,1,0,0,0,1,1h12a1,1,0,0,0,1-1V19.45a1.05,1.05,0,0,0-.29-.71L23.41,9.47a1,1,0,0,0-1.29-.17"/><path d="M43.89,36.82H37.47V20.24l6.42-6.42Zm.21-25.25-7.86,7.86a.74.74,0,0,0-.21.51v17.6a.72.72,0,0,0,.72.72h7.86a.72.72,0,0,0,.72-.72V12.08a.74.74,0,0,0-.45-.67.72.72,0,0,0-.78.16"/><path d="M50.85.23l-17,12.5L24,2.37a1.23,1.23,0,0,0-1.47-.19L.54,17.46c-1.27.88-.06,3,1.22,2.09L23,4.81Q27.9,10,32.86,15.18a1.2,1.2,0,0,0,1.46.19l17.75-13c1.25-.91,0-3-1.22-2.09"/></svg>