<svg xmlns="http://www.w3.org/2000/svg" viewBox="0 0 67.21 65.34" fill="#FFFFFF"><path d="M5.94,43.32H61.28V11.37H5.94Zm55.89,1.11H5.39a.55.55,0,0,1-.55-.55V10.82a.55.55,0,0,1,.55-.55H61.83a.56.56,0,0,1,.56.55V43.88a.56.56,0,0,1-.56.55"/><path d="M1.11,10.27h65V6.62h-65Zm65.55,1.1H.55A.55.55,0,0,1,0,10.82V6.06a.55.55,0,0,1,.55-.55H66.66a.55.55,0,0,1,.55.55v4.76a.55.55,0,0,1-.55.55"/><path d="M45.15,38.25H48v-19H45.15Zm3.41,1.11h-4a.55.55,0,0,1-.55-.55V18.68a.54.54,0,0,1,.55-.55h4a.55.55,0,0,1,.56.55V38.81a.56.56,0,0,1-.56.55"/><path d="M38.67,38.25h2.85V21.72H38.67Zm3.41,1.11h-4a.55.55,0,0,1-.55-.55V21.17a.55.55,0,0,1,.55-.55h4a.55.55,0,0,1,.55.55V38.81a.55.55,0,0,1-.55.55"/><path d="M32.18,38.25H35V24.15H32.18Zm3.41,1.11h-4a.55.55,0,0,1-.55-.55V23.6a.54.54,0,0,1,.55-.55h4a.55.55,0,0,1,.56.55V38.81a.56.56,0,0,1-.56.55"/><path d="M25.69,38.25h2.86V27.53H25.69Zm3.42,1.11h-4a.55.55,0,0,1-.55-.55V27a.55.55,0,0,1,.55-.55h4a.55.55,0,0,1,.55.55V38.81a.55.55,0,0,1-.55.55"/><path d="M19.21,38.25h2.86v-7.2H19.21Zm3.41,1.11h-4a.56.56,0,0,1-.56-.55V30.5a.55.55,0,0,1,.56-.55h4a.55.55,0,0,1,.55.55v8.31a.55.55,0,0,1-.55.55"/><path d="M51.26,41.81H16a.55.55,0,0,1-.55-.55.55.55,0,0,1,.55-.55h35.3a.55.55,0,0,1,.55.55.55.55,0,0,1-.55.55"/><path d="M18.67,27.54a.55.55,0,0,1-.52-.37.54.54,0,0,1,.33-.7c.15-.06,14.91-5.43,21.39-13a.55.55,0,0,1,.78-.06.56.56,0,0,1,.06.78C34,22,19.47,27.28,18.85,27.51a.57.57,0,0,1-.18,0"/><path d="M40.21,17.79a.55.55,0,0,1-.55-.55V14.51H37.09a.55.55,0,1,1,0-1.1l3.13,0a.58.58,0,0,1,.39.16.57.57,0,0,1,.16.39v3.29a.55.55,0,0,1-.55.55"/><path d="M32,5.51H35.2V2.7A1.59,1.59,0,1,0,32,2.7Zm3.74,1.11H31.47a.56.56,0,0,1-.56-.56V2.7a2.7,2.7,0,1,1,5.4,0V6.06a.56.56,0,0,1-.55.56"/><path d="M11.35,51.56a3.3,3.3,0,0,0,3.3-1.28.55.55,0,0,1,.37-.22.58.58,0,0,1,.42.12,3.43,3.43,0,0,0,2.16.74,3.35,3.35,0,0,0-6.25.64m-.09,1.11a3.34,3.34,0,0,0,6.67-.28,2.42,2.42,0,0,0,0-.38,4.35,4.35,0,0,1-2.73-.66,4.39,4.39,0,0,1-3.92,1.32m3.33,4.15A4.44,4.44,0,1,1,19,52.39a4.44,4.44,0,0,1-4.45,4.43m14.94-5.26a3.35,3.35,0,0,0,3.31-1.28.55.55,0,0,1,.37-.22.59.59,0,0,1,.42.12,3.29,3.29,0,0,0,2.15.74,3.35,3.35,0,0,0-6.25.64m-.09,1.11a3.34,3.34,0,0,0,6.67-.28,2.42,2.42,0,0,0,0-.38,4.34,4.34,0,0,1-2.72-.66,4.45,4.45,0,0,1-3.93,1.32m3.33,4.15a4.44,4.44,0,1,1,4.28-5.64.19.19,0,0,1,0,.1v0a4.68,4.68,0,0,1,.13,1.07,4.45,4.45,0,0,1-4.45,4.43m16.41-5.26a3.3,3.3,0,0,0,3.29-1.28.57.57,0,0,1,.38-.22.56.56,0,0,1,.41.12,3.47,3.47,0,0,0,2.16.74,3.34,3.34,0,0,0-6.24.64m-.09,1.11a3.34,3.34,0,0,0,6.67-.28c0-.13,0-.25,0-.38A4.34,4.34,0,0,1,53,51.35a4.41,4.41,0,0,1-3.92,1.32m3.33,4.15a4.44,4.44,0,1,1,4.44-4.43,4.45,4.45,0,0,1-4.44,4.43M21.84,65.34a.54.54,0,0,1-.55-.55V62.24a3.6,3.6,0,0,0-3.6-3.59h-6a3.59,3.59,0,0,0-3.59,3.59v2.55a.56.56,0,0,1-1.11,0V62.24a4.71,4.71,0,0,1,4.7-4.7h6a4.71,4.71,0,0,1,4.7,4.7v2.55a.54.54,0,0,1-.55.55m18.18,0a.55.55,0,0,1-.55-.55V62.24a3.6,3.6,0,0,0-3.6-3.59h-6a3.59,3.59,0,0,0-3.59,3.59v2.55a.56.56,0,0,1-1.11,0V62.24a4.71,4.71,0,0,1,4.7-4.7h6a4.71,4.71,0,0,1,4.7,4.7v2.55a.54.54,0,0,1-.55.55m19.65,0a.55.55,0,0,1-.56-.55V62.24a3.59,3.59,0,0,0-3.59-3.59h-6a3.6,3.6,0,0,0-3.6,3.59v2.55a.55.55,0,0,1-.55.55.54.54,0,0,1-.55-.55V62.24a4.71,4.71,0,0,1,4.7-4.7h6a4.71,4.71,0,0,1,4.7,4.7v2.55a.55.55,0,0,1-.55.55"/>J</svg>