<svg xmlns="http://www.w3.org/2000/svg" viewBox="0 0 43.14 43.14" stroke="#808285"><path fill="none" stroke-width="1.5px" d="M32.94,15.85A77.06,77.06,0,0,1,18.43,30.36c-2.76,2.07-8.48-2.24-7.06-3.66l4.5-4.5a1.18,1.18,0,0,1,1.67,0A3.67,3.67,0,0,1,19,24.74a34.24,34.24,0,0,0,7.7-7.69,3.72,3.72,0,0,1-2.54-1.45,1.18,1.18,0,0,1,0-1.67L29.05,9C30.86,7.21,34.68,13.61,32.94,15.85ZM4.3,28.69.58,42.56l13.88-3.72A20,20,0,1,0,4.3,28.69Zm6.49-19.9a16.66,16.66,0,1,1,0,23.56A16.67,16.67,0,0,1,10.79,8.79Z"/></svg>