<svg xmlns="http://www.w3.org/2000/svg" viewBox="0 0 64.74 69.9" fill="#FFFFFF"><path d="M23.53,38.52a7.86,7.86,0,1,0,7.85,7.85,7.86,7.86,0,0,0-7.85-7.85m0,16.86a9,9,0,1,1,9-9,9,9,0,0,1-9,9M22.38,68.75h2.3l.88-5.86a.58.58,0,0,1,.49-.48,15.61,15.61,0,0,0,3.33-.89.58.58,0,0,1,.65.18l3.69,4.63,2-1.15-2.16-5.52a.58.58,0,0,1,.17-.65,16.55,16.55,0,0,0,2.44-2.44.58.58,0,0,1,.66-.18l5.52,2.17,1.14-2-4.62-3.68a.57.57,0,0,1-.18-.66,16.6,16.6,0,0,0,.9-3.33.56.56,0,0,1,.48-.48l5.85-.88V45.22l-5.85-.88a.58.58,0,0,1-.49-.48,16.27,16.27,0,0,0-.89-3.33.57.57,0,0,1,.18-.66l4.63-3.69-1.15-2-5.52,2.17a.58.58,0,0,1-.66-.18,15.51,15.51,0,0,0-2.43-2.43.58.58,0,0,1-.18-.66l2.16-5.52-2-1.15L30,31.05a.56.56,0,0,1-.65.18,15.84,15.84,0,0,0-3.34-.9.58.58,0,0,1-.48-.48L24.68,24h-2.3l-.88,5.86a.57.57,0,0,1-.48.48,15.84,15.84,0,0,0-3.34.9.56.56,0,0,1-.65-.18l-3.69-4.64-2,1.16,2.17,5.52a.58.58,0,0,1-.18.66,15.51,15.51,0,0,0-2.43,2.43.57.57,0,0,1-.66.18L4.72,34.19l-1.15,2,4.64,3.69a.59.59,0,0,1,.17.66,16.18,16.18,0,0,0-.89,3.33.58.58,0,0,1-.48.48l-5.86.88v2.31L7,48.41a.58.58,0,0,1,.48.48,16,16,0,0,0,.89,3.33.57.57,0,0,1-.18.66L3.57,56.56l1.15,2,5.52-2.17a.57.57,0,0,1,.66.18A16.55,16.55,0,0,0,13.34,59a.58.58,0,0,1,.17.66l-2.17,5.51,2,1.15L17,61.7a.56.56,0,0,1,.65-.18,15.61,15.61,0,0,0,3.33.89.58.58,0,0,1,.49.48Zm2.8,1.15h-3.3a.57.57,0,0,1-.56-.49l-.9-5.93a17.44,17.44,0,0,1-2.75-.74l-3.74,4.69a.58.58,0,0,1-.74.14l-2.85-1.64a.58.58,0,0,1-.25-.71l2.2-5.59a17.43,17.43,0,0,1-2-2L4.68,59.81a.57.57,0,0,1-.7-.25L2.33,56.71A.57.57,0,0,1,2.47,56l4.69-3.73a19.31,19.31,0,0,1-.74-2.76L.49,48.59A.57.57,0,0,1,0,48v-3.3a.58.58,0,0,1,.49-.57l5.93-.88a19.31,19.31,0,0,1,.74-2.76L2.47,36.77A.57.57,0,0,1,2.33,36L4,33.18a.56.56,0,0,1,.7-.24l5.59,2.19a16.67,16.67,0,0,1,2-2l-2.2-5.59a.58.58,0,0,1,.25-.71l2.85-1.65a.58.58,0,0,1,.74.14L17.67,30a17.16,17.16,0,0,1,2.75-.74l.9-5.94a.57.57,0,0,1,.56-.49h3.3a.57.57,0,0,1,.56.49l.9,5.94A17.56,17.56,0,0,1,29.4,30l3.73-4.7a.58.58,0,0,1,.74-.14l2.85,1.65a.57.57,0,0,1,.24.71l-2.19,5.59a16.68,16.68,0,0,1,2,2l5.59-2.19a.58.58,0,0,1,.71.24L44.73,36a.58.58,0,0,1-.14.74L39.9,40.51a18.48,18.48,0,0,1,.74,2.76l5.93.89a.57.57,0,0,1,.48.57V48a.56.56,0,0,1-.48.57l-5.93.89a18.17,18.17,0,0,1-.74,2.76L44.59,56a.58.58,0,0,1,.14.74l-1.64,2.85a.58.58,0,0,1-.71.25l-5.59-2.19a17.44,17.44,0,0,1-2,2L37,65.22a.57.57,0,0,1-.24.71l-2.86,1.64a.57.57,0,0,1-.73-.14L29.4,62.74a17.86,17.86,0,0,1-2.76.74l-.9,5.93a.57.57,0,0,1-.56.49"/><path d="M23.53,33.37a.29.29,0,0,0,0,.58.28.28,0,0,0,.28-.29.29.29,0,0,0-.28-.29m0,1.72A1.44,1.44,0,1,1,25,33.66a1.44,1.44,0,0,1-1.43,1.43"/><path d="M29.88,35.08a.27.27,0,0,0-.24.14.29.29,0,0,0,0,.22.27.27,0,0,0,.13.17.3.3,0,0,0,.4-.1.25.25,0,0,0,0-.22.27.27,0,0,0-.13-.17.28.28,0,0,0-.15,0m0,1.72a1.45,1.45,0,0,1-.71-.19,1.42,1.42,0,0,1-.67-.88,1.39,1.39,0,0,1,.15-1.09,1.46,1.46,0,0,1,2-.51,1.38,1.38,0,0,1,.67.86,1.43,1.43,0,0,1-.14,1.09,1.47,1.47,0,0,1-1.25.72"/><path d="M34.54,39.73a.28.28,0,0,0-.15,0,.37.37,0,0,0-.13.17.31.31,0,0,0,0,.22.27.27,0,0,0,.39.11.31.31,0,0,0,.14-.18.31.31,0,0,0,0-.22.29.29,0,0,0-.25-.14m0,1.72a1.45,1.45,0,0,1-1.25-.72,1.47,1.47,0,0,1-.13-1.09,1.42,1.42,0,0,1,.66-.87,1.48,1.48,0,0,1,2,.53,1.41,1.41,0,0,1,.15,1.08,1.43,1.43,0,0,1-.68.88,1.35,1.35,0,0,1-.71.19"/><path d="M36.24,46.09a.28.28,0,0,0-.29.28.29.29,0,0,0,.58,0,.28.28,0,0,0-.29-.28m0,1.72a1.44,1.44,0,1,1,1.44-1.44,1.45,1.45,0,0,1-1.44,1.44"/><path d="M34.53,52.44a.24.24,0,0,0-.23.14.29.29,0,0,0,.1.4.29.29,0,0,0,.42-.32.28.28,0,0,0-.13-.17.37.37,0,0,0-.16-.05m0,1.73A1.44,1.44,0,0,1,33.3,52a1.47,1.47,0,0,1,2-.52,1.4,1.4,0,0,1,.66.86,1.37,1.37,0,0,1-.14,1.1,1.44,1.44,0,0,1-1.24.72"/><path d="M29.89,57.1a.28.28,0,0,0-.15,0,.27.27,0,0,0-.1.38.28.28,0,0,0,.39.11.27.27,0,0,0,.13-.18.23.23,0,0,0,0-.21.3.3,0,0,0-.25-.14m0,1.72a1.44,1.44,0,0,1-.73-2.68,1.44,1.44,0,0,1,2.12,1.61,1.45,1.45,0,0,1-1.39,1.07"/><path d="M23.53,58.8a.29.29,0,1,0,0,.57.28.28,0,0,0,.28-.29.29.29,0,0,0-.28-.28m0,1.72A1.44,1.44,0,1,1,25,59.08a1.44,1.44,0,0,1-1.43,1.44"/><path d="M17.17,58.82a1.52,1.52,0,0,1-.72-.19,1.38,1.38,0,0,1-.66-.87,1.46,1.46,0,0,1,.14-1.1,1.44,1.44,0,0,1,2.63.36,1.41,1.41,0,0,1-.14,1.08,1.47,1.47,0,0,1-1.25.72"/><path d="M17.17,36.8A1.44,1.44,0,0,1,15.79,35a1.41,1.41,0,0,1,.67-.86,1.49,1.49,0,0,1,2,.52,1.43,1.43,0,0,1,.14,1.09,1.45,1.45,0,0,1-.67.88,1.52,1.52,0,0,1-.72.19"/><path d="M49.17,10.64a4.93,4.93,0,1,0,4.93,4.93,4.94,4.94,0,0,0-4.93-4.93m0,11a6.08,6.08,0,1,1,6.08-6.08,6.09,6.09,0,0,1-6.08,6.08M48.59,30h1.17l.55-3.65a.56.56,0,0,1,.47-.48,10.86,10.86,0,0,0,2.15-.58.6.6,0,0,1,.65.18l2.3,2.89,1-.58-1.36-3.44a.56.56,0,0,1,.18-.65,11.58,11.58,0,0,0,1.56-1.57.57.57,0,0,1,.66-.17l3.44,1.34.58-1L59.06,20a.58.58,0,0,1-.18-.66,9.92,9.92,0,0,0,.58-2.14.57.57,0,0,1,.48-.48l3.65-.55V15l-3.65-.55a.56.56,0,0,1-.48-.48,9.68,9.68,0,0,0-.58-2.13.57.57,0,0,1,.18-.66L62,8.86l-.58-1L57.93,9.21A.59.59,0,0,1,57.27,9a10.53,10.53,0,0,0-1.56-1.57.58.58,0,0,1-.18-.66l1.36-3.44-1-.58-2.3,2.89a.56.56,0,0,1-.65.18,10.48,10.48,0,0,0-2.15-.57.57.57,0,0,1-.47-.48l-.55-3.66H48.59L48,4.81a.58.58,0,0,1-.48.48,10.56,10.56,0,0,0-2.14.57.56.56,0,0,1-.65-.18l-2.3-2.89-1,.58,1.35,3.44a.59.59,0,0,1-.17.66A10.59,10.59,0,0,0,41.07,9a.57.57,0,0,1-.65.17L37,7.86l-.58,1,2.89,2.31a.57.57,0,0,1,.18.66A9.67,9.67,0,0,0,38.89,14a.57.57,0,0,1-.49.48L34.75,15v1.16l3.65.55a.58.58,0,0,1,.49.48,9.91,9.91,0,0,0,.57,2.14.58.58,0,0,1-.18.66l-2.89,2.3.58,1,3.45-1.35a.56.56,0,0,1,.65.17,11.09,11.09,0,0,0,1.57,1.57.57.57,0,0,1,.17.65l-1.35,3.44,1,.59,2.3-2.9a.59.59,0,0,1,.65-.18,10.58,10.58,0,0,0,2.14.58.57.57,0,0,1,.48.48Zm1.66,1.15H48.09a.56.56,0,0,1-.56-.48L47,26.92a14.21,14.21,0,0,1-1.55-.42l-2.35,3a.58.58,0,0,1-.74.14l-1.87-1.08a.57.57,0,0,1-.24-.71l1.38-3.52a11,11,0,0,1-1.14-1.13l-3.52,1.38a.57.57,0,0,1-.71-.25l-1.07-1.87a.57.57,0,0,1,.14-.73l3-2.35a13.25,13.25,0,0,1-.42-1.56l-3.73-.57a.57.57,0,0,1-.49-.56V14.5a.57.57,0,0,1,.49-.57l3.73-.56a12.74,12.74,0,0,1,.42-1.56l-3-2.36a.57.57,0,0,1-.14-.73l1.07-1.86a.58.58,0,0,1,.71-.25L40.45,8a12.27,12.27,0,0,1,1.14-1.14L40.21,3.33a.58.58,0,0,1,.24-.71l1.87-1.07a.57.57,0,0,1,.74.14l2.35,2.95A11.79,11.79,0,0,1,47,4.23L47.53.49A.57.57,0,0,1,48.09,0h2.16a.57.57,0,0,1,.57.49l.56,3.74a11.93,11.93,0,0,1,1.56.41l2.35-2.95A.57.57,0,0,1,56,1.55l1.86,1.08a.57.57,0,0,1,.25.7L56.75,6.85A12.27,12.27,0,0,1,57.89,8l3.52-1.38a.58.58,0,0,1,.71.25l1.07,1.86a.56.56,0,0,1-.14.74L60.1,11.81a9.94,9.94,0,0,1,.42,1.56l3.73.56a.57.57,0,0,1,.49.57v2.15a.57.57,0,0,1-.49.56l-3.73.57a11.55,11.55,0,0,1-.42,1.56l2.95,2.35a.56.56,0,0,1,.14.74l-1.07,1.86a.58.58,0,0,1-.71.24l-3.52-1.37a11,11,0,0,1-1.14,1.13l1.39,3.52a.58.58,0,0,1-.25.71L56,29.6a.59.59,0,0,1-.74-.14l-2.35-3a13.79,13.79,0,0,1-1.56.42l-.56,3.74a.56.56,0,0,1-.57.48"/></svg>