<svg xmlns="http://www.w3.org/2000/svg" viewBox="0 0 63.48 58.15" fill="#FFFFFF"><path d="M63,47.68H48.33a.52.52,0,0,1,0-1H62.44V1H1v45.6h14.1a.52.52,0,0,1,0,1H.52A.52.52,0,0,1,0,47.16V.52A.52.52,0,0,1,.52,0H63a.52.52,0,0,1,.52.52V47.16a.52.52,0,0,1-.52.52"/><path d="M62.53,11.35H25a.46.46,0,0,1-.28-.08L20.16,8.34H1.05a.52.52,0,1,1,0-1H20.31a.6.6,0,0,1,.29.08l4.54,2.93H62.53a.52.52,0,0,1,0,1"/><path d="M53.27,6.51H51.2a.53.53,0,0,1,0-1h2.07a.53.53,0,0,1,0,1"/><path d="M56.73,6.51H54.67a.53.53,0,1,1,0-1h2.06a.53.53,0,0,1,0,1"/><path d="M60.19,6.51H58.13a.53.53,0,1,1,0-1h2.06a.53.53,0,0,1,0,1"/><path d="M31.74,46.51a7.28,7.28,0,0,1-7.27-7.27.52.52,0,0,1,1,0,6.23,6.23,0,0,0,12.46,0,.52.52,0,0,1,1,0,7.28,7.28,0,0,1-7.27,7.27m1.32,11.64H30.42a.52.52,0,0,1-.51-.45L29.2,53a14.65,14.65,0,0,1-2.14-.56l-3,3.72a.54.54,0,0,1-.67.13L21.14,55a.53.53,0,0,1-.22-.65l1.74-4.43a14.36,14.36,0,0,1-1.56-1.56l-4.43,1.74a.53.53,0,0,1-.65-.22L14.7,47.55a.54.54,0,0,1,.13-.67l3.72-3A16.08,16.08,0,0,1,18,41.78l-4.7-.71a.52.52,0,0,1-.45-.51V39.24a.52.52,0,0,1,.52-.52.52.52,0,0,1,.52.52v.87l4.64.7a.51.51,0,0,1,.44.44,13.61,13.61,0,0,0,.71,2.66.53.53,0,0,1-.16.59l-3.67,2.92.87,1.51,4.37-1.72a.51.51,0,0,1,.59.15,12.84,12.84,0,0,0,1.95,2,.53.53,0,0,1,.16.6l-1.72,4.37,1.51.87,2.92-3.67a.53.53,0,0,1,.6-.16,13.15,13.15,0,0,0,2.65.71.51.51,0,0,1,.44.43l.7,4.64h1.74l.7-4.64a.51.51,0,0,1,.44-.43,13,13,0,0,0,2.65-.71.53.53,0,0,1,.6.16l2.92,3.67,1.51-.87-1.72-4.37a.52.52,0,0,1,.16-.6,12.84,12.84,0,0,0,2-2,.51.51,0,0,1,.59-.15l4.37,1.72.87-1.51L44,44.5a.53.53,0,0,1-.16-.6,12.39,12.39,0,0,0,.72-2.65.51.51,0,0,1,.43-.44l4.64-.7v-.87a.53.53,0,0,1,1,0v1.32a.52.52,0,0,1-.45.51l-4.71.71a13.24,13.24,0,0,1-.57,2.14l3.73,3a.52.52,0,0,1,.12.67l-1.31,2.29a.53.53,0,0,1-.65.22l-4.43-1.74a15.31,15.31,0,0,1-1.56,1.56l1.74,4.43a.53.53,0,0,1-.23.65l-2.28,1.32a.54.54,0,0,1-.67-.13l-3-3.72a14.33,14.33,0,0,1-2.14.56l-.71,4.71a.52.52,0,0,1-.51.45"/><path d="M55.85,39.76H7.63a.52.52,0,1,1,0-1H55.85a.52.52,0,1,1,0,1"/><path d="M40.83,17.65H15.33a.52.52,0,0,1,0-1h25.5a.52.52,0,0,1,0,1"/><path d="M48.14,17.65H44a.52.52,0,1,1,0-1h4.15a.52.52,0,0,1,0,1"/><path d="M35.42,21.75H15.33a.53.53,0,0,1,0-1.05H35.42a.53.53,0,1,1,0,1.05"/><path d="M48.14,21.75H44a.53.53,0,0,1,0-1.05h4.15a.53.53,0,0,1,0,1.05"/><path d="M40.94,21.75H38a.53.53,0,0,1,0-1.05h2.9a.53.53,0,0,1,0,1.05"/><path d="M48.14,25.46H28.05a.52.52,0,1,1,0-1H48.14a.52.52,0,0,1,0,1"/><path d="M19.48,25.46H15.33a.52.52,0,0,1,0-1h4.15a.52.52,0,0,1,0,1"/><path d="M25.43,25.46H22.54a.52.52,0,0,1,0-1h2.89a.52.52,0,0,1,0,1"/><path d="M48.14,29.5H23a.53.53,0,0,1,0-1.05H48.14a.53.53,0,0,1,0,1.05"/><path d="M19.48,29.5H15.33a.53.53,0,0,1,0-1.05h4.15a.53.53,0,0,1,0,1.05"/><path d="M35.42,33.45H15.34a.52.52,0,0,1,0-1H35.42a.52.52,0,1,1,0,1"/><path d="M48.14,33.45H44a.52.52,0,0,1,0-1h4.15a.52.52,0,1,1,0,1"/><path d="M40.94,33.45H38a.52.52,0,0,1,0-1h2.9a.52.52,0,1,1,0,1"/>J</svg>