<svg xmlns="http://www.w3.org/2000/svg" viewBox="0 0 61.78 56.51" fill="#FFFFFF"><path d="M5.46,39.82H56.33V10.46H5.46Zm51.37,1H5a.51.51,0,0,1-.51-.51V10A.51.51,0,0,1,5,9.44H56.83a.51.51,0,0,1,.51.51V40.33a.51.51,0,0,1-.51.51"/><path d="M1,9.44H60.77V6.08H1Zm60.27,1H.51A.51.51,0,0,1,0,10V5.57a.5.5,0,0,1,.51-.5H61.28a.5.5,0,0,1,.5.5V10a.5.5,0,0,1-.5.51"/><path d="M18.71,54.38l.9.9L27.7,47.2a.54.54,0,0,1,.36-.14H34a.5.5,0,0,1,.35.14l8.09,8.08.9-.9-8.12-8.12A.48.48,0,0,1,35,45.9V40.84h-8.3v5.31a.55.55,0,0,1-.15.36Zm23.7,2.13a.51.51,0,0,1-.36-.15l-8.29-8.29H28.27L20,56.36a.5.5,0,0,1-.71,0l-1.63-1.62a.51.51,0,0,1-.15-.35.51.51,0,0,1,.15-.36l8.09-8.09V40.33a.51.51,0,0,1,.51-.51h9.32a.5.5,0,0,1,.5.51v5.36L44.39,54a.51.51,0,0,1,.15.35.51.51,0,0,1-.15.36l-1.62,1.62a.51.51,0,0,1-.36.15"/><path d="M41.49,35.15h2.64V17.67H41.49Zm3.15,1H41a.51.51,0,0,1-.51-.51V17.16a.51.51,0,0,1,.51-.51h3.65a.5.5,0,0,1,.5.51v18.5a.5.5,0,0,1-.5.51"/><path d="M35.54,35.15h2.63V20H35.54Zm3.14,1H35a.51.51,0,0,1-.51-.51V19.46A.51.51,0,0,1,35,19h3.65a.5.5,0,0,1,.5.51v16.2a.5.5,0,0,1-.5.51"/><path d="M29.58,35.15h2.63v-13H29.58Zm3.13,1H29.07a.51.51,0,0,1-.51-.51v-14a.51.51,0,0,1,.51-.51h3.64a.51.51,0,0,1,.51.51v14a.51.51,0,0,1-.51.51"/><path d="M23.62,35.15h2.62V25.3H23.62Zm3.13,1H23.11a.51.51,0,0,1-.51-.51V24.79a.51.51,0,0,1,.51-.51h3.64a.51.51,0,0,1,.51.51V35.66a.51.51,0,0,1-.51.51"/><path d="M17.65,35.15h2.63V28.54H17.65Zm3.14,1H17.15a.51.51,0,0,1-.51-.51V28a.51.51,0,0,1,.51-.51h3.64a.51.51,0,0,1,.51.51v7.63a.51.51,0,0,1-.51.51"/><path d="M47.11,38.43H14.66a.51.51,0,0,1,0-1H47.11a.51.51,0,0,1,0,1"/><path d="M17.15,25.31a.51.51,0,0,1-.47-.33.5.5,0,0,1,.3-.65c.14,0,13.71-5,19.66-11.92a.52.52,0,0,1,.72-.06.51.51,0,0,1,0,.72c-6.13,7.13-19.52,12-20.08,12.21a.57.57,0,0,1-.18,0"/><path d="M37,16.35a.51.51,0,0,1-.51-.51V13.33H34.09a.51.51,0,0,1,0-1H37a.51.51,0,0,1,.36.15.51.51,0,0,1,.15.36v3a.51.51,0,0,1-.51.51"/><path d="M29.42,5.07h2.94V2.48a1.47,1.47,0,0,0-2.94,0Zm3.44,1H28.91a.5.5,0,0,1-.5-.51V2.48a2.48,2.48,0,1,1,5,0V5.57a.51.51,0,0,1-.51.51"/>jj</svg>