<svg xmlns="http://www.w3.org/2000/svg" viewBox="0 0 52.78 65.66" fill="#FFFFFF"><path d="M13.29,29.57h26.2V20.45L30.76,17l-4.17,3.73a.53.53,0,0,1-.73,0L22,17l-8.71,3.42ZM40,30.65H12.75a.54.54,0,0,1-.53-.54v-10a.53.53,0,0,1,.34-.5l9.37-3.68a.54.54,0,0,1,.57.11l3.75,3.61,4-3.62a.52.52,0,0,1,.56-.1l9.37,3.68a.54.54,0,0,1,.35.5v10a.54.54,0,0,1-.54.54"/><path d="M35.43,30.63H17.35a.54.54,0,0,1-.54-.54V23.8a.54.54,0,0,1,1.08,0v5.75h17V23.8a.54.54,0,0,1,1.08,0v6.29a.54.54,0,0,1-.54.54"/><path d="M30.9,21.75h-9a.54.54,0,0,1-.54-.54V16.4a.54.54,0,0,1,.54-.54.54.54,0,0,1,.54.54v4.27h7.94V16.4a.54.54,0,0,1,1.08,0v4.81a.54.54,0,0,1-.54.54"/><path d="M25.57,23.81h1.64V21.75H25.57Zm2.18,1.08H25a.54.54,0,0,1-.54-.54V21.21a.55.55,0,0,1,.54-.54h2.72a.55.55,0,0,1,.54.54v3.14a.54.54,0,0,1-.54.54"/><path d="M24.33,29.57H28.2l-.9-4.68H25.46Zm4.52,1.08H23.64a.53.53,0,0,1-.42-.2.54.54,0,0,1-.1-.46l1.39-5.76a.54.54,0,0,1,.52-.42h2.72a.55.55,0,0,1,.53.44L29.38,30a.56.56,0,0,1-.11.45.55.55,0,0,1-.42.19"/><path d="M26.51,1.08A6.22,6.22,0,1,0,32.74,7.3a6.23,6.23,0,0,0-6.23-6.22m0,13.52a7.3,7.3,0,1,1,7.31-7.3,7.32,7.32,0,0,1-7.31,7.3"/><path d="M31.64,6.29a7.82,7.82,0,0,1-4.77-1.5A.55.55,0,0,1,26.78,4a.53.53,0,0,1,.75-.1A7.22,7.22,0,0,0,33,5.09a.55.55,0,0,1,.63.44.55.55,0,0,1-.44.63,9.64,9.64,0,0,1-1.52.13"/><path d="M23,6.16a8.36,8.36,0,0,1-3-.54.54.54,0,1,1,.39-1A7.37,7.37,0,0,0,23,5.08c3,0,5.49-1.69,5.49-3.77a.54.54,0,1,1,1.08,0C29.52,4,26.57,6.16,23,6.16"/><path d="M4.29,52a3.39,3.39,0,0,0,.64.06,3.27,3.27,0,0,0,2.66-1.33.55.55,0,0,1,.77-.1,3.35,3.35,0,0,0,2.16.74A3.33,3.33,0,0,0,4.29,52m-.08,1.08a3.33,3.33,0,0,0,6.64-.28c0-.12,0-.25,0-.37a4.51,4.51,0,0,1-2.72-.65,4.34,4.34,0,0,1-3.18,1.36,4.2,4.2,0,0,1-.72-.06m3.31,4.13a4.4,4.4,0,1,1,4.41-4.41,4.41,4.41,0,0,1-4.41,4.41M22.33,52a3.39,3.39,0,0,0,.64.06,3.34,3.34,0,0,0,2.66-1.33.55.55,0,0,1,.77-.1,3.41,3.41,0,0,0,2.16.74,3.33,3.33,0,0,0-6.23.63m-.08,1.08a3.33,3.33,0,0,0,6.64-.28c0-.12,0-.25,0-.37a4.51,4.51,0,0,1-2.72-.65,4.51,4.51,0,0,1-3.9,1.3m3.31,4.13A4.4,4.4,0,1,1,30,52.81a4.41,4.41,0,0,1-4.41,4.41M41.82,52a3.34,3.34,0,0,0,3.3-1.27.5.5,0,0,1,.36-.21.55.55,0,0,1,.41.11,3.38,3.38,0,0,0,2.15.74,3.29,3.29,0,0,0-3-1.88A3.33,3.33,0,0,0,41.82,52m-.09,1.08a3.33,3.33,0,0,0,6.64-.28,2.3,2.3,0,0,0,0-.37,4.45,4.45,0,0,1-2.71-.65,4.45,4.45,0,0,1-3.91,1.3m3.32,4.13a4.4,4.4,0,1,1,4.4-4.41,4.42,4.42,0,0,1-4.4,4.41M14.71,65.66a.54.54,0,0,1-.54-.54V62.6A3.57,3.57,0,0,0,10.6,59H4.66A3.57,3.57,0,0,0,1.08,62.6v2.52a.54.54,0,0,1-1.08,0V62.6A4.66,4.66,0,0,1,4.66,58H10.6a4.65,4.65,0,0,1,4.65,4.65v2.52a.54.54,0,0,1-.54.54m18,0a.54.54,0,0,1-.54-.54V62.6A3.57,3.57,0,0,0,28.64,59H22.7a3.57,3.57,0,0,0-3.58,3.57v2.52a.54.54,0,0,1-1.08,0V62.6A4.66,4.66,0,0,1,22.7,58h5.94a4.65,4.65,0,0,1,4.65,4.65v2.52a.54.54,0,0,1-.54.54m19.49,0a.54.54,0,0,1-.54-.54V62.6A3.57,3.57,0,0,0,48.12,59H42.18A3.58,3.58,0,0,0,38.6,62.6v2.52a.54.54,0,0,1-.54.54.54.54,0,0,1-.54-.54V62.6A4.66,4.66,0,0,1,42.18,58h5.94a4.66,4.66,0,0,1,4.66,4.65v2.52a.54.54,0,0,1-.54.54"/><path d="M45.29,47.38a.54.54,0,0,1-.54-.54V39.42L8,39v7.65a.54.54,0,0,1-.54.54A.54.54,0,0,1,7,46.67v-8.2a.55.55,0,0,1,.16-.38.64.64,0,0,1,.39-.16l37.79.42a.54.54,0,0,1,.54.54v8a.54.54,0,0,1-.54.54"/><path d="M26.25,43.19a.54.54,0,0,1-.54-.54V30.11a.54.54,0,0,1,1.08,0V42.65a.54.54,0,0,1-.54.54"/></svg>