<svg xmlns="http://www.w3.org/2000/svg" viewBox="0 0 36.93 35.13" fill="#FFFFFF">
    <path d="M9.36,21.49l.55-.07a.86.86,0,0,1,.14.13.72.72,0,0,1,.14.52l-.33,2.47a1.37,1.37,0,0,0,.27,1.09,1.1,1.1,0,0,0,.66.35A1.35,1.35,0,0,0,12,26l2.3-1a.58.58,0,0,1,.26,0,.61.61,0,0,1,.28.33l0,.08L6.47,32.88l-.13-3.75a.53.53,0,0,0-.5-.52l-4-.33ZM7.17,20A.41.41,0,0,1,6.93,20v0a.45.45,0,0,1,.1-.21l1.44-2a1.92,1.92,0,0,0,.18-.31A1.73,1.73,0,0,0,8,15.23L5.87,13.9l-.14-.12h0l0-.06a.54.54,0,0,1,.2-.16L7,13l1.08-.55A1.73,1.73,0,0,0,9,11.37a1.68,1.68,0,0,0-.14-1.3l0-.06L7.58,7.85a.46.46,0,0,1-.07-.22v0l0,0a.68.68,0,0,1,.22,0H8.4l1.87,0A1.72,1.72,0,0,0,11.9,6.47s0,0,0-.06a1.89,1.89,0,0,0,.1-.63l-.1-2.49c0-.17,0-.24.06-.25a.41.41,0,0,1,.22.07l1.81,1,.39.22.08,0a1.66,1.66,0,0,0,.75.18A1.69,1.69,0,0,0,16.4,4a1.79,1.79,0,0,0,.38-.52l1.07-2.26s0-.08.06-.1L18,1.07h0l0,0,0,0a.38.38,0,0,1,.11.13l.94,1.4.45.67a1.9,1.9,0,0,0,.39.41A1.73,1.73,0,0,0,21,4.08a1.86,1.86,0,0,0,.33,0,1.77,1.77,0,0,0,.72-.31l.81-.62,1.18-.88a.68.68,0,0,1,.21-.11h0a.47.47,0,0,1,.08.24l.27,2.48a1.76,1.76,0,0,0,.7,1.22,1.74,1.74,0,0,0,1.31.31L29.11,6a.71.71,0,0,1,.25,0V6a.38.38,0,0,1,0,.23l-.91,2.33-.06.16s0,0,0,0a1.78,1.78,0,0,0,0,1l.08.2a1,1,0,0,0,.13.22,1.75,1.75,0,0,0,.89.69l1.77.59.6.2a.73.73,0,0,1,.19.1l0,0a.29.29,0,0,1-.06.1.46.46,0,0,1-.1.1l-1.18,1-.7.61a1.76,1.76,0,0,0-.61,1.23,1.73,1.73,0,0,0,.49,1.29l1.73,1.8a.46.46,0,0,1,.13.21h0a.53.53,0,0,1-.21.09l-2.43.57a1.76,1.76,0,0,0-1.11.81,2.55,2.55,0,0,0-.13.29h0a1.57,1.57,0,0,0-.08.31h0a1.18,1.18,0,0,0-.22,1l.69,2.39h0L25.87,23a1.57,1.57,0,0,0-.3,0h-.15l-.26,0H25.1l-.23.06-.09,0a.38.38,0,0,0-.13.06l-.17.09-.05,0a1.59,1.59,0,0,0-.24.2h0a1.72,1.72,0,0,0-.73,1.1L23,26.65a.54.54,0,0,0,0,.33l-.06,0h0l-.09-.07-1.85-1.68a1.44,1.44,0,0,0-.45-.29,1.65,1.65,0,0,0-.71-.17,1.8,1.8,0,0,0-.85.23,1.84,1.84,0,0,0-.25.17,1.48,1.48,0,0,0-.25.25L17,27.31l-.06.07-.06.05h0l-.06,0s0,0,0,0h0a.4.4,0,0,1-.12-.2l-.58-1.57a.55.55,0,0,0,.13-.57l0-.1a1.73,1.73,0,0,0-.94-1,1.57,1.57,0,0,0-.47-.13l-.28-.08h0l-.3,0a2.07,2.07,0,0,0-.35,0h0a2.24,2.24,0,0,0-.34.11l-2.2.94v-.07l.34-2.47A1.78,1.78,0,0,0,11.24,21a1.75,1.75,0,0,0-1.13-.62h0l-.18-.06a1.26,1.26,0,0,0-.27,0l-.84-.07ZM29.05,24.6l.09-.11a1.05,1.05,0,0,0,.24-.23,1.3,1.3,0,0,0,.16-1.18l-.22-.78,5.94,6.59-4.12.39a.53.53,0,0,0-.49.47l-.42,3.59-5.92-6.56.46-2.25a.85.85,0,0,1,.09-.22.67.67,0,0,1,.48-.06l2.42.63a1.31,1.31,0,0,0,1.29-.28M0,28.89a.54.54,0,0,0,.47.37l4.77.39.15,4.43a.55.55,0,0,0,.33.48.52.52,0,0,0,.21,0,.55.55,0,0,0,.37-.14l8.89-8,.42,1.17a1.23,1.23,0,0,0,1.13.91,1.34,1.34,0,0,0,1-.55l1.58-1.93a.67.67,0,0,1,.53-.25.66.66,0,0,1,.45.18l1.85,1.67a1.42,1.42,0,0,0,.93.41,1,1,0,0,0,.66-.24L30.23,35a.52.52,0,0,0,.4.18.45.45,0,0,0,.16,0,.53.53,0,0,0,.37-.45l.51-4.34,4.76-.44a.55.55,0,0,0,.46-.34.57.57,0,0,0-.1-.56l-7.91-8.76,0-.06a.7.7,0,0,1,.43-.32l2.43-.56a1.31,1.31,0,0,0,1-.85,1.29,1.29,0,0,0-.39-1.25l-1.73-1.8a.66.66,0,0,1-.19-.5.64.64,0,0,1,.24-.47l1.89-1.64a1.28,1.28,0,0,0,.5-1.21,1.3,1.3,0,0,0-.92-.93l-2.37-.79a.66.66,0,0,1-.41-.89l.91-2.32a1.32,1.32,0,0,0-.07-1.23,1.23,1.23,0,0,0-1.3-.46l-2.46.39a.66.66,0,0,1-.78-.59l-.28-2.48a1.18,1.18,0,0,0-1.13-1.19,1.41,1.41,0,0,0-.86.32l-2,1.5a.68.68,0,0,1-1-.17L19.07.64A1.31,1.31,0,0,0,18,0,1.25,1.25,0,0,0,16.9.81L15.82,3.06a.67.67,0,0,1-.93.3L12.7,2.18a1.23,1.23,0,0,0-1.51.13,1.32,1.32,0,0,0-.34,1L11,5.82a.69.69,0,0,1-.19.5.66.66,0,0,1-.5.21l-2.52,0a1.26,1.26,0,0,0-1.15.58,1.28,1.28,0,0,0,.08,1.3l1.24,2.16a.66.66,0,0,1,.07.53.68.68,0,0,1-.35.41L5.41,12.61a1.29,1.29,0,0,0-.77,1.06,1.27,1.27,0,0,0,.67,1.12l2.11,1.34a.63.63,0,0,1,.3.43.67.67,0,0,1-.11.53l-1.45,2A1.31,1.31,0,0,0,6,20.42a1.28,1.28,0,0,0,1.12.68l1,.08L.18,28.32a.53.53,0,0,0-.15.57"/>
</svg>