<svg xmlns="http://www.w3.org/2000/svg" viewBox="0 0 31.92 59.59" fill="#FFFFFF"><path d="M5.4,31.1c.46-.15,1-.27,1.47-.39l.64,5.76a21.65,21.65,0,0,1-2.11-.53c-2.79-.85-3.79-1.81-3.79-2.42S2.61,32,5.4,31.1M11,15.88l2.39,21.26c-.86,0-1.81-.11-2.94-.22a2.85,2.85,0,0,0-.49-.06H9.83l-.34,0-.43,0L6.76,16.35ZM7.71,11.51,9,11.36l1.14,2.52-3,.33ZM16,38.87c5.64,0,10.83-.94,13.64-2.46V54.34c-.13.83-1.63,1.74-4,2.44A36.4,36.4,0,0,1,15.84,58a36.42,36.42,0,0,1-9.74-1.2c-2.39-.7-3.89-1.61-4-2.45V36.27c2.72,1.58,8.13,2.6,13.89,2.6m0-9.1H16v7.49H16l-1.07,0-.83-7.42c.62,0,1.26-.05,1.9-.05m1.3-27.62a.92.92,0,0,1,.92-.91h8.45a.92.92,0,0,1,.92.91V8.48H24.14a.49.49,0,0,0-.39.17.54.54,0,0,0-.13.37.51.51,0,0,0,.52.53h3.41v2.17H24.14a.47.47,0,0,0-.39.18.5.5,0,0,0-.13.36.51.51,0,0,0,.52.53h3.41V15H24.14a.49.49,0,0,0-.39.17.5.5,0,0,0-.13.36.51.51,0,0,0,.52.54h3.41v2.17H21.68a.49.49,0,0,0-.39.17.53.53,0,0,0-.13.36.51.51,0,0,0,.52.54h5.87v2.17H24.14a.49.49,0,0,0-.39.17.54.54,0,0,0-.13.37.51.51,0,0,0,.52.53h3.41V24.7H24.14a.46.46,0,0,0-.39.17.5.5,0,0,0-.13.36.52.52,0,0,0,.52.54h3.41v2.17H24.14a.49.49,0,0,0-.39.17.55.55,0,0,0,.39.9h3.41v2.17H21.68a.49.49,0,0,0-.39.17.53.53,0,0,0-.13.36.51.51,0,0,0,.52.54h5.87v2.17H24.14a.49.49,0,0,0-.39.17.54.54,0,0,0-.13.37.51.51,0,0,0,.52.53h3.41v.13l-.88.26a14.88,14.88,0,0,1-2.43.6,3.18,3.18,0,0,0-.66.18,45.5,45.5,0,0,1-6.32.53ZM28.78,32c1.1.57,1.54,1.12,1.54,1.53s-.44.95-1.54,1.53ZM.48,55.27H.7c1.43,3,8.82,4.32,15.14,4.32S29.54,58.24,31,55.27h.24V35.21a2.53,2.53,0,0,0,.71-1.69c0-1.34-1.21-2.43-3.14-3.28V2.15A2.15,2.15,0,0,0,26.63,0H18.18A2.15,2.15,0,0,0,16,2.15v26H16c-.69,0-1.39,0-2.08,0l-1.5-13.38a1,1,0,0,0-.48-.73L8.54,6.71a.78.78,0,0,0-.78-.55.81.81,0,0,0-.65.71L5.48,14.8a.77.77,0,0,0-.16.19l0,0a1,1,0,0,0-.13.62L6.69,29.12C2.81,30,0,31.49,0,33.52a2.42,2.42,0,0,0,.46,1.37V54.46Z"/><path d="M22.41,4.36a.54.54,0,1,1-.54.53.53.53,0,0,1,.54-.53m0,2.31a1.78,1.78,0,1,0-.69-.14,1.74,1.74,0,0,0,.69.14"/>j</svg>