<svg xmlns="http://www.w3.org/2000/svg" viewBox="0 0 56.95 49.06" fill="none" stroke="#FFFFFF" stroke-width="0.94px" stroke-linejoin="round" stroke-linecap="round"><path d="M35.58,40.52c-8.37.62-10.06-4.86-20.38-.83L8.25,28.46a59,59,0,0,1,10.08-4.88c.45-.14.89-.25,1.3-.34A17.14,17.14,0,0,1,22.75,23c.92,0,1.94.05,3,.14.62.05,1.26.12,1.91.2,1,.13,2,.29,3,.49.66.14,1.31.28,1.95.45a21.73,21.73,0,0,1,2.89,1,10.82,10.82,0,0,1,1.89,1h0a4.07,4.07,0,0,1,2,2.65,2.51,2.51,0,0,1-.12,1.45,13.71,13.71,0,0,1,1.32-.94c.56-.37,1.18-.73,1.84-1.08,1-.51,2-1,3.07-1.45A27.58,27.58,0,0,1,51.83,25h.07c1.78-.24,4.41-.07,4.57,2.21C56.75,30.9,40.47,40.16,35.58,40.52ZM2.14,48.59.47,30.86l7.78-2.4,7,11.23.37,2.87Zm6.92-9.81A1.35,1.35,0,1,0,10.56,40,1.35,1.35,0,0,0,9.06,38.78ZM32.61,12.92V24.3c-.64-.17-1.29-.31-1.95-.45l0-.09v-7.2h-3v6.8c-.65-.08-1.29-.15-1.91-.2V20.37h-3V23a17.14,17.14,0,0,0-3.12.22c-.41.09-.85.2-1.3.34a16.8,16.8,0,0,1-.8-5.28A17.84,17.84,0,1,1,51.9,25h-.07a27.58,27.58,0,0,0-6.31,1.91l-.05-.11V7.61h-3V28.37c-.66.35-1.28.71-1.84,1.08l-.07-.11v-19h-3V26.09l-.14.19a10.82,10.82,0,0,0-1.89-1l.11-.27V12.92Zm7.93-2.61v19l.07.11a13.71,13.71,0,0,0-1.32.94,2.51,2.51,0,0,0,.12-1.45,4.07,4.07,0,0,0-2-2.65h0l.14-.19V10.31Zm1.91,18.06V7.61h3v19.2l.05.11C44.46,27.37,43.41,27.86,42.45,28.37ZM35.61,12.92V25l-.11.27a21.73,21.73,0,0,0-2.89-1V12.92ZM30.66,23.85c-1-.2-2-.36-3-.49v-6.8h3v7.2Zm-4.9-.69c-1.07-.09-2.09-.14-3-.14V20.37h3v2.79Z"/><path d="M18.34,23.63a.43.43,0,0,0,0-.05,16.8,16.8,0,0,1-.8-5.28A17.84,17.84,0,1,1,51.9,25h0M22.75,23.07v-2.7h3v2.75m1.91.2V16.56h3v7.2m1.91.56V12.92h3V25m1.92,1.07V10.31h3v19m1.91-1V7.61h3V26.8m-36.41,12a1.36,1.36,0,1,1-1.19,1.5A1.35,1.35,0,0,1,9.06,38.77Zm6.14.92.37,2.87-13.43,6L.47,30.86l7.78-2.4Zm0,0c10.32-4,12,1.45,20.38.83,4.89-.36,21.17-9.62,20.89-13.3-.16-2.29-2.79-2.45-4.57-2.21h-.07a27.58,27.58,0,0,0-6.31,1.91c-1.06.45-2.11.94-3.07,1.45-.66.35-1.28.71-1.84,1.08a13.71,13.71,0,0,0-1.32.94m-31-1.93a59,59,0,0,1,10.08-4.88c.46-.14.89-.25,1.3-.34A17.14,17.14,0,0,1,22.75,23c.92,0,1.94.05,3,.14.62.05,1.26.12,1.91.2,1,.13,2,.29,3,.49.67.14,1.31.28,1.94.45a21.4,21.4,0,0,1,2.9,1,10.82,10.82,0,0,1,1.89,1h0a4.11,4.11,0,0,1,2,2.66,2.51,2.51,0,0,1-.12,1.45c-1.38,3.25-10.74.49-12.64,0"/></svg>