<svg xmlns="http://www.w3.org/2000/svg" viewBox="0 0 54.97 64.94" fill="#FFFFFF"><path d="M8.91,1.07A4.1,4.1,0,1,0,13,5.17a4.11,4.11,0,0,0-4.1-4.1m0,9.26a5.17,5.17,0,1,1,5.17-5.16,5.17,5.17,0,0,1-5.17,5.16"/><path d="M16,26.27a2.08,2.08,0,0,1-2.08-2.07V22.33a.54.54,0,0,1,1.07,0V24.2a1,1,0,0,0,1,1,1.08,1.08,0,0,0,1-1.05V16.9a4.42,4.42,0,0,0-4.41-4.4H5.47a4.41,4.41,0,0,0-4.4,4.4v7.3a1,1,0,0,0,1,1,1,1,0,0,0,1-1V22.33a.54.54,0,0,1,1.07,0V24.2A2.08,2.08,0,0,1,0,24.2V16.9a5.48,5.48,0,0,1,5.47-5.47H12.6a5.48,5.48,0,0,1,5.47,5.47v7.3A2.13,2.13,0,0,1,16,26.27"/><path d="M14.45,29.18H3.62a.54.54,0,0,1-.53-.54V20.35a.54.54,0,0,1,1.07,0v7.76h9.76V20.35a.54.54,0,0,1,1.07,0v8.29a.54.54,0,0,1-.54.54"/><path d="M9,21.75a.54.54,0,0,1-.54-.54V14.85H7.28a.54.54,0,0,1-.54-.53.53.53,0,0,1,.54-.53H10.8a.53.53,0,0,1,.53.53.53.53,0,0,1-.53.53H9.57v6.36a.54.54,0,0,1-.53.54"/><path d="M39.18,36.84a4.1,4.1,0,1,0,4.1,4.1,4.1,4.1,0,0,0-4.1-4.1m0,9.26a5.17,5.17,0,1,1,5.17-5.16,5.17,5.17,0,0,1-5.17,5.16"/><path d="M36.06,41.22a5.27,5.27,0,0,1-1.67-.28.53.53,0,1,1,.35-1,3.93,3.93,0,0,0,1.32.22,4,4,0,0,0,3.28-1.64.5.5,0,0,1,.36-.21.52.52,0,0,1,.4.11,4.21,4.21,0,0,0,3.45.82.53.53,0,0,1,.22,1,5.28,5.28,0,0,1-3.91-.72,5.17,5.17,0,0,1-3.8,1.67"/><path d="M46.25,62A2.07,2.07,0,0,1,44.18,60V58.1a.54.54,0,1,1,1.07,0V60a1,1,0,0,0,1,1,1.08,1.08,0,0,0,1-1V52.67a4.41,4.41,0,0,0-4.41-4.4H35.73a4.41,4.41,0,0,0-4.4,4.4V60a1,1,0,0,0,1,1,1,1,0,0,0,1-1V58.1a.54.54,0,1,1,1.07,0V60a2.08,2.08,0,0,1-4.16,0v-7.3a5.48,5.48,0,0,1,5.47-5.47h7.13a5.48,5.48,0,0,1,5.47,5.47V60A2.12,2.12,0,0,1,46.25,62"/><path d="M44.72,64.94H33.88a.53.53,0,0,1-.53-.53V56.12a.54.54,0,1,1,1.07,0v7.76h9.76V56.12a.54.54,0,1,1,1.07,0v8.29a.53.53,0,0,1-.53.53"/><path d="M39.3,57.51a.54.54,0,0,1-.54-.53V50.62H37.55a.54.54,0,1,1,0-1.07h3.5a.54.54,0,1,1,0,1.07H39.83V57a.53.53,0,0,1-.53.53"/><path d="M24.7,25.07h4.84a.55.55,0,0,1,.41.19.53.53,0,0,1,.12.42l-1,6.59,8.41-7.07a.55.55,0,0,1,.34-.13h16V6.62H24.7Zm3.67,9a.54.54,0,0,1-.26-.07.51.51,0,0,1-.26-.54l1.07-7.36H24.17a.54.54,0,0,1-.54-.53V6.09a.54.54,0,0,1,.54-.54H54.43a.54.54,0,0,1,.54.54V25.61a.54.54,0,0,1-.54.53H38.06L28.72,34a.55.55,0,0,1-.35.12"/><path d="M42.93,9.91H29.59a.54.54,0,1,1,0-1.07H42.93a.54.54,0,0,1,0,1.07"/><path d="M49,9.91H45.66a.54.54,0,0,1,0-1.07H49a.54.54,0,0,1,0,1.07"/><path d="M5.86,5.45A4.91,4.91,0,0,1,4.2,5.17a.53.53,0,0,1-.34-.67.55.55,0,0,1,.68-.34,3.93,3.93,0,0,0,1.32.22A4.07,4.07,0,0,0,9.14,2.74a.54.54,0,0,1,.36-.21.51.51,0,0,1,.4.11,4.08,4.08,0,0,0,2.58.91,4,4,0,0,0,.86-.09.53.53,0,0,1,.22,1,4.7,4.7,0,0,1-1.08.12,5.23,5.23,0,0,1-2.82-.84,5.09,5.09,0,0,1-3.8,1.67"/><path d="M25.37,58h-17a.53.53,0,0,1-.54-.53V30.84a.54.54,0,0,1,1.07,0V57H25.37a.53.53,0,0,1,.53.53.53.53,0,0,1-.53.53"/><path d="M49,13H35.67a.54.54,0,0,1,0-1.07H49A.54.54,0,0,1,49,13"/><path d="M32.94,13H29.59a.54.54,0,1,1,0-1.07h3.35a.54.54,0,1,1,0,1.07"/><path d="M42.93,16H29.59a.53.53,0,0,1-.54-.53.54.54,0,0,1,.54-.53H42.93a.53.53,0,0,1,.53.53.53.53,0,0,1-.53.53"/><path d="M49,16H45.66a.53.53,0,0,1-.53-.53.53.53,0,0,1,.53-.53H49a.53.53,0,0,1,.53.53A.53.53,0,0,1,49,16"/><path d="M49,19.08H35.67a.54.54,0,0,1,0-1.07H49a.54.54,0,0,1,0,1.07"/><path d="M32.94,19.08H29.59a.54.54,0,1,1,0-1.07h3.35a.54.54,0,1,1,0,1.07"/><path d="M42.93,22.14H29.59a.54.54,0,1,1,0-1.07H42.93a.54.54,0,0,1,0,1.07"/><path d="M49,22.14H45.66a.54.54,0,0,1,0-1.07H49a.54.54,0,0,1,0,1.07"/></svg>