<svg xmlns="http://www.w3.org/2000/svg" viewBox="0 0 38.89 38.89" stroke="#808285"><path fill="none" stroke-width="1px" d="M13.6,26.52c2.18,0,3.94,2.44,5.8,2.44h7A1.68,1.68,0,0,0,28,27.81l3.08-9.26c1-3-3.92-4-8-4.73,0,0,.86-4,1.11-5.73s.41-3.46-2-3.46a1.86,1.86,0,0,0-1.52.56v2a6,6,0,0,1-.85,3.08A21.23,21.23,0,0,0,18.07,14c-1,1.32-1.78,2.59-4.62,2.59M11.16,27h-1a1.5,1.5,0,0,1-1.5-1.5v-7a1.5,1.5,0,0,1,1.5-1.5h1a1.5,1.5,0,0,1,1.5,1.5v7A1.5,1.5,0,0,1,11.16,27Zm.7,2H8.46a1.79,1.79,0,0,1-1.8-1.8V16.76A1.8,1.8,0,0,1,8.46,15h3.4a1.81,1.81,0,0,1,1.8,1.8v10.4A1.8,1.8,0,0,1,11.86,29Zm26.5-9.52A18.92,18.92,0,1,1,19.44.53,18.92,18.92,0,0,1,38.36,19.44Zm-2.52,0A16.4,16.4,0,1,1,19.44,3.05,16.4,16.4,0,0,1,35.84,19.44Z"/></svg>