<svg xmlns="http://www.w3.org/2000/svg" viewBox="0 0 51.43 54.99" fill="#FFFFFF"><path d="M33.92,48.28a.87.87,0,0,0,.27-1.19l-.83-1.39,6.56.74L37.5,52.6l-1-1.5a.89.89,0,0,0-1.12-.29,23.61,23.61,0,0,1-5.67,2,16.3,16.3,0,0,1-5.94.19,22.26,22.26,0,0,1-8.24-3.22,22,22,0,0,0,10,1.53,18.38,18.38,0,0,0,8.43-3.06M15.27,47.8a26.15,26.15,0,0,1-3.1-1.6l-.83-.54-.23-.16,0,0a1.35,1.35,0,0,0-1.87.24,1.36,1.36,0,0,0,.19,1.88c5,4.18,9.64,6.53,14.07,7.2a18.87,18.87,0,0,0,2.7.2A18.39,18.39,0,0,0,30,54.58a24.94,24.94,0,0,0,5.39-1.84l1.06,1.53A1.35,1.35,0,0,0,38.86,54l2.92-7.43a1.35,1.35,0,0,0-.09-1.19,1.39,1.39,0,0,0-1-.65l-8-.9a1.35,1.35,0,0,0-1.31,2l.83,1.4a16.48,16.48,0,0,1-6.9,2.31,20.86,20.86,0,0,1-10-1.77"/><path d="M25.23,3.65A18.42,18.42,0,0,0,16.8,6.71a.88.88,0,0,0-.27,1.2l.83,1.38L10.8,8.55l2.42-6.16,1,1.5a.88.88,0,0,0,1.12.29,23.89,23.89,0,0,1,5.67-2A16.75,16.75,0,0,1,27,2a22.26,22.26,0,0,1,8.24,3.22,22,22,0,0,0-10-1.53M38.55,8.8l.83.53.22.15,0,0a1.35,1.35,0,0,0,1.68-2.11C36.28,3.22,31.68.87,27.25.2a18.37,18.37,0,0,0-6.56.21,24.66,24.66,0,0,0-5.4,1.84L14.23.72A1.38,1.38,0,0,0,13,.14a1.36,1.36,0,0,0-1.1.85L8.94,8.43A1.3,1.3,0,0,0,9,9.61a1.35,1.35,0,0,0,1,.65l8,.9h.15a1.33,1.33,0,0,0,1.13-.62,1.35,1.35,0,0,0,0-1.42L18.5,7.74a16.2,16.2,0,0,1,6.9-2.31A20.75,20.75,0,0,1,35.45,7.19a25.92,25.92,0,0,1,3.1,1.61"/><path d="M5.52,18.52a5.43,5.43,0,1,1,3.85,9.27h0a5.43,5.43,0,0,1-3.84-9.27M9.36,29.75h0A7.38,7.38,0,1,0,2,22.36a7.33,7.33,0,0,0,7.4,7.39"/><path d="M2,39.11A12.41,12.41,0,0,1,4.78,32a8.74,8.74,0,0,0,9.4,0c2,2.26,2.45,5.52,2.56,7.11Zm16.72,1c0-.27.17-6.51-3.75-10.1A1,1,0,0,0,13.71,30s-4.38,3.3-8.42,0A1,1,0,0,0,4,30,13.94,13.94,0,0,0,0,40.08a1,1,0,0,0,.28.69,1,1,0,0,0,.7.3H17.75a1,1,0,0,0,1-.94"/><path d="M47.5,22.36a5.45,5.45,0,0,1-5.43,5.44h0a5.43,5.43,0,0,1-3.84-9.28,5.37,5.37,0,0,1,3.84-1.59,5.44,5.44,0,0,1,5.43,5.43M36.84,17.14a7.39,7.39,0,0,0,5.23,12.61h0a7.41,7.41,0,0,0,7.39-7.39,7.39,7.39,0,0,0-12.62-5.22"/><path d="M34.71,39.11A12.34,12.34,0,0,1,37.49,32a8.72,8.72,0,0,0,9.39,0,12.38,12.38,0,0,1,2.56,7.11Zm13-9.09A1,1,0,0,0,46.41,30S42,33.26,38,30a1,1,0,0,0-1.26,0,14,14,0,0,0-4,10.09.94.94,0,0,0,.29.69,1,1,0,0,0,.69.3H50.45a1,1,0,0,0,1-.94c0-.27.17-6.51-3.76-10.1"/></svg>