<svg xmlns="http://www.w3.org/2000/svg" viewBox="0 0 38.54 43.19" fill="#FFFFFF">
    <path d="M13.15,1.72a.69.69,0,1,1,1.38,0V7.9a.69.69,0,1,1-1.38,0Zm.69,7.89A1.71,1.71,0,0,0,15.56,7.9V1.72a1.72,1.72,0,0,0-3.44,0V7.9a1.71,1.71,0,0,0,1.72,1.71"/>
    <path d="M13.15,19.78a.69.69,0,1,1,1.38,0V26a.69.69,0,1,1-1.38,0Zm-1,6.18a1.72,1.72,0,1,0,3.44,0V19.78a1.72,1.72,0,1,0-3.44,0Z"/>
    <path d="M17.56,10.12a.68.68,0,0,1-.21-.48.71.71,0,0,1,.21-.49l4.37-4.37a.67.67,0,0,1,.48-.2.7.7,0,0,1,.49.2.69.69,0,0,1,0,1l-4.37,4.37a.7.7,0,0,1-1,0m4.85-6.57a1.7,1.7,0,0,0-1.21.5L16.83,8.42a1.71,1.71,0,0,0-.51,1.22,1.72,1.72,0,0,0,2.93,1.21l4.38-4.37a1.7,1.7,0,0,0,.5-1.21,1.71,1.71,0,0,0-1.72-1.72"/>
    <path d="M10.12,18.53,5.75,22.9a.7.7,0,0,1-1,0,.68.68,0,0,1-.2-.49.71.71,0,0,1,.2-.49l4.37-4.36a.68.68,0,0,1,.49-.21.64.64,0,0,1,.48.21.69.69,0,0,1,0,1M11.36,18a1.67,1.67,0,0,0-.51-1.21,1.72,1.72,0,0,0-2.43,0L4.05,21.2a1.72,1.72,0,0,0,1.22,2.93,1.67,1.67,0,0,0,1.21-.51l4.37-4.37A1.67,1.67,0,0,0,11.36,18"/>
    <path d="M26.65,13.84a.69.69,0,0,1-.69.69H19.78a.69.69,0,0,1,0-1.38H26a.69.69,0,0,1,.69.69m-8.59,0a1.72,1.72,0,0,0,1.72,1.72H26a1.72,1.72,0,0,0,0-3.44H19.78a1.72,1.72,0,0,0-1.72,1.72"/>
    <path d="M1.72,13.15H7.9a.69.69,0,0,1,0,1.38H1.72a.69.69,0,1,1,0-1.38m0,2.41H7.9a1.72,1.72,0,0,0,0-3.44H1.72a1.72,1.72,0,1,0,0,3.44"/>
    <path d="M4.78,4.78a.71.71,0,0,1,.49-.2.69.69,0,0,1,.48.2l4.37,4.37a.7.7,0,0,1,.2.49.67.67,0,0,1-.2.48.7.7,0,0,1-1,0L4.78,5.75a.69.69,0,0,1,0-1m3.64,6.07a1.7,1.7,0,0,0,1.22.5,1.72,1.72,0,0,0,1.72-1.71,1.71,1.71,0,0,0-.51-1.22L6.48,4.05a1.72,1.72,0,0,0-2.43,0,1.74,1.74,0,0,0-.5,1.22,1.7,1.7,0,0,0,.5,1.21Z"/>
    <path d="M31.75,29.74a.69.69,0,0,0-.27.45.72.72,0,0,0,.13.51l5.28,7L31.8,41.54l-5.27-7a.7.7,0,0,0-.55-.27.72.72,0,0,0-.42.13l-4.64,3.49L18.47,18.5l17.92,7.75ZM38.43,26a.71.71,0,0,0-.41-.55l-20.11-8.7a.69.69,0,0,0-1,.72l2.76,21.74a.68.68,0,0,0,.41.54.67.67,0,0,0,.68-.08l5-3.79,5.27,7a.68.68,0,0,0,1,.14l6.19-4.65a.69.69,0,0,0,.27-.45.72.72,0,0,0-.13-.51l-5.28-7,5-3.78a.7.7,0,0,0,.27-.63"/>
</svg>