<svg xmlns="http://www.w3.org/2000/svg" viewBox="0 0 64.87 55.89" stroke="#FFFFFF" fill="none" stroke-width="1.25px"><path d="M40.54,46.16c-9.54.71-11.47-5.54-23.23-.95L9.4,32.42c2.89-1.67,7.79-4.4,11.48-5.56.52-.16,1-.29,1.48-.39a19.87,19.87,0,0,1,3.56-.24c1,0,2.2.05,3.42.15.71.06,1.44.14,2.18.23,1.14.15,2.28.33,3.41.56.75.15,1.49.32,2.21.52a22.39,22.39,0,0,1,3.3,1.12,12,12,0,0,1,2.15,1.13h0a4.65,4.65,0,0,1,2.31,3,3,3,0,0,1-.14,1.65c.43-.35.94-.71,1.5-1.08s1.35-.82,2.1-1.22c1.09-.58,2.29-1.15,3.5-1.65A31.12,31.12,0,0,1,59,28.49h.09c2-.26,5-.07,5.2,2.53C64.64,35.2,46.1,45.75,40.54,46.16Zm-38.1,9.2L.53,35.16,9.4,32.42l7.91,12.79.43,3.28Zm7.88-11.19a1.54,1.54,0,1,0,.35,3.07,1.54,1.54,0,0,0-.35-3.07ZM37.14,14.71v13c-.72-.2-1.46-.37-2.21-.52l0-.1v-8.2H31.53v7.74c-.74-.09-1.47-.17-2.18-.23V23.21H25.92v3a19.87,19.87,0,0,0-3.56.24c-.47.1-1,.23-1.48.39a19,19,0,0,1-.91-6,20.32,20.32,0,1,1,39.16,7.63H59a31.12,31.12,0,0,0-7.18,2.18l-.06-.13V8.67H48.36V32.32c-.75.4-1.46.81-2.1,1.22l-.08-.12V11.74H42.75v18l-.16.22a12,12,0,0,0-2.15-1.13l.13-.31V14.71Zm9-3V33.42l.08.12c-.56.37-1.07.73-1.5,1.08A3,3,0,0,0,44.9,33a4.65,4.65,0,0,0-2.31-3h0l.16-.22v-18Zm2.18,20.58V8.67H51.8V30.54l.06.13C50.65,31.17,49.45,31.74,48.36,32.32ZM40.57,14.71V28.5l-.13.31a22.39,22.39,0,0,0-3.3-1.12v-13ZM34.93,27.17c-1.13-.23-2.27-.41-3.41-.56V18.87H35v8.2Zm-5.59-.79c-1.22-.1-2.38-.15-3.42-.15v-3h3.43v3.17Z"/><path d="M20.9,26.92a.14.14,0,0,1,0-.06,19,19,0,0,1-.91-6,20.32,20.32,0,1,1,39.16,7.64,0,0,0,0,0,0,0m-33.2-2.22V23.21h3.43v3.12m2.18.23V18.87H35v8.2m2.18.64v-13h3.43V28.5m2.18,1.22v-18h3.43V33.42m2.18-1.1V8.67H51.8V30.54M10.33,44.17A1.54,1.54,0,1,1,9,45.88,1.56,1.56,0,0,1,10.33,44.17Zm7,1,.43,3.28L2.44,55.36.53,35.16,9.4,32.42Zm0,0c11.76-4.59,13.69,1.66,23.23.95,5.56-.41,24.11-11,23.79-15.15-.19-2.6-3.18-2.79-5.2-2.52H59a31.12,31.12,0,0,0-7.18,2.18c-1.21.51-2.41,1.07-3.5,1.65-.75.4-1.46.81-2.1,1.23a16.78,16.78,0,0,0-1.5,1.07M9.4,32.42c2.89-1.67,7.79-4.4,11.48-5.56a14.71,14.71,0,0,1,1.48-.38,18.84,18.84,0,0,1,3.56-.25c1,0,2.2.05,3.42.15.71.06,1.44.14,2.18.23,1.14.15,2.28.33,3.41.56.75.16,1.49.32,2.21.51a23.61,23.61,0,0,1,3.3,1.13,12,12,0,0,1,2.15,1.13h0a4.65,4.65,0,0,1,2.31,3,3,3,0,0,1-.14,1.65c-1.57,3.71-12.23.56-14.4,0"/></svg>