<svg xmlns="http://www.w3.org/2000/svg" viewBox="0 0 61.15 40.22" fill="none" stroke-width="2px" stroke="#808285"><path d="M19.1,26.77a15.74,15.74,0,0,0-4.17-3.1,19.87,19.87,0,0,1-3.62,3.69,19.52,19.52,0,0,1-3.62-3.69c-4,1.95-6.91,6.39-6.91,6.39A31.39,31.39,0,0,0,11.31,32a28.53,28.53,0,0,0,3.28-.19S17.24,28.6,19.1,26.77ZM5,15.42c0,4.77,3.42,8.64,6.3,8.64,2.45,0,6.29-3.87,6.29-8.64s-2.82-7.15-6.29-7.15S5,10.64,5,15.42Zm37,11.35a15.74,15.74,0,0,1,4.17-3.1,19.87,19.87,0,0,0,3.62,3.69,19.52,19.52,0,0,0,3.62-3.69c4,1.95,6.91,6.39,6.91,6.39A31.39,31.39,0,0,1,49.84,32a28.53,28.53,0,0,1-3.28-.19S43.91,28.6,42.05,26.77ZM56.14,15.42c0,4.77-3.42,8.64-6.3,8.64-2.45,0-6.29-3.87-6.29-8.64s2.82-7.15,6.29-7.15S56.14,10.64,56.14,15.42ZM36.48,25.92a32.78,32.78,0,0,1-5.9,6,32.64,32.64,0,0,1-5.91-6C18.09,29.1,13.4,36.36,13.4,36.36a51.3,51.3,0,0,0,17.18,3.08,51.28,51.28,0,0,0,17.17-3.08S43.06,29.1,36.48,25.92Zm4.37-13.47c0,7.79-5.57,14.1-10.27,14.1-4,0-10.28-6.31-10.28-14.1S24.9.78,30.58.78,40.85,4.66,40.85,12.45Z"/></svg>