<svg xmlns="http://www.w3.org/2000/svg" viewBox="0 0 55.76 62.23" fill="#FFFFFF"><path d="M1,61.21H41.64V3.59H1Zm41.13,1H.51A.51.51,0,0,1,0,61.72V3.07a.51.51,0,0,1,.51-.51H42.15a.51.51,0,0,1,.51.51V61.72a.51.51,0,0,1-.51.51"/><path d="M46.33,51.14l4.15,8.53,4.14-8.53V18.66H46.33Zm4.15,10.22a.52.52,0,0,1-.46-.29l-4.66-9.59a.59.59,0,0,1,0-.23V18.15a.51.51,0,0,1,.51-.51h9.31a.51.51,0,0,1,.52.51v33.1a.46.46,0,0,1-.06.23l-4.65,9.59a.52.52,0,0,1-.46.29"/><path d="M49.91,58.51l.57,1.16L51,58.51a7.1,7.1,0,0,0-1.13,0m.57,2.85a.52.52,0,0,1-.46-.29l-1.33-2.73a.54.54,0,0,1,0-.45.5.5,0,0,1,.35-.27,6.66,6.66,0,0,1,2.88,0,.47.47,0,0,1,.34.27.51.51,0,0,1,0,.45l-1.32,2.73a.52.52,0,0,1-.46.29"/><path d="M55.24,51.78a.54.54,0,0,1-.26-.07l-1.5-.89-.95.82a.51.51,0,0,1-.63,0l-1.5-1.08-1,1a.51.51,0,0,1-.36.15h0a.51.51,0,0,1-.37-.15l-1-1-1.5,1.08a.51.51,0,0,1-.71-.12.5.5,0,0,1,.11-.71l1.86-1.33a.5.5,0,0,1,.66.05l1,1,1-1a.5.5,0,0,1,.66-.05l1.52,1.09.92-.8a.53.53,0,0,1,.6,0l1.81,1.08a.51.51,0,0,1-.26,1"/><path d="M47.91,50.57a.51.51,0,0,1-.51-.51V18.15a.51.51,0,0,1,.51-.51.51.51,0,0,1,.51.51V50.06a.51.51,0,0,1-.51.51"/><path d="M50.31,50.72a.5.5,0,0,1-.51-.5l-.15-32.07a.51.51,0,0,1,.51-.51h0a.53.53,0,0,1,.52.51l.14,32.06a.51.51,0,0,1-.51.51Z"/><path d="M52.74,51.1a.51.51,0,0,1-.51-.51V18.15a.51.51,0,0,1,1,0V50.59a.51.51,0,0,1-.51.51"/><path d="M46.33,17.64h8.29v-1.9a1.9,1.9,0,0,0-1.9-1.91H48.24a1.91,1.91,0,0,0-1.91,1.91Zm8.8,1H45.82a.51.51,0,0,1-.51-.51V15.74a2.93,2.93,0,0,1,2.93-2.93h4.48a2.93,2.93,0,0,1,2.93,2.93v2.41a.51.51,0,0,1-.52.51"/><path d="M8,18.08H34.64V12.43H8Zm27.13,1H7.51A.51.51,0,0,1,7,18.59V11.92a.51.51,0,0,1,.51-.51H35.15a.51.51,0,0,1,.52.51v6.67a.51.51,0,0,1-.52.51"/><path d="M34.64,23.49H8a.51.51,0,0,1,0-1H34.64a.51.51,0,0,1,0,1"/><path d="M34.64,27.68H8a.52.52,0,0,1,0-1H34.64a.52.52,0,0,1,0,1"/><path d="M34.64,31.86H16.32a.52.52,0,0,1,0-1H34.64a.52.52,0,0,1,0,1"/><path d="M28,36H8a.51.51,0,1,1,0-1H28a.51.51,0,0,1,0,1"/><path d="M34.64,40.21H8a.51.51,0,0,1,0-1H34.64a.51.51,0,1,1,0,1"/><path d="M34.64,44.39h-21a.51.51,0,0,1,0-1h21a.51.51,0,0,1,0,1"/><path d="M34.64,48.56H8a.51.51,0,0,1-.51-.51A.51.51,0,0,1,8,47.54H34.64a.51.51,0,0,1,.51.51.51.51,0,0,1-.51.51"/><path d="M4.83,6.15a.51.51,0,0,1-.51-.51V.51a.51.51,0,0,1,1,0V5.64a.51.51,0,0,1-.51.51m5.5,0a.51.51,0,0,1-.51-.51V.51a.51.51,0,0,1,1,0V5.64a.51.51,0,0,1-.51.51m5.5,0a.51.51,0,0,1-.51-.51V.51a.51.51,0,0,1,1,0V5.64a.51.51,0,0,1-.51.51m5.5,0a.51.51,0,0,1-.51-.51V.51a.51.51,0,1,1,1,0V5.64a.51.51,0,0,1-.51.51m5.5,0a.51.51,0,0,1-.51-.51V.51a.51.51,0,1,1,1,0V5.64a.51.51,0,0,1-.51.51m5.5,0a.51.51,0,0,1-.52-.51V.51a.52.52,0,0,1,1,0V5.64a.51.51,0,0,1-.51.51m5.5,0a.51.51,0,0,1-.52-.51V.51a.52.52,0,0,1,1,0V5.64a.51.51,0,0,1-.51.51"/>jj</svg>