<svg xmlns="http://www.w3.org/2000/svg" viewBox="0 0 32.17 48.78" fill="#FFFFFF"><rect x="15.63" y="0.38" width="0.92" height="45.63"/><path d="M16.84.37a.38.38,0,0,1-.37.38H15.7a.37.37,0,0,1-.37-.38A.37.37,0,0,1,15.7,0h.77a.38.38,0,0,1,.37.37"/><path d="M5.35,46H3.14C6,32.61,8.33,19.22,11.2,5.83h1.31Q8.92,25.92,5.35,46"/><path d="M29,46H26.81Q23.24,25.92,19.66,5.83H21C23.84,19.22,26.15,32.61,29,46"/><path d="M11.85,2.64H11V5.39h.89Zm9.39,0h-.89V5.39h.89Zm-1.57,0h-.89V5.39h.89Zm-1.56,0h-.89V5.39h.89Zm-1.57,0h-.89V5.39h.89ZM15,2.64h-.89V5.39H15Zm-1.57,0h-.89V5.39h.89ZM22,6.47H10.2V1.56H22Z"/><path d="M9.17,18.17c2.35-1.49,4.67-3.05,6.91-4.74,2.25,1.69,4.57,3.25,6.92,4.74l-.38-1.79c-1.85-1.2-3.67-2.45-5.44-3.79,1.34-1.06,2.65-2.18,3.91-3.37l-.33-1.57a56.27,56.27,0,0,1-4.68,4.1,57.8,57.8,0,0,1-4.67-4.1l-.33,1.57c1.26,1.19,2.57,2.31,3.91,3.37-1.77,1.34-3.6,2.59-5.44,3.79Z"/><path d="M16.08,34.93q-4.56-2.31-9-4.92c3-1.57,6.06-3.2,9-5,3,1.77,6,3.4,9,5q-4.46,2.61-9,4.92m11.66,5.49q-5-2.2-10-4.64c2.71-1.38,5.39-2.82,8.05-4.36l-.62-2.93c-2.6-1.36-5.19-2.78-7.73-4.29,2-1.25,4-2.57,6-4l-.34-1.62c-2.28,1.71-4.62,3.29-7,4.76-2.39-1.47-4.73-3.05-7-4.76l-.35,1.62c1.95,1.41,3.94,2.73,6,4C12.15,25.71,9.57,27.13,7,28.49l-.62,2.93C9,33,11.69,34.4,14.4,35.78q-4.94,2.44-10,4.64l-.2.92.34.6c3.87-1.68,7.72-3.44,11.52-5.32,3.79,1.88,7.63,3.64,11.51,5.32l.34-.6Z"/><path d="M27,40.67H5.21v.89H27ZM25.6,35.2h-19v.89h19ZM25,29.83H7.16v.89H25Zm-1.33-6.28H8.5v.89H23.67ZM22.4,17.72H9.77v.89H22.4ZM21.79,12H10.38v.89H21.79ZM20.55,8.29H11.62V7.4h8.93Z"/><path d="M32.17,47.13a1.65,1.65,0,0,0-1.65-1.65H1.65a1.65,1.65,0,1,0,0,3.3H30.52a1.65,1.65,0,0,0,1.65-1.65"/></svg>