<svg xmlns="http://www.w3.org/2000/svg" viewBox="0 0 52.27 40.23" fill="#FFFFFF"><path d="M6.93,13.78H28.57a.65.65,0,0,0,0-1.29H6.93a.65.65,0,0,0,0,1.29"/><path d="M28.57,30.2H6.93a.64.64,0,0,0-.64.64.64.64,0,0,0,.64.64H28.57a.64.64,0,0,0,.64-.64.64.64,0,0,0-.64-.64"/><path d="M50.1,6l-7.78,7.78-3.69-3.69,7.89-7.89h0a2.83,2.83,0,0,1,1.79-.78,2.56,2.56,0,0,1,1.82.86l0,0A2.48,2.48,0,0,1,51,4.11,3.08,3.08,0,0,1,50.1,6M41,15.62l-4.14-4.14.43-.43,4.14,4.14Zm-8.42,8L28.86,19.9l7.52-7.52,3.69,3.69Zm-4.26,1.62-1.19.22-.08,0,.22-1.29.28.28.6-3.47,3.38,3.38L28,25Zm5.93-1.47V39H1.28V1.28H34.22V12.73L27.05,19.9l.51.51-.17,1H6.93a.64.64,0,1,0,0,1.28H27.17l-.55,3.15,5.43-.94.5.49,1.67-1.66.64-.64ZM51.1,1.47l0,0A3.8,3.8,0,0,0,48.32.18a4.08,4.08,0,0,0-2.7,1.15L37.27,9.68a.64.64,0,0,0-.19.45,1,1,0,0,0,0,.17l-.49.49-.23-.22-.88.87V0H0V40.23H35.5V22.45l6.38-6.38-.23-.23.5-.49.17,0a.61.61,0,0,0,.45-.19L51,7a4.3,4.3,0,0,0,1.27-2.81A3.67,3.67,0,0,0,51.1,1.47"/><path d="M37.24,8A.57.57,0,0,0,38,8L44,2.11a.57.57,0,0,0,0-.8h0a.57.57,0,0,0-.8,0L37.23,7.22a.57.57,0,0,0,0,.8Z"/></svg>