<svg xmlns="http://www.w3.org/2000/svg" viewBox="0 0 38.52 46.31" stroke="#808285"><path fill="none" stroke-width="1.4px" d="M25.55,6.76h-11m11,4h-11m19,4h-19m19,4h-19m19,4h-19m19,4h-19m19,3h-19m-11-19H1.44a.87.87,0,0,0-.89.85v33.3a.87.87,0,0,0,.89.85H26.65a.87.87,0,0,0,.9-.85V42.76m-20-35H5.44a.87.87,0,0,0-.89.85V41.92a.87.87,0,0,0,.89.84H30.65a.87.87,0,0,0,.9-.84V39.76m-21-35H8.44a.87.87,0,0,0-.89.85V38.92a.87.87,0,0,0,.89.84H33.65a.87.87,0,0,0,.9-.84V36.76M28,.76H11.44a.87.87,0,0,0-.89.85V34.92a.87.87,0,0,0,.89.84H36.65a.87.87,0,0,0,.9-.84v-25Zm.6,9V.55L38,9.76Z"/></svg>