<svg xmlns="http://www.w3.org/2000/svg" viewBox="0 0 28.86 27.28" fill="#FFFFFF">
    <path d="M21.58,26.23,18.4,4.6C18.28,3.72,18.15,2.84,18,2l6.22-.92q1.57,10.82,3.17,21.63l.39,2.64-6.22.91M4.7,25.66,2,25.62c0-2.09.05-4.18.08-6.27l4.09,0,14.27,6.45L4.7,25.66m-1-8.48L1.15,16l2.59-5.73,3.18,1.44L19.57,23.93l.77.74v0L3.68,17.18m.9-9.08L8.93,3.58l9.69,9.32c.49,3.39,1,6.77,1.49,10.16L6.54,10l-2-1.89M28.84,25.6q-1.61-11-3.23-22.06c-.16-1.06-.31-2.12-.47-3.18,0-.29-.38-.39-.62-.35l-7.2,1.05c-.29,0-.38.38-.35.62l1.41,9.6L11.59,4.75,9.27,2.51a.51.51,0,0,0-.71,0L3.51,7.76a.51.51,0,0,0,0,.71L4.78,9.69l-1-.47a.5.5,0,0,0-.68.18L.06,16a.51.51,0,0,0,.18.69l3.64,1.64-2.31,0a.5.5,0,0,0-.5.5L1,26.12a.51.51,0,0,0,.5.5l19.18.23v.08c0,.29.38.38.62.35L23,27l.45.21a.52.52,0,0,0,.69-.18.77.77,0,0,1,.07-.16l2.75,0a.5.5,0,0,0,.5-.5v-.05l1-.15a.39.39,0,0,0,.36-.49.62.62,0,0,0,0-.13"/>
    <path d="M24.32,24.3a1.15,1.15,0,1,1,0-2.29,1.15,1.15,0,0,1,0,2.29m0-2.83A1.68,1.68,0,1,0,26,23.15a1.68,1.68,0,0,0-1.68-1.68"/>
</svg>