<svg xmlns="http://www.w3.org/2000/svg" viewBox="0 0 52.96 47.76" fill="#FFFFFF"><path d="M28,40a36.35,36.35,0,0,0,6.64.67c5.39,0,9.61-1.5,12.56-4.44C51.3,32.13,52.6,25.5,51,17a36.35,36.35,0,0,0-6.64-.67c-5.39,0-9.61,1.49-12.55,4.44C27.71,24.85,26.41,31.48,28,40m6.64,2a37.42,37.42,0,0,1-7.32-.78.67.67,0,0,1-.51-.51c-1.82-9.15-.43-16.34,4.05-20.8C34.07,16.66,38.61,15,44.35,15a37.34,37.34,0,0,1,7.32.78.64.64,0,0,1,.51.51c1.83,9.14.43,16.33-4,20.8C44.94,40.33,40.41,42,34.66,42"/><path d="M9.76,25c-1,5.69-.16,10.12,2.56,12.83,2,2,4.82,3,8.46,3h0a23.64,23.64,0,0,0,4.36-.43c1.05-5.68.18-10.11-2.55-12.83S15.43,24,9.76,25m11,17.11h0c-4,0-7.16-1.13-9.38-3.36-3.11-3.1-4.09-8.09-2.83-14.43a.64.64,0,0,1,.51-.51,25.65,25.65,0,0,1,5.05-.54c4,0,7.15,1.13,9.38,3.36,3.12,3.11,4.09,8.1,2.83,14.44a.67.67,0,0,1-.51.51,26.46,26.46,0,0,1-5,.53"/><path d="M27.47,41.18A.66.66,0,0,1,27,41a.65.65,0,0,1,0-.92L43.13,23.25a.65.65,0,0,1,.94.9L27.94,41a.63.63,0,0,1-.47.2"/><path d="M26.41,47.76a.66.66,0,0,1-.65-.65V12.31a.65.65,0,1,1,1.3,0v34.8a.65.65,0,0,1-.65.65"/><path d="M37.46,30.77a.65.65,0,0,1-.65-.6L36.06,21a.66.66,0,0,1,.6-.7.65.65,0,0,1,.7.6l.74,9.21a.64.64,0,0,1-.59.7h0"/><path d="M31.28,37.21a.65.65,0,0,1-.1-1.29l9.9-1.57a.65.65,0,1,1,.21,1.28l-9.9,1.57h-.11"/><path d="M25.7,41.59a.67.67,0,0,1-.47-.2L14.1,29.8a.65.65,0,1,1,.94-.9L26.17,40.49a.65.65,0,0,1,0,.92.66.66,0,0,1-.45.18"/><path d="M13.34,34.9a.65.65,0,0,1-.23-1.26l4.11-1.56a.66.66,0,0,1,.84.38.65.65,0,0,1-.38.84l-4.11,1.55a.59.59,0,0,1-.23,0"/><path d="M22,37.74h0a.65.65,0,0,1-.61-.69l.4-6.16a.65.65,0,0,1,.69-.61.66.66,0,0,1,.61.69l-.4,6.16a.65.65,0,0,1-.65.61"/><path d="M3,19.53A1.67,1.67,0,1,0,4.66,21.2,1.67,1.67,0,0,0,3,19.53m0,4.64a3,3,0,1,1,3-3,3,3,0,0,1-3,3"/><path d="M49.76,3.17a1.68,1.68,0,1,0,1.68,1.68,1.68,1.68,0,0,0-1.68-1.68m0,4.65a3,3,0,1,1,3-3,3,3,0,0,1-3,3"/><path d="M15.19,1.58c-.7,4-.08,7.09,1.82,9a8.17,8.17,0,0,0,6,2.1,18.11,18.11,0,0,0,3-.28c.71-4,.09-7.1-1.81-9s-5-2.52-9-1.81M23,14h0a9.37,9.37,0,0,1-6.91-2.48C13.8,9.2,13.08,5.53,14,.9a.64.64,0,0,1,.51-.51c4.63-.92,8.3-.2,10.6,2.08s3,6,2.08,10.6a.64.64,0,0,1-.51.51A18.91,18.91,0,0,1,23,14"/><path d="M26.55,13.59a.63.63,0,0,1-.47-.2L20.46,7.52a.65.65,0,1,1,.94-.9L27,12.49a.65.65,0,0,1,0,.92.63.63,0,0,1-.45.18"/></svg>