<svg xmlns="http://www.w3.org/2000/svg" viewBox="0 0 42.18 34.7" fill="#FFFFFF"><path d="M17.17,16.8h5.61a.53.53,0,0,1,.52.53.54.54,0,0,1-.54.54H16.94c-.75,0-1.67,0-2.8,0A8.54,8.54,0,0,1,9,16.12c-.36-.25-.7-.5-1-.76a11.06,11.06,0,0,0-5.21-2.55V7.36a25.49,25.49,0,0,0,2.87-.58.38.38,0,0,0,.1,0L6,6.66C9.18,5.87,15.33,4.32,24.3,2h0a1.75,1.75,0,0,1,.94.07l.07,0,13.3,9.65.59.43.14.08a1.61,1.61,0,0,1,.35.25l0,0A1.45,1.45,0,0,1,38.83,15l-.11,0a1.24,1.24,0,0,1-.43,0l-.17,0-.2-.08a.67.67,0,0,1-.11-.07l0,0-1.5-1.08,0,0L27.68,8.2a1.2,1.2,0,0,0-.31-.13A3.92,3.92,0,0,0,26.24,8l-.17,0c-.39.09-2.17.55-5.46,1.42l-.15,0q-1,.3-2,.54l-2.12.56a.85.85,0,0,0-.22.09,3.29,3.29,0,0,0,1.06,6.14m8.06,1.09a.22.22,0,0,0,0-.08,2.31,2.31,0,0,0,.05-.46,3.57,3.57,0,0,0,0-.47v-.06c.73,0,1.62,0,2.8,0a8.48,8.48,0,0,1,5.11,1.8c.36.24.7.5,1,.75A11.12,11.12,0,0,0,39.4,21.9v5.45a23,23,0,0,0-2.86.57l-.1,0-.27.1c-4.79,1.18-15.2,3.83-18.29,4.62h0a1.7,1.7,0,0,1-1-.07L2.93,22.51a.57.57,0,0,0-.13-.08,1.56,1.56,0,0,1-.34-.25l0,0a1.45,1.45,0,0,1-.44-1,1.47,1.47,0,0,1,1.35-1.46l.12,0a1.55,1.55,0,0,1,.43,0l.16,0,.2.08.13.08,0,0L5.9,20.92s0,0,0,0L14.5,26.5a1,1,0,0,0,.31.14,3.67,3.67,0,0,0,1.13.08l.17,0c.39-.1,2.18-.56,5.45-1.43l.16,0c.67-.19,1.34-.37,2-.53l.6-.16,1.51-.4a.92.92,0,0,0,.23-.09,3.29,3.29,0,0,0-.85-6.1.13.13,0,0,0,0-.06M17,12.46l1.95-.52c.68-.16,1.38-.35,2.06-.54l.14,0c3-.8,4.79-1.26,5.3-1.39a1.7,1.7,0,0,1,.33,0l8.37,5.43,1.53,1.11.1.06.27.15a3.15,3.15,0,0,0,.52.21A4.13,4.13,0,0,0,38,17a3.17,3.17,0,0,0,1.07,0,3.45,3.45,0,0,0,3.12-3.44,3.4,3.4,0,0,0-1-2.43.08.08,0,0,0,0,0,3.43,3.43,0,0,0-.76-.57L26.4.43a.73.73,0,0,0-.29-.15L26,.23A3.7,3.7,0,0,0,23.93.08h-.06l-.06,0C14.79,2.4,8.62,4,5.47,4.73l-.1,0-.27.09a16.4,16.4,0,0,1-3.31.58,1,1,0,0,0-1,1v.49a1,1,0,0,0,0,.17v6.49a1,1,0,0,0,1,1.16c2,0,3.42,1,5,2.22l1.09.79a10.45,10.45,0,0,0,6.25,2.16c1.15,0,2.09,0,2.83,0h7.79a1.3,1.3,0,0,1,.44,2.36l-1.38.36-.58.16c-.67.16-1.37.34-2,.54l-.14,0c-3.65,1-4.92,1.29-5.31,1.38a1.63,1.63,0,0,1-.32,0L7.05,19.29l-1.54-1.1a.41.41,0,0,0-.11-.07L5.15,18a3,3,0,0,0-.52-.21,2,2,0,0,0-.44-.1,3,3,0,0,0-1.08,0A3.45,3.45,0,0,0,1,23.55l0,0a3.74,3.74,0,0,0,.77.57l14,10.12a1,1,0,0,0,.28.14l.1,0,.05,0a3.92,3.92,0,0,0,1.28.22,4.06,4.06,0,0,0,.82-.08l.07,0c3.1-.79,13.57-3.46,18.33-4.63l.11,0,.27-.1a16,16,0,0,1,3.31-.57,1,1,0,0,0,1-1v-.49a.91.91,0,0,0,0-.17V21.12a1,1,0,0,0-1-1.15c-2,0-3.41-1-5-2.23L34.29,17A10.45,10.45,0,0,0,28,14.79c-1.2,0-2.11,0-2.84,0H17.42a1.31,1.31,0,0,1-1-1.28A1.28,1.28,0,0,1,17,12.46"/></svg>