<svg xmlns="http://www.w3.org/2000/svg" viewBox="0 0 54.26 55.16" fill="none" stroke="#808285"><path stroke-width="1.49px" d="M41.4,27.56A14.27,14.27,0,1,1,27.13,13.29,14.27,14.27,0,0,1,41.4,27.56Zm3.82,0A18.09,18.09,0,1,1,27.13,9.47,18.09,18.09,0,0,1,45.22,27.56Zm4.57,0a23.19,23.19,0,0,0-.19-2.91L53.52,22l-1.74-5.35L47,16.74A22.43,22.43,0,0,0,43.58,12l1.6-4.48-4.55-3.3L36.88,7.11a22.54,22.54,0,0,0-5.6-1.82L29.94.75H24.32L23,5.29a22.6,22.6,0,0,0-5.59,1.82L13.63,4.22,9.09,7.52,10.68,12a22.79,22.79,0,0,0-3.46,4.74l-4.74-.13L.75,22l3.92,2.69a23.19,23.19,0,0,0-.19,2.91,24,24,0,0,0,.19,3L.75,33.2l1.73,5.34,4.76-.13a22.33,22.33,0,0,0,3.45,4.73l-1.6,4.49,4.54,3.31L17.41,48A22.34,22.34,0,0,0,23,49.83l1.35,4.58h5.62l1.35-4.58A22.55,22.55,0,0,0,36.86,48l3.77,2.91,4.55-3.31-1.6-4.49A23,23,0,0,0,47,38.41l4.75.13,1.74-5.34-3.93-2.69A22.15,22.15,0,0,0,49.79,27.56Z"/><path stroke-width="0.54px" d="M28.25,36.17c4.74-.07,9.88-4.94,6.93-16.36-2.41.93-6.64,2.91-8.45,5.33a10.53,10.53,0,0,1,2.06,4,17.39,17.39,0,0,1,3-4.27,47.47,47.47,0,0,0-2.64,6.21C29.57,34.54,28.25,36.17,28.25,36.17ZM25.6,37.43c-6.29.66-13.92-6.64-4.12-17.95,1.51,3.9,9.94,8.7,5.28,16.94-2.1-1.87-4.89-6.31-4.81-10.35C20.69,31,23.27,34.94,25.6,37.43Z"/></svg>