<svg xmlns="http://www.w3.org/2000/svg" viewBox="0 0 50.69 41.72" fill="#FFFFFF"><path d="M48.9,12.14,44.09,17a8.27,8.27,0,0,1,0,1.12,8.14,8.14,0,0,1-.22,1.31,11.56,11.56,0,0,1-3,5.13c-2,2.06-4,4-6,6.06s-4.23,4.25-6.37,6.35a2.78,2.78,0,0,1-1.65,1,1.58,1.58,0,0,1-1.29-.52,1.92,1.92,0,0,1-.31-1.59,3.68,3.68,0,0,1,1-1.43c1-1,1.95-2,2.93-2.94.47-.48.95-1,1.41-1.44s2-1.6,1.14-2.37-1.82.66-2.27,1.11L28,30.17c-2.24,2.18-4.45,4.4-6.75,6.53-1,1-1.85.89-2.56.06s-.54-1.59.43-2.57l7.63-7.62a1.87,1.87,0,0,0,.73-1.14c.05-.4-.1-.76-.52-.82a1.48,1.48,0,0,0-1.45.61c-3,3-6,6-9,9-1,1-2.08,1-2.8,0-.54-.74-.39-1.56.48-2.44q4.56-4.57,9.13-9.12c.49-.5.88-1.05.27-1.62s-1.08-.07-1.53.38q-3.49,3.52-7,7a4.81,4.81,0,0,1-1,.84,1.66,1.66,0,0,1-2.31-.88c-.37-.93.11-1.52.7-2.12C16.27,22.37,20.16,18.5,24,14.59l1.59,1.6a2.8,2.8,0,0,0,2,.81,2.75,2.75,0,0,0,2-.8l.31-.31a2.76,2.76,0,0,0,.81-2,2.71,2.71,0,0,0-.72-1.87L26.4,8.5l-.69-.7.94-1a6.61,6.61,0,0,1,7.54-.7l1-1.05,3.32-3.31ZM39,30.74a1.67,1.67,0,0,1-2.32.87l-.24-.16c.78-.76,1.55-1.54,2.32-2.31a1.52,1.52,0,0,1,.24,1.6m-2,5.8c-.72,1-1.82,1-2.8,0L32.74,35.1l2.41-2.36,1.37,1.36c.87.88,1,1.71.48,2.44M9.85,26.86a11.49,11.49,0,0,1-3-5.11,9.18,9.18,0,0,1-.23-1.31,10.26,10.26,0,0,1,0-1.12L1.79,14.51,12.14,4.16l3.31,3.32.22.22v0l1.6.14.11-.26c.63-.44,3.25-1.89,6.76.78l4.63,4.66a1.24,1.24,0,0,1,0,1.75l-.31.31a1.25,1.25,0,0,1-1.76,0L22,10.34l-1.15.8,1.28,1.51.56.56L21,14.84a1.07,1.07,0,0,0-.25.43l-.08.09q-4.79,4.79-9.56,9.57a4.78,4.78,0,0,0-1.26,1.93m24-22.54-.65-.07c-1.55-.62-4.3-1.07-7.53,1.42l-.07.06L24.54,6.8c-4-2.71-7.15-1-8-.45l-4-4L0,14.9l4.75,4.74A12.11,12.11,0,0,0,7,26.16a17.19,17.19,0,0,0,2.08,2.52c1,1,2,2,2.95,2.95-1.06,1.56-.61,2.85.51,4a3.28,3.28,0,0,0,3.78.89h0c1.12,1.68,2.16,2.5,3.28,2.59L21,40.49a4.33,4.33,0,0,0,5.15.67,2.9,2.9,0,0,0,1.21-1.33c2.82,2.36,4.7,2.4,6.92-.91,0,0,0,0,0,0A3.26,3.26,0,0,0,38.14,38c1.18-1.22,1.63-2.59.31-4.27,0,0-.35-.45-.33-.45a2.65,2.65,0,0,0,2.09-1.1,3.22,3.22,0,0,0-.15-4.35c.51-.51,1-1,1.54-1.54a16.79,16.79,0,0,0,2.08-2.52,12.13,12.13,0,0,0,2.26-6.51l4.75-4.75L38.17,0Z"/></svg>