<svg xmlns="http://www.w3.org/2000/svg" viewBox="0 0 43.35 30.99" stroke="#808285"><path fill="none" stroke-width="1.5px" d="M21.67,16.08a.59.59,0,1,1,.59-.59A.6.6,0,0,1,21.67,16.08Zm-3.31,2.73a4.7,4.7,0,0,1,0-6.63m6.63,0a4.7,4.7,0,0,1,0,6.63m-9.53,2.9a8.78,8.78,0,0,1,0-12.43m12.43,0a8.78,8.78,0,0,1,0,12.43m-15.33,2.9a12.88,12.88,0,0,1,0-18.23m18.23,0a12.88,12.88,0,0,1,0,18.23M9.66,27.51a17,17,0,0,1,0-24m24,0a17,17,0,0,1,0,24M6.75,30.42A21.11,21.11,0,0,1,6.75.57M36.6.57a21.11,21.11,0,0,1,0,29.85"/></svg>