<svg xmlns="http://www.w3.org/2000/svg" viewBox="0 0 57.8 38.02" stroke="#FFFFFF"><path fill="none" stroke-width="1.48px" d="M18.06,25.3a15.13,15.13,0,0,0-3.95-2.92,18.93,18.93,0,0,1-3.42,3.48,18.79,18.79,0,0,1-3.43-3.48c-3.8,1.83-6.52,6-6.52,6a29.6,29.6,0,0,0,10,1.79,27.67,27.67,0,0,0,3.1-.18S16.29,27,18.06,25.3ZM4.74,14.57c0,4.51,3.22,8.17,5.95,8.17,2.32,0,5.94-3.66,5.94-8.17S14,7.82,10.69,7.82,4.74,10.06,4.74,14.57Zm35,10.73a14.8,14.8,0,0,1,3.95-2.92,18.58,18.58,0,0,0,3.42,3.48,18.58,18.58,0,0,0,3.42-3.48c3.81,1.83,6.53,6,6.53,6a29.67,29.67,0,0,1-10,1.79A27.67,27.67,0,0,1,44,30S41.51,27,39.74,25.3ZM53.06,14.57c0,4.51-3.23,8.17-6,8.17-2.32,0-6-3.66-6-8.17s2.67-6.75,6-6.75S53.06,10.06,53.06,14.57ZM34.48,24.5a30.91,30.91,0,0,1-5.58,5.7,31.13,31.13,0,0,1-5.59-5.7c-6.21,3-10.65,9.86-10.65,9.86A48.38,48.38,0,0,0,28.9,37.28a48.35,48.35,0,0,0,16.23-2.92S40.7,27.51,34.48,24.5Zm4.13-12.73c0,7.36-5.27,13.33-9.71,13.33-3.79,0-9.71-6-9.71-13.33s4.35-11,9.71-11S38.61,4.41,38.61,11.77Z"/></svg>