<svg xmlns="http://www.w3.org/2000/svg" viewBox="0 0 38.18 27.48" fill="#FFFFFF">
    <path d="M31.67,26.06H22.49V14h9.18Zm-10.33,0H8.47V1H21.34ZM32.67,13H22.33V0H7.48V26.49H0v1H38.18v-1H32.67Z"/>
    <path d="M13.72,6H11.53V4.24h2.19Zm.49-2.24H11V6.47h3.18Z"/>
    <path d="M18.28,6H16.09V4.24h2.19Zm.5-2.24H15.6V6.47h3.18Z"/>
    <path d="M18.28,9.53H16.09V7.79h2.19Zm.5-2.24H15.6V10h3.18Z"/>
    <path d="M18.28,15.8H16.09V14.06h2.19Zm.5-2.23H15.6V16.3h3.18Z"/>
    <path d="M18.28,22H16.09V20.29h2.19Zm.5-2.24H15.6v2.73h3.18Z"/>
    <path d="M13.72,22H11.53V20.29h2.19Zm.49-2.24H11v2.73h3.18Z"/>
    <path d="M26.4,17.33H24.2V15.59h2.2Zm.49-2.24H23.71v2.73h3.18Z"/>
    <path d="M30.38,21.73H28.19V20h2.19Zm.5-2.23H27.7v2.73h3.18Z"/>
</svg>