<svg xmlns="http://www.w3.org/2000/svg" viewBox="0 0 48.7 48.65" fill="none" stroke-width="1px" stroke="#808285"><path d="M40.41,28.6c-4-2.49-7-2.66-11.37-2.54s-20.13,0-20.13,0,2.71,11.7,13,13.46c0,0,21.09-1.42,25.73,4.13C47.65,43.65,44.37,31.09,40.41,28.6Z"/><path d="M8.57,20.13c4,2.49,7,2.66,11.37,2.54s20.13,0,20.13,0S37.36,11,27.06,9.21c0,0-21.09,1.42-25.73-4.13C1.33,5.08,4.61,17.64,8.57,20.13Z"/><path d="M44.69,29.14a14.22,14.22,0,0,1,2,2.75A23.61,23.61,0,0,0,9.7,5.8l3.94.54a20.93,20.93,0,0,1,31.05,22.8m2,3.31-.12-.23a14.38,14.38,0,0,0-2.12-3l-.05,0,0-.06A21.16,21.16,0,0,0,45,24.33,20.7,20.7,0,0,0,13.72,6.55l0,0L9.16,6l.2-.16A23.84,23.84,0,0,1,46.82,32.21Z"/><path d="M44.69,29.14a14.22,14.22,0,0,1,2,2.75A23.61,23.61,0,0,0,9.7,5.8l3.94.54a20.93,20.93,0,0,1,31.05,22.8Zm2,3.31-.12-.23a14.38,14.38,0,0,0-2.12-3l-.05,0,0-.06A21.16,21.16,0,0,0,45,24.33,20.7,20.7,0,0,0,13.72,6.55l0,0L9.16,6l.2-.16A23.84,23.84,0,0,1,46.82,32.21Z"/><path d="M2.14,16.27A23.6,23.6,0,0,0,24.33,47.93a23.32,23.32,0,0,0,14.31-4.84l-4-.54A20.93,20.93,0,0,1,4,19.26a14.48,14.48,0,0,1-1.88-3M24.33,48.15A23.83,23.83,0,0,1,2,15.94l.1-.25.11.24a14.28,14.28,0,0,0,2,3.23l0,0v.06A20.7,20.7,0,0,0,34.54,42.33l0,0h0l4.59.62-.21.17a23.58,23.58,0,0,1-14.66,5"/><path d="M2.14,16.27A23.6,23.6,0,0,0,24.33,47.93a23.32,23.32,0,0,0,14.31-4.84l-4-.54A20.93,20.93,0,0,1,4,19.26,14.48,14.48,0,0,1,2.14,16.27ZM24.33,48.15A23.83,23.83,0,0,1,2,15.94l.1-.25.11.24a14.28,14.28,0,0,0,2,3.23l0,0v.06A20.7,20.7,0,0,0,34.54,42.33l0,0h0l4.59.62-.21.17A23.58,23.58,0,0,1,24.33,48.15Z"/></svg>