<svg xmlns="http://www.w3.org/2000/svg" viewBox="0 0 38.58 38.65" fill="#FFFFFF">
    <path d="M22,13.51,22,1.6A15.12,15.12,0,0,1,30.4,4.82ZM21.33.1a.72.72,0,0,0-.53.21.75.75,0,0,0-.22.52l-.09,14.5A.73.73,0,0,0,21,16a.66.66,0,0,0,.27.06.75.75,0,0,0,.53-.22L32,5.29a.73.73,0,0,0,.2-.53A.72.72,0,0,0,32,4.24,16.5,16.5,0,0,0,21.33.1"/>
    <path d="M19.33,37.19A17.88,17.88,0,0,1,1.47,19.33c0-9.9,7.33-17.67,16.76-17.86V19.33a.71.71,0,0,0,.39.64l16.1,8.53c-2.63,5.07-9,8.69-15.39,8.69M36,27.53,19.7,18.89V.74A.73.73,0,0,0,19,0h-.38C8.16,0,0,8.49,0,19.33A19.35,19.35,0,0,0,19.33,38.65c7.22,0,14.38-4.27,17-10.17a.74.74,0,0,0-.32-.95"/>
    <path d="M35.85,11.09c.17.34.33.68.47,1L32.79,23.38,32.11,23Zm1.58,5L34.8,24.46l-.68-.37,3-9.56a13.51,13.51,0,0,1,.3,1.54m-1.18,9.16-.11-.05,1.28-4.08a15,15,0,0,1-1.17,4.13M30.77,22.3l-.67-.36L34.3,8.55c.18.26.37.52.54.79Zm-2-1.08-.68-.36,4-12.73,1-1,.09.09Zm-2-1.08-.68-.36,2.54-8.08,1.16-1.2Zm-2-1.08-.67-.36,1.07-3.43,1.17-1.2Zm-2-1.07-.15-.08.26-.27ZM35.79,9a19.15,19.15,0,0,0-1.3-1.79.5.5,0,0,0-.29-.16.43.43,0,0,0-.12-.31c-.24-.27-.45-.49-.65-.69a.43.43,0,0,0-.35-.14.48.48,0,0,0-.34.14L31.3,7.53a.47.47,0,0,0-.12.2L31,8.24a.48.48,0,0,0-.52.11L27.83,11.1a.41.41,0,0,0-.12.2l-.16.51a.48.48,0,0,0-.52.11l-2.68,2.75a.45.45,0,0,0-.11.19l-.16.51a.5.5,0,0,0-.52.11l-2.15,2.21a.51.51,0,0,0-.13.41.5.5,0,0,0,.25.36l1.25.67a.46.46,0,0,0,.23.05h0a.39.39,0,0,0,.19.19l1.55.84a.59.59,0,0,0,.23.05h0a.5.5,0,0,0,.19.19l1.55.83a.53.53,0,0,0,.24.06h0a.69.69,0,0,0,.19.19l1.56.83a.46.46,0,0,0,.23.06h0a.46.46,0,0,0,.19.2l1.55.83a.46.46,0,0,0,.23.06h0a.61.61,0,0,0,.19.2l1.56.83a.46.46,0,0,0,.23.06h0a.46.46,0,0,0,.19.2l1.55.83a.46.46,0,0,0,.23.06h0a.39.39,0,0,0,.19.19l.91.49a.46.46,0,0,0,.23.06l.15,0a.53.53,0,0,0,.29-.24,17.14,17.14,0,0,0,1.68-7.86c0-.29,0-.58,0-.9a.49.49,0,0,0-.36-.44l.21-.68a.5.5,0,0,0,0-.21,17.71,17.71,0,0,0-.82-3.34.5.5,0,0,0-.34-.31l.05-.16a.53.53,0,0,0,0-.33,18.28,18.28,0,0,0-1.15-2.3.44.44,0,0,0-.3-.23A.49.49,0,0,0,35.79,9"/>
</svg>