<svg xmlns="http://www.w3.org/2000/svg" viewBox="0 0 54.8 54.93" fill="#FFFFFF"><path d="M52.74,45.66a29.68,29.68,0,0,0-4.06.79l-.13,0-.35.13c-4.23,1-12.7,3.18-24.51,6.19h-.05a2.81,2.81,0,0,1-1.48-.11L3.44,39.16l-.13-.08a2.27,2.27,0,0,1-.55-.4l0,0A2.25,2.25,0,0,1,4.14,34.8l.12,0a1.9,1.9,0,0,1,.68,0l.26.06a1.7,1.7,0,0,1,.33.14l.19.11,0,0,2,1.45,0,0L19.27,44a1.23,1.23,0,0,0,.31.14,4.92,4.92,0,0,0,1.43.1l.18,0c.52-.12,3-.76,7.28-1.9l.21-.06c.89-.26,1.79-.5,2.7-.71l2.83-.76a.92.92,0,0,0,.23-.09,4.1,4.1,0,0,0-1.32-7.65H25.68a1,1,0,0,1,0-2.05h7.78c1,0,2.25,0,3.76,0a11.65,11.65,0,0,1,7,2.47c.48.33.94.68,1.4,1,2,1.52,4.16,3.08,7.09,3.39v6.77l0,1a.13.13,0,0,0,0,.06m1.87-9.42a1.07,1.07,0,0,0-.84-.42c-2.81,0-4.7-1.41-6.9-3l-1.45-1.06a13.76,13.76,0,0,0-8.2-2.83c-1.53,0-2.78,0-3.79,0H25.68a3.08,3.08,0,1,0,0,6.16h7.19a2.06,2.06,0,0,1,.68,3.76l-2.67.7c-.92.22-1.85.47-2.74.73l-.19,0L20.81,42.2a2.57,2.57,0,0,1-.58,0L9,34.86l-2-1.48-.13-.08-.32-.18a4.16,4.16,0,0,0-.66-.27,4.93,4.93,0,0,0-.54-.12,3.79,3.79,0,0,0-1.35,0,4.31,4.31,0,0,0-2.64,7.33l.06.06a4.64,4.64,0,0,0,1,.71L21,54.42a1,1,0,0,0,.28.14l.16.06.05,0a4.74,4.74,0,0,0,1.62.29,4.54,4.54,0,0,0,1-.1h.07l.08,0c11.85-3,20.33-5.16,24.54-6.2l.11,0,.37-.14a21.75,21.75,0,0,1,4.53-.78,1,1,0,0,0,1-1v-.68a1.21,1.21,0,0,0,0-.19V37a1.09,1.09,0,0,0-.18-.78"/><path d="M18.92,16.38c0-.57.12-1.15.23-1.76A15.34,15.34,0,0,1,33.23,2.09,15.24,15.24,0,0,1,18.92,16.38m11.31,5.75a12.08,12.08,0,0,1-15.82-.23l-.15-.13-.1-.07L14,21.55l-.16-.14c-.09-.1-.19-.2-.28-.31l-.16-.18A12.11,12.11,0,0,1,13.2,5.07a12.08,12.08,0,0,1,1,14.93,1,1,0,0,0,1.43,1.43,12.08,12.08,0,0,1,14.65.7M35.32,1.06V1a1,1,0,0,0-1-1h-.11a17.38,17.38,0,0,0-16.1,10.81A14.1,14.1,0,0,0,14.2,3.14L14,2.93a.39.39,0,0,1-.1-.08,1.06,1.06,0,0,0-1.39,0l-.06.07a14.15,14.15,0,0,0-.55,19.4l0,0L5.67,28.58l1.07,1.07L13,23.4l0,0a14.15,14.15,0,0,0,19.4-.55s0,0,0-.05a1.07,1.07,0,0,0,0-1.41l-.05-.05a14.14,14.14,0,0,0-8.31-4A17.31,17.31,0,0,0,35.32,1.06"/></svg>