<svg xmlns="http://www.w3.org/2000/svg" viewBox="0 0 50.85 45.49" fill="none" stroke="#FFFFFF" stroke-width="0.91px"><path d="M30.76,3.35q-3,2.9-3,8.69,0,6.33,3,9.05t8.42,2.72a34.84,34.84,0,0,1-.28,5,6,6,0,0,1-1.26,3.08,6.3,6.3,0,0,1-3,1.81c-1.33.42-3.19.87-5.61,1.36V45a44.06,44.06,0,0,0,11.22-2.35,13.25,13.25,0,0,0,6.43-5.07,21.54,21.54,0,0,0,3-9.23,122.13,122.13,0,0,0,.73-14.84q0-6.88-3.08-10A11.24,11.24,0,0,0,39,.46C35.5.46,32.75,1.42,30.76,3.35Z"/><path d="M3.44,3.35q-3,2.9-3,8.69,0,6.33,3,9.05t8.42,2.72a36.63,36.63,0,0,1-.27,5,6,6,0,0,1-1.27,3.08,6.3,6.3,0,0,1-3,1.81A57,57,0,0,1,1.72,35V45A44.25,44.25,0,0,0,13,42.63a13.27,13.27,0,0,0,6.42-5.07,21.54,21.54,0,0,0,3-9.23,124.5,124.5,0,0,0,.72-14.84q0-6.88-3.08-10A11.23,11.23,0,0,0,11.68.46Q6.43.46,3.44,3.35Z"/></svg>